<?xml version="1.0" encoding="utf-8"?>
<!-- Generator: Adobe Illustrator 23.1.0, SVG Export Plug-In . SVG Version: 6.00 Build 0)  -->
<svg version="1.1" id="Layer_1" xmlns="http://www.w3.org/2000/svg" xmlns:xlink="http://www.w3.org/1999/xlink" x="0px" y="0px"
	 viewBox="0 0 103 97" style="enable-background:new 0 0 103 97;" xml:space="preserve">
<style type="text/css">
	.st0{fill:none;stroke:#FFFFFF;stroke-width:3;stroke-linecap:round;stroke-linejoin:round;stroke-miterlimit:10;}
</style>
<line class="st0" x1="60.71" y1="16.12" x2="78.77" y2="16.12"/>
<polyline class="st0" points="39.16,78.59 33.09,92.33 64.46,92.33 58.5,78.59 "/>
<line class="st0" x1="33.09" y1="92.33" x2="17.44" y2="92.33"/>
<line class="st0" x1="64.46" y1="92.17" x2="86.77" y2="92.17"/>
<line class="st0" x1="22.23" y1="19.41" x2="22.23" y2="27.4"/>
<line class="st0" x1="18.12" y1="31.29" x2="10.27" y2="31.29"/>
<line class="st0" x1="25.41" y1="31.29" x2="34.4" y2="31.29"/>
<line class="st0" x1="22.23" y1="34.72" x2="22.23" y2="43.3"/>
<line class="st0" x1="42.68" y1="10" x2="48.72" y2="23.15"/>
<line class="st0" x1="48.72" y1="23.15" x2="61.2" y2="17.2"/>
<line class="st0" x1="61.19" y1="17.2" x2="55.38" y2="4.33"/>
<line class="st0" x1="55.38" y1="4.33" x2="42.68" y2="10"/>
<line class="st0" x1="72.42" y1="22.84" x2="85.35" y2="14.65"/>
<line class="st0" x1="85.35" y1="14.65" x2="95.9" y2="30.92"/>
<line class="st0" x1="95.9" y1="30.92" x2="83.11" y2="39.42"/>
<line class="st0" x1="83.11" y1="39.42" x2="72.42" y2="22.84"/>
<polyline class="st0" points="78.77,18.82 78.77,6.83 92.64,6.83 92.64,25.87 "/>
<line class="st0" x1="88.47" y1="44.01" x2="99.64" y2="48.38"/>
<line class="st0" x1="99.64" y1="48.38" x2="95.82" y2="59.29"/>
<line class="st0" x1="95.82" y1="59.29" x2="84.59" y2="55.55"/>
<line class="st0" x1="84.59" y1="55.55" x2="88.47" y2="44.01"/>
<line class="st0" x1="91.11" y1="34.09" x2="91.11" y2="45.03"/>
<path class="st0" d="M91.11,57.73v14.52c0,3.5-2.84,6.34-6.34,6.34h-73.4c-3.5,0-6.34-2.84-6.34-6.34V22.47
	c0-3.5,2.84-6.34,6.34-6.34h34.12"/>
<line class="st0" x1="5.23" y1="66.08" x2="91.44" y2="66.08"/>
</svg>
