<?xml version="1.0" encoding="utf-8"?>
<!-- Generator: Adobe Illustrator 23.1.0, SVG Export Plug-In . SVG Version: 6.00 Build 0)  -->
<svg version="1.1" id="Layer_1" xmlns="http://www.w3.org/2000/svg" xmlns:xlink="http://www.w3.org/1999/xlink" x="0px" y="0px"
	 viewBox="0 0 75 87" style="enable-background:new 0 0 75 87;" xml:space="preserve">
<style type="text/css">
	.st0{clip-path:url(#SVGID_2_);fill:url(#SVGID_3_);}
	.st1{clip-path:url(#SVGID_5_);fill:url(#SVGID_6_);}
	.st2{clip-path:url(#SVGID_8_);fill:url(#SVGID_9_);}
	.st3{clip-path:url(#SVGID_11_);fill:url(#SVGID_12_);}
	.st4{clip-path:url(#SVGID_14_);fill:url(#SVGID_15_);}
	.st5{clip-path:url(#SVGID_17_);fill:url(#SVGID_18_);}
	.st6{clip-path:url(#SVGID_20_);fill:url(#SVGID_21_);}
	.st7{clip-path:url(#SVGID_23_);fill:url(#SVGID_24_);}
	.st8{clip-path:url(#SVGID_26_);fill:url(#SVGID_27_);}
	.st9{fill:#FFFFFF;}
</style>
<g>
	<g>
		<defs>
			<path id="SVGID_1_" d="M25.44,39.46L25.44,39.46L25.44,39.46 M25.34,39.17c0.03,0.08,0.06,0.16,0.08,0.21
				C25.13,38.6,25.23,38.88,25.34,39.17 M25.43,39.43c-0.26-0.72-0.46-1.46-0.59-2.21c-1.05-6.03,2.45-12.11,8.17-14.26
				c4.78-1.79,10.28-0.51,13.79,3.17c3.29,3.44,4.42,8.55,2.87,13.05c-1.51,4.4-5.41,7.75-10,8.53
				C33.62,48.74,27.54,45.18,25.43,39.43L25.43,39.43 M23.36,20.86c-1.06,1.06-2.01,2.24-2.81,3.52c-1.67,2.66-2.7,5.71-2.97,8.84
				c-0.26,2.97,0.19,5.99,0.96,8.86c1.42,5.28,3.95,10.24,6.81,14.88c2.36,3.83,5.01,7.49,7.85,10.98c0.76,0.93,1.52,1.84,2.32,2.74
				c0.13,0.15,0.26,0.3,0.4,0.44c0.27,0.29,0.59,0.59,0.96,0.73c0.16,0.06,0.37,0.15,0.53,0.14c0.12,0,0.3-0.09,0.41-0.13
				c0.71-0.24,1.33-1.11,1.82-1.67c0.95-1.07,1.86-2.17,2.76-3.28c2.96-3.66,5.7-7.51,8.11-11.56c2.77-4.65,5.19-9.64,6.35-14.95
				c0.61-2.82,0.86-5.73,0.4-8.59c-0.42-2.62-1.37-5.15-2.78-7.41c-2.78-4.44-7.28-7.68-12.38-8.88c-1.49-0.35-3-0.52-4.51-0.52
				C32.32,15.01,27.14,17.08,23.36,20.86"/>
		</defs>
		<clipPath id="SVGID_2_">
			<use xlink:href="#SVGID_1_"  style="overflow:visible;"/>
		</clipPath>
		
			<linearGradient id="SVGID_3_" gradientUnits="userSpaceOnUse" x1="216.944" y1="400.5553" x2="217.3678" y2="400.5553" gradientTransform="matrix(-94.3704 0 0 -94.3704 20530.5957 37844.0742)">
			<stop  offset="0" style="stop-color:#7F2424"/>
			<stop  offset="1" style="stop-color:#D53E4F"/>
		</linearGradient>
		<rect x="17.31" y="15.01" class="st0" width="40.41" height="57"/>
	</g>
	<g>
		<defs>
			<path id="SVGID_4_" d="M25.16,19.27c-3.01,2.37-5.32,5.59-6.57,9.21c-0.72,2.1-1.09,4.31-1.09,6.52c0,5.1,1.76,10.16,3.9,14.72
				c2.04,4.35,4.58,8.46,7.35,12.38c1.9,2.69,3.92,5.29,6.07,7.79c0.36,0.42,0.71,0.83,1.09,1.24c0.26,0.28,0.57,0.57,0.93,0.72
				c0.12,0.05,0.56,0.25,0.66,0.11c0.05-0.07,0-0.39,0-0.48v-7.38v-10.4v-3.93v-1.24c0-0.12,0.07-0.5,0-0.6
				c-0.06-0.09-0.44-0.08-0.73-0.08c-0.12,0-0.23,0-0.28,0c-0.78-0.06-1.57-0.2-2.33-0.4c-1.51-0.41-2.94-1.1-4.2-2.02
				c-2.57-1.88-4.4-4.69-5.05-7.81c-0.67-3.22-0.06-6.62,1.68-9.41c1.51-2.41,3.81-4.29,6.47-5.27c0.73-0.27,1.48-0.47,2.25-0.6
				c0.35-0.06,0.71-0.11,1.07-0.14c0.2-0.02,0.4-0.03,0.6-0.04c0.02,0,0.07,0,0.14,0.01c0.15,0.01,0.36,0.01,0.39-0.02
				c0.04-0.04,0-0.28,0-0.34v-0.83v-4.91V15C33.05,15,28.66,16.51,25.16,19.27"/>
		</defs>
		<clipPath id="SVGID_5_">
			<use xlink:href="#SVGID_4_"  style="overflow:visible;"/>
		</clipPath>
		
			<linearGradient id="SVGID_6_" gradientUnits="userSpaceOnUse" x1="204.7664" y1="401.7295" x2="205.1902" y2="401.7295" gradientTransform="matrix(0 -134.5037 134.5037 0 -54006.582 27613.8477)">
			<stop  offset="0" style="stop-color:#7F2424"/>
			<stop  offset="1" style="stop-color:#D53E4F"/>
		</linearGradient>
		<rect x="17.5" y="15" class="st1" width="20.08" height="57.1"/>
	</g>
	<g>
		<defs>
			<path id="SVGID_7_" d="M33.16,25.39c-0.02,0.01-0.04,0.02-0.06,0.03c-0.01,0.01-0.03,0.01-0.04,0.02c0.01,0,0.04-0.02,0.08-0.03
				c0.04-0.02,0.08-0.04,0.08-0.04C33.21,25.36,33.2,25.37,33.16,25.39 M33.16,25.39c0.57-0.25,1.16-0.46,1.77-0.62
				c4.91-1.23,10.13,1.31,12.2,5.91c1.74,3.85,0.95,8.48-1.94,11.55c-2.67,2.84-6.8,3.99-10.55,2.93c-3.67-1.04-6.58-4.08-7.43-7.81
				c-1.1-4.8,1.41-9.85,5.87-11.92c-0.01,0,0,0,0.04-0.02C33.12,25.4,33.14,25.39,33.16,25.39L33.16,25.39 M25.9,28.03
				c-2.94,4.86-2.46,11.2,1.16,15.57c3.61,4.36,9.72,6.06,15.06,4.12c5.29-1.92,8.92-7.09,8.92-12.72c0-0.7-0.05-1.41-0.16-2.1
				C50,27.4,45.68,22.87,40.22,21.75c-0.89-0.18-1.78-0.27-2.66-0.27C32.88,21.48,28.37,23.95,25.9,28.03"/>
		</defs>
		<clipPath id="SVGID_8_">
			<use xlink:href="#SVGID_7_"  style="overflow:visible;"/>
		</clipPath>
		
			<linearGradient id="SVGID_9_" gradientUnits="userSpaceOnUse" x1="220.6074" y1="397.2816" x2="221.0312" y2="397.2816" gradientTransform="matrix(-63.8283 0 0 -63.8283 14132.0293 25393.3867)">
			<stop  offset="0" style="stop-color:#D53E4F"/>
			<stop  offset="1" style="stop-color:#7F2424"/>
		</linearGradient>
		<rect x="22.96" y="21.48" class="st2" width="28.07" height="28.18"/>
	</g>
	<g>
		<defs>
			<path id="SVGID_10_" d="M25.44,39.46L25.44,39.46L25.44,39.46 M25.34,39.17c0.03,0.08,0.06,0.16,0.08,0.21
				C25.13,38.6,25.23,38.88,25.34,39.17 M25.43,39.43c-0.26-0.72-0.46-1.46-0.59-2.21c-1.05-6.03,2.45-12.11,8.17-14.26
				c4.78-1.79,10.28-0.51,13.79,3.17c3.29,3.44,4.42,8.55,2.87,13.05c-1.51,4.4-5.41,7.75-10,8.53
				C33.62,48.74,27.54,45.18,25.43,39.43L25.43,39.43 M23.36,20.86c-1.06,1.06-2.01,2.24-2.81,3.52c-1.67,2.66-2.7,5.71-2.97,8.84
				c-0.26,2.97,0.19,5.99,0.96,8.86c1.42,5.28,3.95,10.24,6.81,14.88c2.36,3.83,5.01,7.49,7.85,10.98c0.76,0.93,1.52,1.84,2.32,2.74
				c0.13,0.15,0.26,0.3,0.4,0.44c0.27,0.29,0.59,0.59,0.96,0.73c0.16,0.06,0.37,0.15,0.53,0.14c0.12,0,0.3-0.09,0.41-0.13
				c0.71-0.24,1.33-1.11,1.82-1.67c0.95-1.07,1.86-2.17,2.76-3.28c2.96-3.66,5.7-7.51,8.11-11.56c2.77-4.65,5.19-9.64,6.35-14.95
				c0.61-2.82,0.86-5.73,0.4-8.59c-0.42-2.62-1.37-5.15-2.78-7.41c-2.78-4.44-7.28-7.68-12.38-8.88c-1.49-0.35-3-0.52-4.51-0.52
				C32.32,15.01,27.14,17.08,23.36,20.86"/>
		</defs>
		<clipPath id="SVGID_11_">
			<use xlink:href="#SVGID_10_"  style="overflow:visible;"/>
		</clipPath>
		
			<linearGradient id="SVGID_12_" gradientUnits="userSpaceOnUse" x1="216.944" y1="400.5553" x2="217.3678" y2="400.5553" gradientTransform="matrix(-94.3704 0 0 -94.3704 20530.5957 37844.0742)">
			<stop  offset="0" style="stop-color:#7F2424"/>
			<stop  offset="1" style="stop-color:#D53E4F"/>
		</linearGradient>
		<rect x="17.31" y="15.01" class="st3" width="40.41" height="57"/>
	</g>
	<g>
		<defs>
			<path id="SVGID_13_" d="M25.16,19.27c-3.01,2.37-5.32,5.59-6.57,9.21c-0.72,2.1-1.09,4.31-1.09,6.52c0,5.1,1.76,10.16,3.9,14.72
				c2.04,4.35,4.58,8.46,7.35,12.38c1.9,2.69,3.92,5.29,6.07,7.79c0.36,0.42,0.71,0.83,1.09,1.24c0.26,0.28,0.57,0.57,0.93,0.72
				c0.12,0.05,0.56,0.25,0.66,0.11c0.05-0.07,0-0.39,0-0.48v-7.38v-10.4v-3.93v-1.24c0-0.12,0.07-0.5,0-0.6
				c-0.06-0.09-0.44-0.08-0.73-0.08c-0.12,0-0.23,0-0.28,0c-0.78-0.06-1.57-0.2-2.33-0.4c-1.51-0.41-2.94-1.1-4.2-2.02
				c-2.57-1.88-4.4-4.69-5.05-7.81c-0.67-3.22-0.06-6.62,1.68-9.41c1.51-2.41,3.81-4.29,6.47-5.27c0.73-0.27,1.48-0.47,2.25-0.6
				c0.35-0.06,0.71-0.11,1.07-0.14c0.2-0.02,0.4-0.03,0.6-0.04c0.02,0,0.07,0,0.14,0.01c0.15,0.01,0.36,0.01,0.39-0.02
				c0.04-0.04,0-0.28,0-0.34v-0.83v-4.91V15C33.05,15,28.66,16.51,25.16,19.27"/>
		</defs>
		<clipPath id="SVGID_14_">
			<use xlink:href="#SVGID_13_"  style="overflow:visible;"/>
		</clipPath>
		
			<linearGradient id="SVGID_15_" gradientUnits="userSpaceOnUse" x1="204.7664" y1="401.7295" x2="205.1902" y2="401.7295" gradientTransform="matrix(0 -134.5037 134.5037 0 -54006.582 27613.8477)">
			<stop  offset="0" style="stop-color:#7F2424"/>
			<stop  offset="1" style="stop-color:#D53E4F"/>
		</linearGradient>
		<rect x="17.5" y="15" class="st4" width="20.08" height="57.1"/>
	</g>
	<g>
		<defs>
			<path id="SVGID_16_" d="M33.16,25.39c-0.02,0.01-0.04,0.02-0.06,0.03c-0.01,0.01-0.03,0.01-0.04,0.02c0.01,0,0.04-0.02,0.08-0.03
				c0.04-0.02,0.08-0.04,0.08-0.04C33.21,25.36,33.2,25.37,33.16,25.39 M33.16,25.39c0.57-0.25,1.16-0.46,1.77-0.62
				c4.91-1.23,10.13,1.31,12.2,5.91c1.74,3.85,0.95,8.48-1.94,11.55c-2.67,2.84-6.8,3.99-10.55,2.93c-3.67-1.04-6.58-4.08-7.43-7.81
				c-1.1-4.8,1.41-9.85,5.87-11.92c-0.01,0,0,0,0.04-0.02C33.12,25.4,33.14,25.39,33.16,25.39L33.16,25.39 M25.9,28.03
				c-2.94,4.86-2.46,11.2,1.16,15.57c3.61,4.36,9.72,6.06,15.06,4.12c5.29-1.92,8.92-7.09,8.92-12.72c0-0.7-0.05-1.41-0.16-2.1
				C50,27.4,45.68,22.87,40.22,21.75c-0.89-0.18-1.78-0.27-2.66-0.27C32.88,21.48,28.37,23.95,25.9,28.03"/>
		</defs>
		<clipPath id="SVGID_17_">
			<use xlink:href="#SVGID_16_"  style="overflow:visible;"/>
		</clipPath>
		
			<linearGradient id="SVGID_18_" gradientUnits="userSpaceOnUse" x1="220.6074" y1="397.2816" x2="221.0312" y2="397.2816" gradientTransform="matrix(-63.8283 0 0 -63.8283 14132.0293 25393.3867)">
			<stop  offset="0" style="stop-color:#D53E4F"/>
			<stop  offset="1" style="stop-color:#7F2424"/>
		</linearGradient>
		<rect x="22.96" y="21.48" class="st5" width="28.07" height="28.18"/>
	</g>
	<g>
		<defs>
			<path id="SVGID_19_" d="M25.44,39.46L25.44,39.46L25.44,39.46 M25.34,39.17c0.03,0.08,0.06,0.16,0.08,0.21
				C25.13,38.6,25.23,38.88,25.34,39.17 M25.43,39.43c-0.26-0.72-0.46-1.46-0.59-2.21c-1.05-6.03,2.45-12.11,8.17-14.26
				c4.78-1.79,10.28-0.51,13.79,3.17c3.29,3.44,4.42,8.55,2.87,13.05c-1.51,4.4-5.41,7.75-10,8.53
				C33.62,48.74,27.54,45.18,25.43,39.43L25.43,39.43 M23.36,20.86c-1.06,1.06-2.01,2.24-2.81,3.52c-1.67,2.66-2.7,5.71-2.97,8.84
				c-0.26,2.97,0.19,5.99,0.96,8.86c1.42,5.28,3.95,10.24,6.81,14.88c2.36,3.83,5.01,7.49,7.85,10.98c0.76,0.93,1.52,1.84,2.32,2.74
				c0.13,0.15,0.26,0.3,0.4,0.44c0.27,0.29,0.59,0.59,0.96,0.73c0.16,0.06,0.37,0.15,0.53,0.14c0.12,0,0.3-0.09,0.41-0.13
				c0.71-0.24,1.33-1.11,1.82-1.67c0.95-1.07,1.86-2.17,2.76-3.28c2.96-3.66,5.7-7.51,8.11-11.56c2.77-4.65,5.19-9.64,6.35-14.95
				c0.61-2.82,0.86-5.73,0.4-8.59c-0.42-2.62-1.37-5.15-2.78-7.41c-2.78-4.44-7.28-7.68-12.38-8.88c-1.49-0.35-3-0.52-4.51-0.52
				C32.32,15.01,27.14,17.08,23.36,20.86"/>
		</defs>
		<clipPath id="SVGID_20_">
			<use xlink:href="#SVGID_19_"  style="overflow:visible;"/>
		</clipPath>
		
			<linearGradient id="SVGID_21_" gradientUnits="userSpaceOnUse" x1="216.944" y1="400.5553" x2="217.3678" y2="400.5553" gradientTransform="matrix(-94.3704 0 0 -94.3704 20530.5957 37844.0742)">
			<stop  offset="0" style="stop-color:#1D1D1B"/>
			<stop  offset="1" style="stop-color:#646363"/>
		</linearGradient>
		<rect x="17.31" y="15.01" class="st6" width="40.41" height="57"/>
	</g>
	<g>
		<defs>
			<path id="SVGID_22_" d="M25.16,19.27c-3.01,2.37-5.32,5.59-6.57,9.21c-0.72,2.1-1.09,4.31-1.09,6.52c0,5.1,1.76,10.16,3.9,14.72
				c2.04,4.35,4.58,8.46,7.35,12.38c1.9,2.69,3.92,5.29,6.07,7.79c0.36,0.42,0.71,0.83,1.09,1.24c0.26,0.28,0.57,0.57,0.93,0.72
				c0.12,0.05,0.56,0.25,0.66,0.11c0.05-0.07,0-0.39,0-0.48v-7.38v-10.4v-3.93v-1.24c0-0.12,0.07-0.5,0-0.6
				c-0.06-0.09-0.44-0.08-0.73-0.08c-0.12,0-0.23,0-0.28,0c-0.78-0.06-1.57-0.2-2.33-0.4c-1.51-0.41-2.94-1.1-4.2-2.02
				c-2.57-1.88-4.4-4.69-5.05-7.81c-0.67-3.22-0.06-6.62,1.68-9.41c1.51-2.41,3.81-4.29,6.47-5.27c0.73-0.27,1.48-0.47,2.25-0.6
				c0.35-0.06,0.71-0.11,1.07-0.14c0.2-0.02,0.4-0.03,0.6-0.04c0.02,0,0.07,0,0.14,0.01c0.15,0.01,0.36,0.01,0.39-0.02
				c0.04-0.04,0-0.28,0-0.34v-0.83v-4.91V15C33.05,15,28.66,16.51,25.16,19.27"/>
		</defs>
		<clipPath id="SVGID_23_">
			<use xlink:href="#SVGID_22_"  style="overflow:visible;"/>
		</clipPath>
		
			<linearGradient id="SVGID_24_" gradientUnits="userSpaceOnUse" x1="204.7664" y1="401.7295" x2="205.1902" y2="401.7295" gradientTransform="matrix(0 -134.5037 134.5037 0 -54006.582 27613.8477)">
			<stop  offset="0" style="stop-color:#1D1D1B"/>
			<stop  offset="1" style="stop-color:#646363"/>
		</linearGradient>
		<rect x="17.5" y="15" class="st7" width="20.08" height="57.1"/>
	</g>
	<g>
		<defs>
			<path id="SVGID_25_" d="M23.63,26.67c-3.51,5.8-2.94,13.39,1.38,18.61c4.31,5.21,11.62,7.24,18,4.93
				c6.32-2.3,10.67-8.47,10.67-15.21c0-0.84-0.06-1.68-0.19-2.51c-1.03-6.57-6.2-11.99-12.72-13.33c-1.06-0.22-2.12-0.32-3.18-0.32
				C31.98,18.84,26.58,21.79,23.63,26.67"/>
		</defs>
		<clipPath id="SVGID_26_">
			<use xlink:href="#SVGID_25_"  style="overflow:visible;"/>
		</clipPath>
		
			<linearGradient id="SVGID_27_" gradientUnits="userSpaceOnUse" x1="218.7573" y1="398.8685" x2="219.1812" y2="398.8685" gradientTransform="matrix(-76.2989 0 0 -76.2989 16744.6133 30468.9082)">
			<stop  offset="0" style="stop-color:#666665"/>
			<stop  offset="1" style="stop-color:#1D1D1B"/>
		</linearGradient>
		<rect x="20.11" y="18.84" class="st8" width="33.56" height="33.68"/>
	</g>
	<path class="st9" d="M37.91,30.21c1.55,0,2.96,0.63,3.97,1.65c1.02,1.02,1.65,2.42,1.65,3.97c0,1.55-0.63,2.96-1.65,3.97
		c-1.02,1.02-2.42,1.65-3.97,1.65c-1.55,0-2.96-0.63-3.97-1.65c-1.02-1.02-1.65-2.42-1.65-3.97c0-1.55,0.63-2.96,1.65-3.97
		C34.96,30.84,36.36,30.21,37.91,30.21 M41.65,32.09c-0.96-0.96-2.28-1.55-3.73-1.55c-1.46,0-2.78,0.59-3.73,1.55
		c-0.96,0.95-1.55,2.28-1.55,3.73c0,1.46,0.59,2.78,1.55,3.73c0.96,0.96,2.28,1.55,3.73,1.55c1.46,0,2.78-0.59,3.73-1.55
		c0.96-0.96,1.55-2.28,1.55-3.73C43.19,34.37,42.6,33.05,41.65,32.09"/>
	<path class="st9" d="M38.96,30.35c1.55,0,2.96,0.63,3.97,1.65c1.02,1.02,1.65,2.42,1.65,3.97c0,1.55-0.63,2.96-1.65,3.97
		c-1.02,1.02-2.42,1.65-3.97,1.65c-1.55,0-2.96-0.63-3.97-1.65c-1.02-1.02-1.65-2.42-1.65-3.97c0-1.55,0.63-2.96,1.65-3.97
		C36,30.98,37.41,30.35,38.96,30.35 M42.69,32.24c-0.96-0.96-2.28-1.55-3.73-1.55c-1.46,0-2.78,0.59-3.73,1.55
		c-0.96,0.96-1.55,2.28-1.55,3.73c0,1.46,0.59,2.78,1.55,3.73c0.96,0.96,2.28,1.55,3.73,1.55c1.46,0,2.78-0.59,3.73-1.55
		c0.95-0.95,1.55-2.28,1.55-3.73C44.24,34.51,43.65,33.19,42.69,32.24"/>
	<path class="st9" d="M39.3,29.45c2.2,0,4.19,0.89,5.64,2.34c1.44,1.44,2.34,3.44,2.34,5.64c0,2.2-0.89,4.19-2.34,5.64
		c-1.44,1.44-3.44,2.34-5.64,2.34c-2.2,0-4.19-0.89-5.64-2.34c-1.44-1.44-2.34-3.44-2.34-5.64c0-2.2,0.89-4.19,2.34-5.64
		C35.11,30.34,37.1,29.45,39.3,29.45 M44.7,32.03c-1.38-1.38-3.29-2.24-5.39-2.24c-2.11,0-4.01,0.85-5.4,2.24
		c-1.38,1.38-2.23,3.29-2.23,5.4c0,2.11,0.85,4.02,2.23,5.4c1.38,1.38,3.29,2.24,5.4,2.24c2.11,0,4.01-0.85,5.39-2.24
		c1.38-1.38,2.24-3.29,2.24-5.4C46.93,35.31,46.08,33.41,44.7,32.03"/>
	<path class="st9" d="M40.2,28.15c2.65,0,5.04,1.07,6.78,2.81c1.73,1.74,2.81,4.13,2.81,6.78c0,2.65-1.07,5.04-2.81,6.78
		c-1.73,1.73-4.13,2.81-6.78,2.81c-2.65,0-5.04-1.07-6.78-2.81c-1.74-1.74-2.81-4.13-2.81-6.78s1.07-5.04,2.81-6.78
		C35.16,29.22,37.55,28.15,40.2,28.15 M46.74,31.2c-1.67-1.67-3.98-2.71-6.54-2.71c-2.55,0-4.86,1.04-6.54,2.71
		c-1.67,1.67-2.71,3.98-2.71,6.54c0,2.55,1.03,4.86,2.71,6.54c1.67,1.67,3.98,2.71,6.54,2.71c2.55,0,4.86-1.04,6.54-2.71
		c1.67-1.67,2.71-3.98,2.71-6.54C49.44,35.18,48.41,32.87,46.74,31.2"/>
	<path class="st9" d="M39.16,28.24c2.68,0,5.11,1.09,6.86,2.84c1.76,1.76,2.84,4.18,2.84,6.86c0,2.68-1.09,5.11-2.84,6.86
		c-1.76,1.76-4.18,2.84-6.86,2.84c-2.68,0-5.11-1.09-6.86-2.84c-1.76-1.76-2.84-4.18-2.84-6.86c0-2.68,1.09-5.11,2.84-6.86
		C34.05,29.33,36.48,28.24,39.16,28.24 M45.78,31.33c-1.69-1.69-4.04-2.74-6.62-2.74c-2.59,0-4.93,1.05-6.62,2.74
		c-1.69,1.69-2.74,4.04-2.74,6.62c0,2.58,1.05,4.93,2.74,6.62c1.69,1.69,4.04,2.74,6.62,2.74c2.58,0,4.93-1.05,6.62-2.74
		c1.69-1.69,2.74-4.04,2.74-6.62C48.52,35.36,47.47,33.02,45.78,31.33"/>
	<path class="st9" d="M39.64,28.82c2.16,0,4.11,0.87,5.53,2.29c1.41,1.41,2.29,3.37,2.29,5.53c0,2.16-0.88,4.11-2.29,5.53
		c-1.42,1.41-3.37,2.29-5.53,2.29c-2.16,0-4.11-0.88-5.53-2.29c-1.41-1.41-2.29-3.37-2.29-5.53c0-2.16,0.88-4.11,2.29-5.53
		C35.53,29.7,37.48,28.82,39.64,28.82 M44.93,31.35c-1.35-1.35-3.22-2.19-5.29-2.19c-2.06,0-3.93,0.84-5.29,2.19
		c-1.35,1.35-2.19,3.22-2.19,5.29c0,2.06,0.84,3.93,2.19,5.29c1.35,1.35,3.22,2.19,5.29,2.19c2.06,0,3.93-0.84,5.29-2.19
		c1.35-1.35,2.19-3.22,2.19-5.29C47.12,34.58,46.28,32.71,44.93,31.35"/>
	<path class="st9" d="M39.1,27.54c2.3,0,4.38,0.93,5.89,2.44c1.51,1.51,2.44,3.59,2.44,5.89c0,2.3-0.93,4.38-2.44,5.89
		c-1.51,1.51-3.59,2.44-5.89,2.44c-2.3,0-4.38-0.93-5.89-2.44c-1.51-1.51-2.44-3.59-2.44-5.89c0-2.3,0.93-4.38,2.44-5.89
		C34.72,28.47,36.81,27.54,39.1,27.54 M44.75,30.22c-1.45-1.44-3.44-2.34-5.65-2.34c-2.2,0-4.2,0.89-5.65,2.34
		c-1.45,1.45-2.34,3.44-2.34,5.65c0,2.2,0.89,4.2,2.34,5.65c1.45,1.45,3.44,2.34,5.65,2.34c2.21,0,4.2-0.89,5.65-2.34
		c1.44-1.45,2.34-3.44,2.34-5.65C47.09,33.66,46.2,31.67,44.75,30.22"/>
	<path class="st9" d="M39.19,29.34c2.47,0,4.7,1,6.32,2.62c1.62,1.62,2.62,3.85,2.62,6.32c0,2.47-1,4.7-2.62,6.32
		c-1.62,1.62-3.85,2.62-6.32,2.62c-2.47,0-4.7-1-6.32-2.62c-1.62-1.62-2.62-3.85-2.62-6.32c0-2.47,1-4.7,2.62-6.32
		C34.49,30.34,36.72,29.34,39.19,29.34 M45.27,32.2c-1.56-1.56-3.7-2.52-6.08-2.52c-2.37,0-4.52,0.96-6.08,2.52
		c-1.56,1.56-2.52,3.7-2.52,6.08c0,2.37,0.96,4.52,2.52,6.08c1.56,1.56,3.7,2.52,6.08,2.52c2.37,0,4.52-0.96,6.08-2.52
		c1.56-1.56,2.52-3.7,2.52-6.08C47.78,35.9,46.82,33.75,45.27,32.2"/>
</g>
</svg>
