<?xml version="1.0" encoding="utf-8"?>
<!-- Generator: Adobe Illustrator 23.1.0, SVG Export Plug-In . SVG Version: 6.00 Build 0)  -->
<svg version="1.1" id="Layer_1" xmlns="http://www.w3.org/2000/svg" xmlns:xlink="http://www.w3.org/1999/xlink" x="0px" y="0px"
	 viewBox="0 0 190 252" style="enable-background:new 0 0 190 252;" xml:space="preserve">
<style type="text/css">
	.st0{fill:#DFC17B;}
	.st1{fill:#9D927B;}
	.st2{fill:none;stroke:#FFFFFF;stroke-width:0.576;stroke-linecap:round;stroke-linejoin:round;stroke-miterlimit:10;}
	.st3{fill:#FFFFFF;}
</style>
<g>
	<path class="st0" d="M19.43,240.03h-3.08l-0.71,1.82c-0.12,0.35-0.18,0.57-0.18,0.67c0,0.16,0.07,0.27,0.23,0.33
		c0.15,0.06,0.42,0.1,0.81,0.12l-0.03,0.33c-0.23,0-0.48,0-0.77-0.01c-0.28-0.01-0.57-0.01-0.84-0.01c-0.23,0-0.46,0-0.71,0.01
		c-0.24,0.01-0.48,0.01-0.71,0.01l-0.02-0.31c0.24-0.02,0.44-0.05,0.59-0.09c0.15-0.04,0.29-0.11,0.4-0.22
		c0.11-0.11,0.22-0.26,0.32-0.44c0.1-0.19,0.22-0.44,0.36-0.75l2.56-6.26c0.07-0.19,0.15-0.35,0.24-0.49
		c0.08-0.14,0.16-0.29,0.22-0.45l0.58-0.07c0.07,0.29,0.14,0.57,0.22,0.81s0.15,0.47,0.22,0.67l2.08,6.03
		c0.09,0.27,0.17,0.48,0.25,0.64c0.07,0.15,0.16,0.27,0.26,0.36c0.1,0.08,0.22,0.14,0.37,0.17c0.15,0.03,0.35,0.05,0.59,0.07
		l-0.03,0.33c-0.26,0-0.54,0-0.85-0.01c-0.31-0.01-0.62-0.01-0.94-0.01c-0.26,0-0.52,0-0.79,0.01c-0.27,0.01-0.53,0.01-0.79,0.01
		l-0.03-0.31c0.35-0.02,0.59-0.07,0.74-0.12c0.15-0.06,0.22-0.17,0.22-0.33c0-0.07-0.01-0.15-0.04-0.23
		c-0.02-0.09-0.05-0.19-0.09-0.3L19.43,240.03z M16.56,239.5h2.69l-1.21-3.66h-0.03L16.56,239.5z"/>
	<path class="st0" d="M30,242.14c0,0.15,0.01,0.27,0.03,0.37c0.02,0.1,0.08,0.19,0.17,0.25c0.09,0.07,0.23,0.12,0.42,0.15
		c0.19,0.03,0.45,0.05,0.79,0.06l-0.02,0.33c-0.33,0-0.68,0-1.05-0.01c-0.36-0.01-0.69-0.01-0.99-0.01c-0.12,0-0.25,0-0.39,0
		c-0.14,0-0.28,0-0.43,0c-0.14,0-0.27,0-0.39,0c-0.12,0-0.23,0-0.31,0L27.82,243c0.24-0.02,0.43-0.05,0.58-0.09
		c0.14-0.04,0.26-0.1,0.34-0.18c0.08-0.08,0.13-0.2,0.16-0.34c0.03-0.14,0.04-0.33,0.04-0.57v-6.22c0-0.15-0.01-0.27-0.04-0.37
		c-0.02-0.1-0.08-0.18-0.15-0.25c-0.08-0.06-0.19-0.11-0.35-0.14c-0.15-0.03-0.36-0.05-0.62-0.06l0.02-0.33c0.1,0,0.21,0,0.35,0
		c0.13,0,0.28,0,0.43,0c0.15,0,0.31,0,0.47,0c0.16,0,0.31,0,0.46,0c0.22,0,0.47-0.02,0.76-0.05c0.28-0.03,0.56-0.05,0.84-0.05
		c0.44,0,0.86,0.04,1.25,0.13c0.4,0.09,0.74,0.23,1.04,0.43c0.3,0.2,0.54,0.46,0.72,0.78c0.18,0.32,0.27,0.72,0.27,1.19
		c0,0.48-0.1,0.89-0.29,1.24c-0.19,0.35-0.44,0.64-0.75,0.88c-0.31,0.23-0.65,0.41-1.03,0.53c-0.38,0.12-0.77,0.18-1.16,0.18
		c-0.23,0-0.46-0.02-0.67-0.05c-0.21-0.03-0.38-0.07-0.49-0.12V242.14z M30,239.08c0.14,0.04,0.29,0.08,0.45,0.1
		c0.16,0.02,0.34,0.03,0.54,0.03c0.24,0,0.49-0.04,0.74-0.11c0.25-0.07,0.48-0.2,0.69-0.38c0.21-0.18,0.38-0.41,0.51-0.7
		c0.13-0.29,0.2-0.65,0.2-1.09c0-0.71-0.19-1.23-0.58-1.57c-0.39-0.34-0.92-0.51-1.61-0.51c-0.21,0-0.38,0.01-0.51,0.04
		c-0.12,0.02-0.22,0.06-0.28,0.11c-0.06,0.05-0.11,0.12-0.13,0.21c-0.02,0.09-0.03,0.19-0.03,0.32V239.08z"/>
	<path class="st0" d="M45,240.03h-3.08l-0.71,1.82c-0.12,0.35-0.18,0.57-0.18,0.67c0,0.16,0.07,0.27,0.23,0.33
		c0.15,0.06,0.42,0.1,0.81,0.12l-0.03,0.33c-0.23,0-0.48,0-0.77-0.01c-0.28-0.01-0.56-0.01-0.84-0.01c-0.23,0-0.46,0-0.71,0.01
		c-0.24,0.01-0.48,0.01-0.71,0.01L39,242.99c0.24-0.02,0.44-0.05,0.59-0.09c0.15-0.04,0.29-0.11,0.4-0.22
		c0.11-0.11,0.22-0.26,0.32-0.44c0.1-0.19,0.22-0.44,0.35-0.75l2.56-6.26c0.07-0.19,0.15-0.35,0.24-0.49
		c0.08-0.14,0.15-0.29,0.22-0.45l0.58-0.07c0.07,0.29,0.14,0.57,0.22,0.81c0.08,0.25,0.15,0.47,0.22,0.67l2.08,6.03
		c0.09,0.27,0.17,0.48,0.25,0.64c0.07,0.15,0.16,0.27,0.26,0.36c0.1,0.08,0.22,0.14,0.37,0.17c0.15,0.03,0.35,0.05,0.59,0.07
		l-0.03,0.33c-0.26,0-0.54,0-0.85-0.01c-0.31-0.01-0.62-0.01-0.94-0.01c-0.26,0-0.52,0-0.78,0.01c-0.27,0.01-0.53,0.01-0.79,0.01
		l-0.03-0.31c0.35-0.02,0.59-0.07,0.74-0.12c0.15-0.06,0.22-0.17,0.22-0.33c0-0.07-0.01-0.15-0.04-0.23
		c-0.02-0.09-0.05-0.19-0.09-0.3L45,240.03z M42.14,239.5h2.69l-1.21-3.66h-0.03L42.14,239.5z"/>
	<path class="st0" d="M55.58,242.14c0,0.15,0.01,0.27,0.02,0.37c0.01,0.1,0.05,0.19,0.13,0.25c0.07,0.07,0.19,0.12,0.35,0.15
		c0.16,0.03,0.38,0.05,0.67,0.06v0.33c-0.3,0-0.6,0-0.91-0.01c-0.31,0-0.61-0.01-0.91-0.01c-0.12,0-0.25,0-0.39,0
		c-0.14,0-0.28,0-0.42,0c-0.14,0-0.27,0-0.39,0c-0.12,0-0.23,0-0.31,0L53.4,243c0.24-0.02,0.43-0.05,0.58-0.09
		c0.14-0.04,0.26-0.1,0.34-0.19c0.08-0.08,0.13-0.2,0.16-0.34c0.03-0.15,0.04-0.33,0.04-0.57v-6.22c0-0.15-0.01-0.27-0.04-0.37
		c-0.02-0.1-0.08-0.18-0.15-0.25c-0.08-0.06-0.19-0.11-0.35-0.14c-0.15-0.03-0.36-0.05-0.62-0.06l0.02-0.33c0.1,0,0.21,0,0.35,0
		c0.13,0,0.28,0,0.43,0c0.15,0,0.31,0,0.47,0c0.16,0,0.31,0,0.46,0c0.25,0,0.49-0.02,0.74-0.05c0.25-0.03,0.5-0.05,0.76-0.05
		c0.37,0,0.74,0.03,1.11,0.09c0.37,0.06,0.7,0.17,1,0.33c0.3,0.16,0.54,0.38,0.72,0.65c0.18,0.27,0.28,0.62,0.28,1.05
		c0,0.28-0.04,0.55-0.13,0.81c-0.09,0.25-0.22,0.48-0.38,0.69c-0.16,0.21-0.35,0.39-0.57,0.54c-0.22,0.16-0.46,0.29-0.73,0.38
		c0.2,0.38,0.39,0.74,0.58,1.08c0.19,0.35,0.37,0.66,0.53,0.95c0.16,0.29,0.31,0.54,0.44,0.75c0.13,0.22,0.24,0.39,0.33,0.51
		c0.12,0.16,0.22,0.29,0.3,0.38c0.09,0.1,0.18,0.17,0.28,0.22c0.1,0.05,0.22,0.09,0.36,0.11c0.14,0.02,0.31,0.05,0.53,0.06
		l-0.02,0.33c-0.18,0-0.43,0-0.73-0.01c-0.3,0-0.59-0.01-0.86-0.01c-0.09,0-0.18,0-0.28,0c-0.1,0-0.2,0.01-0.28,0.01
		c-0.06-0.13-0.16-0.32-0.29-0.57c-0.13-0.25-0.28-0.54-0.46-0.87c-0.18-0.33-0.38-0.69-0.59-1.08c-0.22-0.39-0.44-0.78-0.68-1.18
		c-0.04-0.06-0.07-0.12-0.1-0.17c-0.03-0.05-0.08-0.09-0.13-0.13c-0.05-0.03-0.12-0.06-0.21-0.08c-0.09-0.02-0.2-0.03-0.34-0.03
		h-0.28c-0.05,0-0.11,0-0.18,0c-0.07,0-0.15-0.01-0.25-0.01V242.14z M55.58,238.76c0.05,0.01,0.1,0.01,0.15,0.01
		c0.05,0,0.1,0,0.15,0h0.3c0.73,0,1.29-0.17,1.69-0.5c0.4-0.33,0.6-0.87,0.6-1.62c0-0.63-0.19-1.09-0.57-1.38
		c-0.38-0.29-0.88-0.43-1.51-0.43c-0.19,0-0.34,0.02-0.45,0.05c-0.11,0.03-0.19,0.08-0.24,0.15c-0.05,0.07-0.08,0.15-0.09,0.25
		c-0.01,0.1-0.02,0.21-0.02,0.33V238.76z"/>
	<path class="st0" d="M69.82,234.46c0.21,0,0.48,0,0.8,0c0.33,0,0.66,0,0.99,0c0.34,0,0.69,0,1.05,0s0.73,0,1.1,0
		c-0.02,0.22-0.04,0.42-0.05,0.6c-0.02,0.18-0.03,0.36-0.04,0.54c-0.01,0.17-0.01,0.35-0.02,0.53c0,0.18,0,0.37,0,0.58l-0.35,0.02
		c-0.05-0.33-0.12-0.61-0.18-0.84c-0.07-0.23-0.16-0.42-0.28-0.56c-0.12-0.15-0.29-0.25-0.5-0.31c-0.21-0.06-0.49-0.09-0.83-0.09
		h-1.05v7.26c0,0.15,0.01,0.27,0.04,0.37c0.02,0.1,0.08,0.18,0.17,0.25c0.09,0.06,0.22,0.11,0.39,0.14
		c0.18,0.03,0.41,0.05,0.72,0.07l-0.02,0.33c-0.13,0-0.28,0-0.44-0.01c-0.16,0-0.33,0-0.5,0c-0.17,0-0.34,0-0.51,0
		c-0.17,0-0.33,0-0.48,0c-0.12,0-0.26,0-0.4,0c-0.15,0-0.29,0-0.44,0c-0.15,0-0.3,0-0.44,0c-0.15,0-0.28,0.01-0.4,0.01L68.11,243
		c0.28-0.02,0.51-0.05,0.68-0.08c0.17-0.04,0.3-0.1,0.39-0.18c0.09-0.09,0.14-0.2,0.17-0.35c0.03-0.15,0.04-0.33,0.04-0.57v-6.91
		h-1.03c-0.34,0-0.62,0.03-0.84,0.09c-0.21,0.06-0.38,0.17-0.51,0.31c-0.13,0.14-0.23,0.33-0.3,0.56s-0.13,0.51-0.18,0.84
		l-0.35-0.02v-0.58c0-0.28-0.01-0.54-0.01-0.79c-0.01-0.25-0.03-0.54-0.06-0.87c0.37,0,0.73,0,1.09,0c0.36,0,0.7,0,1.04,0
		s0.63,0,0.88,0C69.37,234.46,69.6,234.46,69.82,234.46"/>
	<path class="st0" d="M84.33,240.03h-3.08l-0.71,1.82c-0.12,0.35-0.18,0.57-0.18,0.67c0,0.16,0.07,0.27,0.23,0.33
		c0.15,0.06,0.42,0.1,0.81,0.12l-0.03,0.33c-0.23,0-0.48,0-0.77-0.01c-0.28-0.01-0.56-0.01-0.84-0.01c-0.23,0-0.46,0-0.71,0.01
		c-0.24,0.01-0.48,0.01-0.71,0.01l-0.02-0.31c0.24-0.02,0.44-0.05,0.59-0.09s0.29-0.11,0.4-0.22c0.11-0.11,0.22-0.26,0.32-0.44
		s0.22-0.44,0.36-0.75l2.56-6.26c0.07-0.19,0.15-0.35,0.24-0.49c0.08-0.14,0.15-0.29,0.22-0.45l0.58-0.07
		c0.07,0.29,0.14,0.57,0.22,0.81c0.08,0.25,0.15,0.47,0.22,0.67l2.08,6.03c0.09,0.27,0.17,0.48,0.25,0.64
		c0.07,0.15,0.16,0.27,0.26,0.36c0.1,0.08,0.22,0.14,0.38,0.17c0.15,0.03,0.35,0.05,0.59,0.07l-0.03,0.33c-0.26,0-0.54,0-0.85-0.01
		c-0.31-0.01-0.62-0.01-0.94-0.01c-0.26,0-0.52,0-0.78,0.01c-0.27,0.01-0.53,0.01-0.79,0.01l-0.03-0.31
		c0.35-0.02,0.59-0.07,0.74-0.12c0.15-0.06,0.22-0.17,0.22-0.33c0-0.07-0.01-0.15-0.04-0.23c-0.02-0.09-0.05-0.19-0.09-0.3
		L84.33,240.03z M81.47,239.5h2.69l-1.21-3.66h-0.03L81.47,239.5z"/>
	<path class="st0" d="M92.44,234.44c0.07,0,0.2,0,0.38,0c0.18,0,0.38,0,0.6,0c0.22,0,0.45,0,0.67,0c0.23,0,0.43,0,0.59,0
		c0.11,0.27,0.22,0.53,0.34,0.79c0.11,0.26,0.23,0.52,0.35,0.79l2.62,5.82h0.03l2.56-5.94c0.1-0.24,0.21-0.48,0.31-0.73
		c0.1-0.24,0.2-0.49,0.3-0.73c0.12,0,0.28,0,0.5,0s0.44,0,0.67,0c0.23,0,0.45,0,0.66,0c0.2,0,0.35,0,0.43,0l0.02,0.31
		c-0.27,0.02-0.49,0.05-0.65,0.09c-0.16,0.04-0.29,0.1-0.37,0.19c-0.09,0.08-0.14,0.2-0.17,0.35s-0.03,0.34-0.03,0.56l0.19,6.22
		c0.01,0.15,0.02,0.27,0.06,0.37c0.03,0.1,0.09,0.18,0.18,0.25c0.09,0.06,0.22,0.11,0.38,0.14c0.16,0.03,0.38,0.05,0.65,0.06
		l-0.02,0.33c-0.11,0-0.24,0-0.39,0c-0.15,0-0.3,0-0.47,0c-0.16,0-0.32,0-0.49,0c-0.17,0-0.32,0-0.47,0c-0.12,0-0.25,0-0.38,0
		c-0.13,0-0.26,0-0.39,0c-0.13,0-0.25,0-0.37,0c-0.12,0-0.22,0-0.31,0L100.4,243c0.22-0.02,0.4-0.05,0.53-0.09s0.24-0.1,0.3-0.19
		c0.07-0.09,0.11-0.2,0.13-0.35c0.02-0.15,0.02-0.33,0.01-0.56l-0.17-5.87l-0.03-0.03c-0.54,1.25-1.08,2.49-1.6,3.72
		c-0.53,1.23-1.05,2.48-1.58,3.75l-0.44,0.06c-0.52-1.22-1.05-2.41-1.58-3.56c-0.53-1.15-1.06-2.33-1.6-3.53l-0.04,0.02l-0.18,5.32
		c-0.01,0.29-0.01,0.52,0.02,0.68c0.02,0.16,0.08,0.29,0.16,0.37c0.08,0.08,0.19,0.14,0.34,0.17c0.15,0.03,0.34,0.05,0.57,0.07
		l-0.02,0.33c-0.2,0-0.41,0-0.64-0.01c-0.23-0.01-0.49-0.01-0.78-0.01c-0.23,0-0.48,0-0.73,0.01c-0.26,0.01-0.49,0.01-0.71,0.01
		L92.34,243c0.25-0.02,0.46-0.05,0.62-0.09c0.16-0.03,0.29-0.1,0.38-0.21c0.09-0.1,0.16-0.26,0.19-0.47
		c0.04-0.21,0.06-0.5,0.07-0.87l0.19-4.78c0.01-0.22,0.01-0.41,0-0.57c-0.01-0.16-0.02-0.29-0.05-0.41
		c-0.02-0.11-0.06-0.21-0.1-0.29c-0.04-0.08-0.1-0.15-0.17-0.22c-0.12-0.12-0.26-0.2-0.44-0.24c-0.18-0.04-0.39-0.07-0.62-0.08
		L92.44,234.44z"/>
	<path class="st0" d="M111.28,241.81c0,0.21,0.01,0.38,0.04,0.52c0.03,0.14,0.08,0.24,0.17,0.32c0.08,0.08,0.2,0.13,0.35,0.16
		c0.15,0.03,0.35,0.05,0.6,0.05h0.67c0.36,0,0.65-0.03,0.87-0.09c0.23-0.06,0.41-0.16,0.57-0.3c0.16-0.14,0.29-0.32,0.41-0.55
		c0.12-0.23,0.25-0.51,0.39-0.84l0.36,0.08c-0.05,0.18-0.1,0.37-0.14,0.57c-0.04,0.2-0.08,0.4-0.12,0.6
		c-0.04,0.2-0.07,0.38-0.09,0.55c-0.03,0.17-0.04,0.31-0.05,0.43c-1.23,0-2.22,0-2.98-0.01c-0.76-0.01-1.33-0.01-1.7-0.01
		c-0.11,0-0.24,0-0.39,0c-0.15,0-0.31,0-0.47,0c-0.16,0-0.32,0-0.47,0.01c-0.15,0-0.28,0-0.38,0l-0.03-0.31
		c0.28-0.02,0.51-0.05,0.68-0.09c0.17-0.04,0.3-0.1,0.4-0.18c0.09-0.08,0.15-0.2,0.18-0.34s0.05-0.33,0.05-0.57v-6.22
		c0-0.15-0.01-0.27-0.04-0.37c-0.03-0.1-0.08-0.18-0.17-0.25c-0.08-0.06-0.2-0.11-0.36-0.14c-0.16-0.03-0.37-0.05-0.63-0.06
		l0.03-0.33c0.12,0,0.25,0,0.4,0c0.15,0,0.3,0,0.46,0c0.16,0,0.32,0,0.47,0c0.15,0,0.29,0,0.42,0c0.24,0,0.74,0,1.51-0.01
		c0.77-0.01,1.75-0.01,2.94-0.01c-0.04,0.31-0.07,0.64-0.08,0.99c-0.02,0.35-0.03,0.71-0.04,1.1l-0.37,0.01
		c-0.06-0.32-0.12-0.58-0.18-0.79c-0.07-0.21-0.16-0.38-0.29-0.5s-0.28-0.22-0.48-0.27c-0.2-0.05-0.45-0.08-0.77-0.08h-1.32
		c-0.18,0-0.3,0.02-0.36,0.06c-0.05,0.04-0.08,0.13-0.08,0.29v3.2l3.12-0.09l0.07,0.06l-0.02,0.77c-0.56-0.05-1.11-0.08-1.66-0.1
		c-0.55-0.02-1.05-0.03-1.51-0.05V241.81z"/>
	<path class="st0" d="M128.82,243.44c-0.16-0.23-0.32-0.45-0.48-0.66c-0.16-0.21-0.33-0.43-0.51-0.64l-4.95-5.87l-0.04,0.02v5.41
		c0,0.29,0.02,0.52,0.05,0.68c0.03,0.16,0.1,0.29,0.19,0.37c0.09,0.08,0.22,0.14,0.38,0.17c0.16,0.03,0.36,0.05,0.61,0.07
		l-0.02,0.33c-0.2,0-0.43,0-0.7-0.01c-0.27-0.01-0.55-0.01-0.85-0.01c-0.23,0-0.48,0-0.73,0.01c-0.26,0.01-0.49,0.01-0.71,0.01
		l-0.03-0.31c0.25-0.02,0.45-0.05,0.61-0.09c0.16-0.03,0.29-0.1,0.38-0.21c0.1-0.1,0.16-0.26,0.2-0.47c0.04-0.21,0.06-0.5,0.06-0.87
		v-4.63c0-0.26,0-0.47-0.01-0.63c-0.01-0.16-0.02-0.29-0.04-0.39c-0.02-0.1-0.05-0.19-0.09-0.25c-0.04-0.07-0.09-0.14-0.15-0.21
		c-0.06-0.08-0.12-0.15-0.18-0.2c-0.06-0.05-0.13-0.1-0.21-0.14c-0.08-0.04-0.18-0.06-0.3-0.08c-0.12-0.02-0.26-0.03-0.43-0.05
		l0.02-0.33c0.07,0,0.18,0,0.33,0c0.15,0,0.31,0,0.49,0c0.18,0,0.36,0,0.55,0c0.19,0,0.37,0,0.54,0l5.91,6.98l0.03-0.02v-5.35
		c0-0.29-0.02-0.52-0.05-0.68c-0.03-0.16-0.1-0.29-0.19-0.37c-0.09-0.08-0.22-0.14-0.38-0.17c-0.16-0.03-0.37-0.05-0.62-0.07
		l0.02-0.33c0.2,0,0.43,0,0.7,0.01c0.27,0.01,0.55,0.01,0.85,0.01c0.12,0,0.24,0,0.37,0c0.13,0,0.26-0.01,0.38-0.01
		c0.13,0,0.25-0.01,0.36-0.01c0.11,0,0.21,0,0.3,0l0.01,0.31c-0.24,0.02-0.44,0.06-0.59,0.09c-0.15,0.04-0.28,0.11-0.36,0.21
		c-0.09,0.1-0.15,0.26-0.19,0.47c-0.04,0.21-0.06,0.5-0.06,0.87v6.95L128.82,243.44z"/>
	<path class="st0" d="M139.38,234.46c0.21,0,0.48,0,0.8,0c0.33,0,0.66,0,0.99,0c0.34,0,0.69,0,1.05,0c0.36,0,0.73,0,1.1,0
		c-0.02,0.22-0.04,0.42-0.05,0.6c-0.02,0.18-0.03,0.36-0.04,0.54c-0.01,0.17-0.02,0.35-0.02,0.53c0,0.18-0.01,0.37-0.01,0.58
		l-0.35,0.02c-0.05-0.33-0.12-0.61-0.18-0.84c-0.07-0.23-0.16-0.42-0.28-0.56c-0.12-0.15-0.29-0.25-0.5-0.31
		c-0.21-0.06-0.49-0.09-0.83-0.09h-1.05v7.26c0,0.15,0.01,0.27,0.04,0.37c0.02,0.1,0.08,0.18,0.17,0.25
		c0.09,0.06,0.22,0.11,0.39,0.14c0.18,0.03,0.41,0.05,0.72,0.07l-0.02,0.33c-0.13,0-0.28,0-0.44-0.01c-0.16,0-0.33,0-0.5,0
		c-0.17,0-0.34,0-0.51,0c-0.17,0-0.33,0-0.48,0c-0.12,0-0.26,0-0.4,0c-0.15,0-0.29,0-0.44,0c-0.15,0-0.3,0-0.44,0
		c-0.15,0-0.28,0.01-0.4,0.01l-0.03-0.31c0.28-0.02,0.51-0.05,0.68-0.08c0.17-0.04,0.3-0.1,0.39-0.18c0.09-0.09,0.14-0.2,0.17-0.35
		c0.03-0.15,0.04-0.33,0.04-0.57v-6.91h-1.03c-0.35,0-0.62,0.03-0.84,0.09s-0.38,0.17-0.51,0.31c-0.13,0.14-0.23,0.33-0.3,0.56
		s-0.13,0.51-0.18,0.84l-0.35-0.02v-0.58c0-0.28,0-0.54-0.01-0.79c-0.01-0.25-0.03-0.54-0.06-0.87c0.37,0,0.73,0,1.09,0
		c0.36,0,0.7,0,1.03,0c0.33,0,0.63,0,0.88,0C138.93,234.46,139.17,234.46,139.38,234.46"/>
	<path class="st0" d="M153.37,234.26c0.67,0,1.29,0.11,1.85,0.32c0.57,0.21,1.05,0.52,1.45,0.91c0.4,0.39,0.71,0.87,0.94,1.43
		c0.22,0.56,0.34,1.18,0.34,1.87c0,0.68-0.11,1.31-0.33,1.89c-0.22,0.58-0.53,1.07-0.93,1.49c-0.4,0.42-0.88,0.75-1.44,0.98
		c-0.56,0.23-1.18,0.35-1.87,0.35c-0.67,0-1.29-0.11-1.85-0.32c-0.56-0.21-1.04-0.52-1.45-0.91s-0.72-0.87-0.94-1.43
		c-0.22-0.56-0.34-1.18-0.34-1.87c0-0.68,0.11-1.31,0.33-1.89c0.22-0.58,0.53-1.07,0.93-1.49c0.4-0.42,0.88-0.74,1.44-0.98
		C152.06,234.37,152.68,234.26,153.37,234.26 M153.31,234.76c-0.43,0-0.83,0.07-1.23,0.21c-0.39,0.14-0.74,0.36-1.04,0.67
		c-0.3,0.31-0.54,0.71-0.72,1.2c-0.18,0.49-0.27,1.09-0.27,1.79c0,0.83,0.1,1.52,0.31,2.08c0.2,0.56,0.46,1.01,0.78,1.35
		c0.32,0.34,0.68,0.59,1.08,0.73c0.4,0.15,0.79,0.22,1.19,0.22c0.42,0,0.83-0.07,1.22-0.21c0.39-0.14,0.74-0.36,1.04-0.67
		c0.3-0.31,0.54-0.71,0.72-1.2c0.18-0.49,0.27-1.09,0.27-1.79c0-0.83-0.1-1.52-0.3-2.08s-0.47-1.01-0.79-1.35
		c-0.32-0.34-0.68-0.59-1.08-0.73C154.1,234.83,153.7,234.76,153.31,234.76"/>
	<path class="st0" d="M163.95,240.74c0.12,0.32,0.25,0.62,0.39,0.89c0.14,0.27,0.3,0.51,0.5,0.71c0.19,0.2,0.42,0.36,0.68,0.47
		c0.26,0.11,0.57,0.17,0.93,0.17c0.24,0,0.46-0.04,0.67-0.12c0.2-0.08,0.38-0.19,0.54-0.34c0.15-0.15,0.27-0.32,0.36-0.52
		c0.09-0.2,0.13-0.42,0.13-0.66c0-0.3-0.05-0.56-0.17-0.78c-0.11-0.22-0.26-0.4-0.44-0.56c-0.18-0.16-0.4-0.29-0.63-0.41
		c-0.23-0.12-0.47-0.23-0.72-0.34c-0.28-0.12-0.56-0.26-0.84-0.41c-0.28-0.15-0.53-0.32-0.75-0.53c-0.22-0.2-0.4-0.44-0.54-0.7
		c-0.14-0.27-0.21-0.58-0.21-0.94c0-0.39,0.08-0.73,0.24-1.03c0.16-0.3,0.37-0.55,0.64-0.75c0.27-0.2,0.58-0.36,0.93-0.46
		c0.35-0.1,0.73-0.16,1.13-0.16c0.39,0,0.75,0.03,1.08,0.09c0.33,0.06,0.68,0.14,1.06,0.24c-0.02,0.2-0.03,0.38-0.05,0.55
		c-0.01,0.17-0.02,0.34-0.02,0.5c0,0.16-0.01,0.33-0.01,0.5c0,0.17,0,0.35,0,0.55l-0.39,0.04c-0.05-0.65-0.25-1.14-0.6-1.46
		c-0.34-0.32-0.8-0.48-1.38-0.48c-0.22,0-0.43,0.03-0.61,0.1c-0.18,0.07-0.34,0.17-0.48,0.3c-0.14,0.13-0.24,0.28-0.32,0.46
		c-0.08,0.18-0.12,0.38-0.12,0.6c0,0.3,0.05,0.54,0.14,0.74c0.1,0.2,0.23,0.38,0.39,0.52c0.17,0.15,0.36,0.28,0.58,0.38
		c0.22,0.11,0.45,0.21,0.69,0.32c0.3,0.13,0.59,0.27,0.89,0.43c0.3,0.15,0.57,0.34,0.8,0.55c0.24,0.21,0.43,0.45,0.58,0.73
		c0.15,0.28,0.22,0.6,0.22,0.98c0,0.42-0.09,0.79-0.26,1.11c-0.17,0.32-0.4,0.6-0.68,0.82s-0.61,0.4-0.98,0.51
		c-0.37,0.12-0.75,0.18-1.14,0.18c-0.34,0-0.69-0.04-1.05-0.1c-0.36-0.07-0.75-0.16-1.16-0.28c-0.04-0.41-0.1-0.79-0.16-1.15
		c-0.06-0.36-0.14-0.74-0.25-1.15L163.95,240.74z"/>
	<path class="st1" d="M24.47,166.33H11.82v-0.78h0.63c0.46,0,0.84-0.16,1.14-0.47c0.3-0.31,0.47-0.7,0.51-1.16v-16.44
		c-0.04-0.4-0.22-0.74-0.53-1.02c-0.31-0.28-0.68-0.42-1.1-0.42h-0.63v-0.78h8.85c0.3,0,0.64-0.02,1.01-0.06
		c0.37-0.04,0.73-0.09,1.08-0.15c0.35-0.06,0.68-0.13,0.98-0.21c0.3-0.08,0.53-0.16,0.69-0.24v4.34h-0.78v-0.78
		c0-0.4-0.14-0.74-0.41-1.02c-0.27-0.28-0.61-0.44-1.01-0.48h-5.72v8.58h4.7c0.34-0.02,0.63-0.15,0.86-0.38
		c0.23-0.23,0.35-0.52,0.35-0.86v-0.66h0.78v5.12h-0.78v-0.69c0-0.32-0.12-0.6-0.35-0.83c-0.23-0.23-0.5-0.36-0.8-0.38h-4.73v8.34
		h3.94c0.74,0,1.38-0.09,1.91-0.29c0.53-0.19,0.99-0.46,1.39-0.8c0.39-0.34,0.73-0.75,1.01-1.22c0.28-0.47,0.53-0.99,0.75-1.55h0.81
		L24.47,166.33z"/>
	<path class="st1" d="M51.2,161.03l-1.87,5.24H36.69v-0.78h0.63c0.46,0,0.84-0.15,1.14-0.47c0.3-0.31,0.47-0.69,0.51-1.13V147.6
		c-0.04-0.44-0.21-0.82-0.51-1.13s-0.68-0.47-1.14-0.47h-0.63v-0.81h6.95v0.81h-0.63c-0.46,0-0.84,0.16-1.14,0.47
		s-0.47,0.69-0.51,1.13v17.28h3.97c0.74,0,1.38-0.09,1.91-0.29c0.53-0.19,0.99-0.46,1.38-0.8c0.39-0.34,0.73-0.75,1.01-1.22
		c0.28-0.47,0.53-0.99,0.75-1.55H51.2z"/>
	<path class="st1" d="M81.76,148.57h-0.78v-0.69c0-0.34-0.12-0.62-0.35-0.84c-0.23-0.22-0.52-0.34-0.86-0.36h-5.96v8.58h4.7
		c0.34-0.02,0.63-0.15,0.86-0.38c0.23-0.23,0.35-0.52,0.35-0.86v-0.66h0.78v5.12h-0.78v-0.69c0-0.32-0.11-0.6-0.35-0.83
		c-0.23-0.23-0.5-0.36-0.8-0.38h-4.73v7.29c0.02,0.46,0.19,0.85,0.5,1.16c0.31,0.31,0.69,0.47,1.13,0.47h0.63v0.78h-6.95v-0.78h0.63
		c0.46,0,0.84-0.16,1.14-0.47c0.3-0.31,0.47-0.7,0.51-1.16v-16.44c0-0.4-0.17-0.74-0.51-1.02c-0.34-0.28-0.72-0.42-1.14-0.42h-0.63
		v-0.78h8.85c0.3,0,0.64-0.02,1.01-0.06c0.37-0.04,0.73-0.09,1.08-0.15c0.35-0.06,0.68-0.13,0.98-0.21c0.3-0.08,0.53-0.16,0.69-0.24
		V148.57z"/>
	<path class="st1" d="M109.81,163.74v-0.03c0.28,0.62,0.64,1.06,1.08,1.32c0.44,0.26,0.86,0.39,1.26,0.39h0.51v0.78h-7.13v-0.78
		h0.51c0.26,0,0.49-0.08,0.69-0.24c0.2-0.16,0.3-0.4,0.3-0.72c0-0.18-0.03-0.36-0.09-0.54l-1.84-4.85h-7.56l-1.93,4.88v-0.03
		c-0.06,0.22-0.09,0.4-0.09,0.54c0,0.32,0.11,0.57,0.32,0.74c0.21,0.17,0.45,0.26,0.71,0.26h0.51v0.78h-6.41v-0.78h0.51
		c0.4,0,0.82-0.13,1.26-0.39c0.44-0.26,0.8-0.69,1.08-1.29H93.5l6.68-15.81c0.2-0.44,0.38-0.86,0.54-1.27
		c0.14-0.34,0.27-0.69,0.38-1.05c0.11-0.36,0.16-0.65,0.16-0.87h0.66L109.81,163.74z M104.6,157.69l-3.19-8.49l-3.34,8.49H104.6z"/>
	<path class="st1" d="M128.85,145.29c1.86,0,3.32,0.51,4.38,1.54c1.06,1.02,1.59,2.44,1.59,4.24c0,0.68-0.11,1.35-0.35,2
		c-0.23,0.65-0.54,1.24-0.95,1.78c-0.4,0.53-0.88,0.98-1.43,1.34c-0.55,0.36-1.15,0.59-1.79,0.69c0.28,0.22,0.56,0.49,0.84,0.81
		c0.28,0.32,0.52,0.62,0.75,0.9c0.46,0.68,0.92,1.33,1.38,1.96c0.38,0.52,0.78,1.05,1.21,1.6c0.42,0.54,0.77,0.96,1.05,1.26
		c0.58,0.64,1.17,1.16,1.76,1.55c0.59,0.39,1.36,0.59,2.3,0.59v0.78h-1.87c-0.7,0-1.33-0.08-1.88-0.26
		c-0.55-0.17-1.04-0.39-1.47-0.65c-0.43-0.26-0.8-0.55-1.12-0.86c-0.31-0.31-0.59-0.62-0.83-0.92c-0.04-0.06-0.13-0.19-0.27-0.38
		c-0.14-0.19-0.31-0.43-0.5-0.71c-0.19-0.28-0.4-0.59-0.63-0.92c-0.23-0.33-0.47-0.67-0.71-1.01c-0.44-0.6-0.89-1.23-1.35-1.88
		c-0.46-0.65-0.78-1.09-0.95-1.32c-0.17-0.23-0.35-0.44-0.54-0.62c-0.19-0.18-0.4-0.33-0.63-0.44c-0.23-0.11-0.75-0.17-1.55-0.17
		v7.71c0.04,0.44,0.21,0.82,0.51,1.13c0.3,0.31,0.68,0.47,1.15,0.47h0.63v0.78h-6.92v-0.78h0.63c0.46,0,0.84-0.15,1.14-0.47
		c0.3-0.31,0.47-0.69,0.51-1.13V147.6c-0.04-0.44-0.21-0.82-0.51-1.14c-0.3-0.32-0.68-0.48-1.14-0.48h-0.63v-0.78L128.85,145.29z
		 M127,155.46c0.18,0,0.38-0.01,0.6-0.03c0.36,0,0.75-0.04,1.17-0.11c0.42-0.07,0.84-0.21,1.25-0.41c0.41-0.2,0.79-0.49,1.13-0.86
		s0.61-0.87,0.81-1.49c0.1-0.36,0.15-0.83,0.15-1.41v-0.27c-0.04-1.27-0.36-2.27-0.95-3.01c-0.59-0.74-1.4-1.14-2.42-1.2
		c-0.34-0.02-0.68-0.04-1.01-0.05c-0.33-0.01-0.65-0.01-0.95-0.01c-0.28,0-0.53,0-0.75,0.01c-0.22,0.01-0.41,0.02-0.57,0.02h-0.15
		v8.82H127z"/>
	<path class="st1" d="M160.01,144.77c1.6,0,3.07,0.26,4.39,0.78c1.32,0.52,2.46,1.27,3.41,2.23c0.95,0.96,1.69,2.12,2.23,3.46
		c0.53,1.34,0.8,2.84,0.8,4.49s-0.27,3.14-0.8,4.49c-0.53,1.34-1.27,2.5-2.23,3.46c-0.95,0.96-2.09,1.71-3.41,2.23
		c-1.32,0.52-2.79,0.78-4.39,0.78c-1.6,0-3.07-0.26-4.39-0.78c-1.32-0.52-2.46-1.26-3.41-2.23c-0.95-0.96-1.7-2.12-2.23-3.46
		c-0.53-1.34-0.8-2.84-0.8-4.49s0.26-3.14,0.8-4.49c0.53-1.35,1.27-2.5,2.23-3.46c0.95-0.96,2.09-1.71,3.41-2.23
		C156.95,145.03,158.41,144.77,160.01,144.77 M160.03,165.31c1.22,0,2.33-0.23,3.33-0.69c0.99-0.46,1.84-1.11,2.54-1.94
		c0.7-0.83,1.25-1.84,1.64-3.01c0.39-1.17,0.59-2.48,0.59-3.93c0-1.45-0.2-2.75-0.59-3.93c-0.39-1.17-0.94-2.18-1.64-3.01
		c-0.7-0.83-1.55-1.48-2.54-1.94c-0.99-0.46-2.1-0.69-3.33-0.69c-1.2,0-2.3,0.23-3.3,0.69c-0.99,0.46-1.85,1.11-2.56,1.94
		c-0.71,0.83-1.26,1.84-1.64,3.01c-0.38,1.17-0.57,2.48-0.57,3.93c0,1.44,0.19,2.75,0.57,3.93c0.38,1.17,0.93,2.18,1.64,3.01
		c0.71,0.83,1.57,1.48,2.56,1.94C157.72,165.08,158.82,165.31,160.03,165.31"/>
	<line class="st2" x1="5.63" y1="142.45" x2="177.03" y2="142.45"/>
	<line class="st2" x1="5.63" y1="168.96" x2="177.03" y2="168.96"/>
	<rect x="85.39" y="129.74" class="st3" width="13.34" height="12.71"/>
	<path class="st1" d="M65.06,50.93c0,0-1.87,0.24-4.66,0.4c-0.7,0.04-1.46,0.09-2.26,0.12c-0.8,0.03-1.65,0.08-2.52,0.09
		c-0.87,0.02-1.78,0.06-2.7,0.06c-0.92,0.01-1.85,0.02-2.78,0.02c-0.93-0.01-1.87-0.02-2.78-0.02c-0.92,0-1.82-0.04-2.7-0.06
		c-1.75-0.05-3.38-0.12-4.78-0.22c-2.8-0.17-4.66-0.4-4.66-0.4s1.86-0.24,4.66-0.4c1.4-0.09,3.03-0.17,4.78-0.22
		c0.87-0.02,1.78-0.06,2.7-0.06c0.92-0.01,1.85-0.02,2.78-0.02c0.93,0.01,1.86,0.02,2.78,0.02c0.92,0,1.82,0.04,2.7,0.06
		c0.87,0.02,1.72,0.06,2.52,0.09c0.8,0.03,1.56,0.08,2.26,0.12C63.19,50.7,65.06,50.93,65.06,50.93"/>
	<path class="st1" d="M64.95,57.23c0,0-3.13,0.24-7.83,0.4c-1.17,0.04-2.45,0.09-3.79,0.12c-1.35,0.03-2.77,0.08-4.23,0.09
		c-1.47,0.02-2.99,0.06-4.53,0.06c-1.54,0.01-3.11,0.02-4.67,0.02c-1.57-0.01-3.13-0.02-4.67-0.02c-1.54,0-3.06-0.04-4.53-0.06
		c-2.94-0.05-5.68-0.12-8.03-0.22c-4.7-0.17-7.83-0.4-7.83-0.4s3.13-0.24,7.83-0.4c2.35-0.09,5.09-0.17,8.03-0.22
		c1.47-0.02,2.99-0.06,4.53-0.06c1.54-0.01,3.11-0.02,4.67-0.02c1.57,0.01,3.13,0.02,4.67,0.02c1.54,0,3.06,0.04,4.53,0.06
		c1.47,0.02,2.89,0.06,4.23,0.09c1.35,0.03,2.62,0.08,3.79,0.12C61.82,57,64.95,57.23,64.95,57.23"/>
	<path class="st1" d="M65.06,62.91c0,0-1.87,0.24-4.66,0.4c-0.7,0.04-1.46,0.09-2.26,0.12c-0.8,0.03-1.65,0.08-2.52,0.09
		c-0.87,0.02-1.78,0.06-2.7,0.06c-0.92,0.01-1.85,0.02-2.78,0.02c-0.93-0.01-1.87-0.02-2.78-0.02c-0.92,0-1.82-0.04-2.7-0.06
		c-1.75-0.05-3.38-0.13-4.78-0.22c-2.8-0.17-4.66-0.4-4.66-0.4s1.86-0.24,4.66-0.4c1.4-0.09,3.03-0.17,4.78-0.21
		c0.87-0.02,1.78-0.06,2.7-0.06c0.92-0.01,1.85-0.02,2.78-0.02c0.93,0.01,1.86,0.02,2.78,0.02c0.92,0,1.82,0.04,2.7,0.06
		c0.87,0.02,1.72,0.06,2.52,0.09c0.8,0.03,1.56,0.08,2.26,0.12C63.19,62.67,65.06,62.91,65.06,62.91"/>
	<path class="st1" d="M117.8,50.55c0,0,1.98-0.24,4.96-0.4c0.74-0.04,1.55-0.09,2.4-0.12c0.85-0.03,1.75-0.08,2.68-0.1
		c0.93-0.02,1.89-0.06,2.87-0.06c0.98-0.01,1.97-0.02,2.96-0.03c0.99,0.01,1.99,0.02,2.96,0.02c0.98,0,1.94,0.04,2.87,0.06
		c1.86,0.05,3.6,0.12,5.09,0.21c2.98,0.17,4.96,0.4,4.96,0.4s-1.99,0.24-4.96,0.41c-1.49,0.09-3.23,0.17-5.09,0.22
		c-0.93,0.02-1.89,0.06-2.87,0.06c-0.98,0.01-1.97,0.02-2.96,0.03c-0.99-0.01-1.99-0.02-2.96-0.02c-0.98,0-1.94-0.04-2.87-0.06
		c-0.93-0.02-1.83-0.06-2.68-0.09c-0.85-0.03-1.66-0.08-2.4-0.12C119.78,50.78,117.8,50.55,117.8,50.55"/>
	<path class="st1" d="M116.53,57.39c0,0,4.24-0.24,10.6-0.4c1.59-0.04,3.31-0.09,5.13-0.12c1.82-0.03,3.74-0.08,5.73-0.09
		c1.99-0.02,4.04-0.06,6.13-0.06c2.09-0.01,4.21-0.02,6.33-0.02c2.12,0.01,4.24,0.02,6.33,0.02c2.09,0,4.14,0.04,6.13,0.06
		c3.98,0.05,7.69,0.13,10.87,0.22c6.36,0.17,10.6,0.4,10.6,0.4s-4.24,0.24-10.6,0.4c-3.18,0.09-6.89,0.17-10.87,0.22
		c-1.99,0.02-4.04,0.06-6.13,0.06c-2.09,0.01-4.21,0.02-6.33,0.02c-2.12-0.01-4.24-0.02-6.33-0.02c-2.09,0-4.14-0.04-6.13-0.06
		c-1.99-0.02-3.91-0.06-5.73-0.1c-1.82-0.03-3.54-0.08-5.13-0.12C120.77,57.63,116.53,57.39,116.53,57.39"/>
	<path class="st1" d="M117.76,64.18c0,0,1.99-0.24,4.97-0.4c0.75-0.04,1.55-0.09,2.41-0.12c0.85-0.03,1.76-0.08,2.69-0.09
		c0.93-0.02,1.9-0.06,2.87-0.06c0.98-0.01,1.97-0.02,2.97-0.02c0.99,0.01,1.99,0.02,2.97,0.02c0.98,0,1.94,0.04,2.87,0.06
		c1.86,0.05,3.6,0.13,5.09,0.22c2.98,0.17,4.97,0.4,4.97,0.4s-1.99,0.24-4.97,0.4c-1.49,0.09-3.23,0.17-5.09,0.22
		c-0.93,0.02-1.89,0.06-2.87,0.06c-0.98,0.01-1.97,0.02-2.97,0.02c-0.99-0.01-1.99-0.02-2.97-0.02c-0.98,0-1.94-0.04-2.87-0.06
		c-0.93-0.02-1.83-0.06-2.69-0.09c-0.85-0.03-1.66-0.08-2.41-0.12C119.75,64.41,117.76,64.18,117.76,64.18"/>
	<path class="st3" d="M62.17,92.52c2.09,0.05,2.67,0.59,2.35,2.79c-2.22,15.62-4.41,31.24-6.59,46.87H64c0.87-3,2.45-5.68,5.28-8.16
		c13.64-11.99,26.73-24.61,40.08-36.94c0.91-0.84,2.31-2.96,3-1.94c1,1.48,1.88,3.93,0.26,5.85c-1.42,1.68-3.08,3.16-4.62,4.73
		c-1.43,1.46-2.56,3.1-0.7,4.87c1.73,1.64,3.26,0.48,4.64-0.84c0.66-0.63,1.37-1.21,2.21-1.94c1.96,4.34,1.12,7.55-2.35,10.05
		c-0.42,0.3-0.75,0.73-1.1,1.12c-1.32,1.48-2.6,3.12-0.71,4.9c1.68,1.58,3.28,0.58,4.7-0.73c0.44-0.4,0.77-1.03,1.82-0.91
		c0.36,2.49,0.72,5.04,1.12,7.6c0.15,0.97-0.35,1.57-0.99,2.17c-3.65,3.38-7.3,6.76-10.95,10.15h19.53
		c-2.12-15.29-4.26-30.59-6.49-45.86c-0.49-3.36,0.49-3.92,3.46-3.82c4.25,0.15,5.47-1.17,5.5-5.35c0.04-4.41,0.02-8.82,0.01-13.23
		c-0.01-5.22-1.09-6.33-6.22-6.34c-9.98-0.01-19.95,0-29.93,0c-10.19,0-20.37-0.02-30.56,0.01c-4.66,0.01-5.93,1.31-5.98,6.04
		c-0.04,3.78-0.01,7.56-0.01,11.34C54.99,91.78,55.47,92.36,62.17,92.52 M60.81,82.97c0.23-2.29,0.11-4.62,0.03-6.92
		c-0.06-1.9,0.81-2.61,2.65-2.61c18.58,0.02,37.15,0.03,55.73,0.01c1.9,0,2.62,0.91,2.59,2.71c-0.04,2.62-0.1,5.25,0.03,7.87
		c0.12,2.38-0.95,3.06-3.2,3.05c-9.24-0.08-18.47-0.04-27.71-0.04c-8.71,0-17.42-0.15-26.13,0.08
		C61.51,87.2,60.51,86.09,60.81,82.97"/>
	<path class="st3" d="M147.68,218c-2.83,0.14-5.66,0.1-8.5,0.14c-2.5,0.03-3.68-1-4.02-3.68c-1.81-14.04-3.82-28.06-5.77-42.09
		c-0.14-1.02-0.28-2.03-0.42-3.05h-5.94c0.37,2.37,0.67,4.37,1,6.35c0.2,1.2-0.44,1.98-1.2,2.75c-1.63,1.63-3.27,3.26-4.87,4.92
		c-1.31,1.35-1.93,2.9-0.34,4.39c1.41,1.33,2.85,0.77,4.23-0.33c1.01-0.81,1.77-2.74,3.08-2.18c1.14,0.49,0.63,2.46,0.96,3.76
		c0.7,2.74,0.23,5.12-2.2,6.99c-1.32,1.01-2.43,2.32-3.52,3.58c-1.01,1.17-1.13,2.5,0.02,3.67c1.11,1.14,2.46,1.17,3.71,0.27
		c1.08-0.78,2.02-1.73,3.56-3.06c0.74,5.48,1.55,10.4,2.01,15.35c0.17,1.83-1.67,1.22-2.65,1.09c-6.14-0.81-12.2-2.1-18.14-3.83
		c-7.66-2.23-15.09-5.1-22.25-8.66c-1.63-0.81-2.47-1.51-0.71-3.11c11.56-10.49,23.09-21.01,35.09-31.95H76.37
		c-5.92,5.49-11.85,10.98-17.77,16.46c-0.12,0.11-0.38,0.07-0.8,0.13c0.65-5.27,0.23-10.77,5.41-14.32
		c0.89-0.61,1.63-1.44,2.36-2.27H54.16c-0.56,4-1.12,8.01-1.68,12.02c-0.53,3.77-0.58,3.77-4.3,2.3c-8.52-3.37-17.25-5.96-26.36-7.2
		c-2.22-0.3-4.29-0.12-4.54,2.48c-0.24,2.48,1.83,2.84,3.83,3.16c15.12,2.38,29.22,7.54,42.29,15.52
		c8.69,5.3,17.27,10.79,26.69,14.8c18.51,7.87,37.71,12.11,57.91,11.25c2.1-0.09,4.34-0.37,4.18-3.09
		C152.02,217.82,149.81,217.89,147.68,218 M84.7,170.02h13.33v11.02h-5.95c-0.24,0.01-0.48,0.01-0.73,0H84.7V170.02z"/>
	<path class="st3" d="M124.99,41.21c-0.71-0.16-1.47-0.19-2.19-0.13c-2.25,0.19-3.01-0.94-2.89-3.02c0.06-1.05-0.05-2.1,0.01-3.15
		c0.2-3.47-1.3-5.71-4.51-7.11c-5.09-2.22-10.02-4.83-15.14-6.97c-2.16-0.9-4.15-1.81-5.28-3.33c1.02-0.95,1.65-2.3,1.65-3.8
		c0-2.88-2.33-5.21-5.21-5.21c-2.88,0-5.21,2.33-5.21,5.21c0,1.62,0.74,3.07,1.9,4.03c-0.61,0.79-1.52,1.41-2.69,1.99
		c-6.39,3.16-12.61,6.65-18.95,9.93c-2.42,1.25-3.57,3.07-3.48,5.79c0.05,1.56,0.31,3.32-0.3,4.65c-0.86,1.88-3.03,0.65-4.57,1.04
		c-1.46,0.37-2.54,1.08-2.61,2.7c-0.07,1.63,0.9,2.55,2.4,2.82c1.13,0.2,2.29,0.25,3.44,0.25c9.97,0.02,19.93,0.01,29.9,0.01
		c9.97,0,19.93,0.01,29.89-0.02c1.35,0,2.73-0.09,4.05-0.37c1.36-0.29,2.21-1.27,2.13-2.72C127.26,42.39,126.34,41.52,124.99,41.21
		 M113.92,39.48c-0.03,2.41-2.35,1.54-3.73,1.56c-6.29,0.09-12.59,0.04-18.89,0.04c-6.3,0-12.59,0.02-18.89-0.02
		c-1.37-0.01-3.26,0.52-3.42-1.69c-0.15-2-0.79-4.22,1.73-5.53c6.43-3.32,12.83-6.71,19.21-10.13c1.29-0.69,2.43-0.38,3.59,0.17
		c6.17,2.9,12.31,5.88,18.51,8.71C115.5,34.16,113.95,37.13,113.92,39.48"/>
</g>
</svg>
