<?xml version="1.0" encoding="UTF-8"?>
<!-- Generator: Adobe Illustrator 23.1.0, SVG Export Plug-In . SVG Version: 6.00 Build 0)  -->
<svg version="1.1" xmlns="http://www.w3.org/2000/svg" xmlns:xlink="http://www.w3.org/1999/xlink" x="0px" y="0px" viewBox="0 0 112.87 95.72" style="enable-background:new 0 0 112.87 95.72;" xml:space="preserve">
<style type="text/css">
	.Sombra_x0020_paralela{fill:none;}
	.Resplandor_x0020_externo_x0020_5_x0020_pt_x002E_{fill:none;}
	.Neón_x0020_azul{fill:none;stroke:#83A5D3;stroke-width:7;stroke-linecap:round;stroke-linejoin:round;}
	.Resalte_x0020_cromado{fill:url(#SVGID_1_);stroke:#FFFFFF;stroke-width:0.3629;stroke-miterlimit:1;}
	.A_x0020_todo_x0020_ritmo_GS{fill:#FFD600;}
	.Alyssa_GS{fill:#9FC9DD;}
	.st0{clip-path:url(#SVGID_7_);}
	.st1{clip-path:url(#SVGID_7_);fill:#E8B63A;}
	.st2{fill:#282828;}
	.st3{fill:#FFFFFF;}
	.st4{fill:none;stroke:#FFFFFF;stroke-width:0.7;stroke-linecap:round;stroke-linejoin:round;stroke-miterlimit:10;}
	.st5{stroke:#FFFFFF;stroke-width:0.7;stroke-linecap:round;stroke-linejoin:round;stroke-miterlimit:10;}
	.st6{fill:none;stroke:#FFFFFF;stroke-width:0.5;stroke-miterlimit:10;}
	.st7{fill:#2D2D2D;}
	.st8{fill:#FFFFFF;stroke:#282828;stroke-width:0.7495;stroke-linecap:round;stroke-linejoin:round;stroke-miterlimit:10;}
	.st9{fill:none;}
	.st10{fill:none;stroke:#CE509A;stroke-width:2;stroke-miterlimit:10;}
	.st11{fill:none;stroke:#F0BE28;stroke-width:2;stroke-linecap:round;stroke-linejoin:round;stroke-miterlimit:10;}
	.st12{fill:none;stroke:#FCFCFC;stroke-width:2;stroke-linecap:round;stroke-linejoin:round;stroke-miterlimit:10;}
	.st13{fill:none;stroke:#0091D2;stroke-width:2;stroke-linecap:round;stroke-linejoin:round;stroke-miterlimit:10;}
	.st14{fill:#0091D2;}
	.st15{clip-path:url(#SVGID_81_);}
	.st16{clip-path:url(#SVGID_81_);fill:none;}
	.st17{fill:none;stroke:#000000;stroke-width:0.7;stroke-linecap:round;stroke-linejoin:round;stroke-miterlimit:10;}
	.st18{clip-path:url(#SVGID_101_);}
	.st19{fill:none;stroke:#FFFFFF;stroke-width:2.4434;stroke-miterlimit:10;}
	.st20{clip-path:url(#SVGID_105_);fill:#2D2D2D;}
	.st21{clip-path:url(#SVGID_105_);}
	.st22{fill:#FFFFFF;stroke:#282828;stroke-width:1.8314;stroke-linecap:round;stroke-linejoin:round;stroke-miterlimit:10;}
	.st23{fill:#0E8DCD;}
	.st24{fill:#CE0F80;}
	.st25{fill:#A7BD17;}
	.st26{fill:none;stroke:#FFFFFF;stroke-width:2;stroke-linecap:round;stroke-linejoin:round;stroke-miterlimit:10;}
	.st27{display:none;}
	.st28{display:inline;}
	.st29{fill:none;stroke:#CE0F80;stroke-width:2.1205;stroke-linecap:round;stroke-linejoin:round;stroke-miterlimit:10;}
	
		.st30{display:inline;fill:none;stroke:#CE0F80;stroke-width:2.1205;stroke-linecap:round;stroke-linejoin:round;stroke-miterlimit:10;}
</style>
<linearGradient id="SVGID_1_" gradientUnits="userSpaceOnUse" x1="-6119.9438" y1="-701.749" x2="-6119.9438" y2="-702.749">
	<stop offset="0" style="stop-color:#656565"/>
	<stop offset="0.618" style="stop-color:#1B1B1B"/>
	<stop offset="0.6292" style="stop-color:#545454"/>
	<stop offset="0.9831" style="stop-color:#3E3E3E"/>
</linearGradient>
<g id="Capa_1">
	<rect x="-2109.19" y="-707.2" class="st9" width="2788.49" height="1501.5"/>
	<rect x="-2075.94" y="-685.75" class="st9" width="2722" height="1480.05"/>
	<g>
		<line class="st12" x1="1.02" y1="94.72" x2="111.89" y2="94.72"/>
		<polyline class="st12" points="83.87,15.42 52.54,15.42 52.54,94.48   "/>
		<polyline class="st12" points="102.11,47.47 102.11,15.42 89.85,15.42   "/>
		<polyline class="st12" points="96.73,15.42 96.73,3.53 57.49,3.53 57.49,15.42   "/>
		<line class="st12" x1="59.96" y1="23.63" x2="85.93" y2="23.63"/>
		<line class="st12" x1="91.9" y1="23.81" x2="93.29" y2="23.81"/>
		<line class="st12" x1="59.96" y1="33.53" x2="85.93" y2="33.53"/>
		<line class="st12" x1="91.9" y1="33.71" x2="93.29" y2="33.71"/>
		<line class="st12" x1="59.96" y1="42.7" x2="85.93" y2="42.7"/>
		<line class="st12" x1="91.9" y1="42.88" x2="93.29" y2="42.88"/>
		<polyline class="st12" points="15.16,51.75 15.16,34.98 44.69,20.07 44.69,94.48   "/>
		<line class="st12" x1="15.16" y1="56.46" x2="15.16" y2="58.21"/>
		<line class="st12" x1="15.16" y1="62.92" x2="15.16" y2="94.48"/>
		<polygon class="st12" points="21.38,39.02 23.68,39.02 23.68,48.07 21.38,48.07 21.38,39.02   "/>
		<polygon class="st12" points="28.75,39.02 31.04,39.02 31.04,48.07 28.75,48.07 28.75,39.02   "/>
		<polygon class="st12" points="36.11,39.02 38.41,39.02 38.41,48.07 36.11,48.07 36.11,39.02   "/>
		<polygon class="st12" points="21.38,52.48 23.68,52.48 23.68,61.47 21.38,61.47 21.38,52.48   "/>
		<polygon class="st12" points="28.75,52.48 31.04,52.48 31.04,61.47 28.75,61.47 28.75,52.48   "/>
		<polygon class="st12" points="36.11,52.48 38.41,52.48 38.41,61.47 36.11,61.47 36.11,52.48   "/>
		<polygon class="st12" points="21.38,64.85 23.68,64.85 23.68,73.9 21.38,73.9 21.38,64.85   "/>
		<polygon class="st12" points="28.75,64.85 31.04,64.85 31.04,73.9 28.75,73.9 28.75,64.85   "/>
		<polygon class="st12" points="36.11,64.85 38.41,64.85 38.41,73.9 36.11,73.9 36.11,64.85   "/>
		<polygon class="st12" points="21.38,78.55 23.68,78.55 23.68,87.6 21.38,87.6 21.38,78.55   "/>
		<polygon class="st12" points="28.75,78.55 31.04,78.55 31.04,87.6 28.75,87.6 28.75,78.55   "/>
		<polygon class="st12" points="36.11,78.55 38.41,78.55 38.41,87.6 36.11,87.6 36.11,78.55   "/>
		<polyline class="st12" points="84.11,66.24 83.45,65.15 82.97,64.01 82.6,62.8 82.42,61.53 82.36,60.26 82.48,59 82.73,57.79     83.15,56.58 83.75,55.5 84.42,54.41 85.26,53.44 86.17,52.6 87.19,51.88 88.28,51.27 89.49,50.85 90.69,50.55 91.96,50.37     93.23,50.37 94.44,50.55 95.71,50.85 96.85,51.33 97.94,51.94 98.97,52.66 99.93,53.5 100.72,54.47 101.44,55.5 101.99,56.64     102.41,57.85 102.65,59.06 102.77,60.32 102.71,61.59 102.53,62.8 102.17,64.01 101.68,65.15 101.02,66.24 100.23,67.26     100.23,67.33 101.02,68.35 101.74,69.5 102.29,70.7 102.71,71.97 102.95,73.3 103.07,74.57 103.01,75.9 102.83,77.22     102.47,78.49 101.99,79.76 101.32,80.9 100.6,81.99 99.69,83.02 98.73,83.86 97.64,84.65 96.43,85.25 95.22,85.73 93.89,86.09     92.63,86.28 91.3,86.34 89.97,86.22 88.64,85.97 87.37,85.55 86.17,84.95 85.08,84.28 83.99,83.44 83.09,82.53 82.24,81.51     81.52,80.36 80.97,79.15 80.55,77.89 80.25,76.62 80.13,75.29 80.19,73.96 80.37,72.64 80.67,71.37 81.16,70.1 81.76,68.95     82.54,67.87 83.39,66.84 84.42,65.94 85.44,65.15 86.65,64.55 87.86,64.01 89.13,63.64 90.45,63.46 91.78,63.4   "/>
		<line class="st12" x1="92.63" y1="86.34" x2="92.63" y2="94.48"/>
		<line class="st12" x1="8.34" y1="16.87" x2="26.82" y2="16.87"/>
		<polyline class="st12" points="9.73,7.58 8.88,7.46 8.04,7.52 7.19,7.7 6.41,8 5.68,8.48 5.02,9.09 4.54,9.81 4.17,10.6     3.93,11.44 3.87,12.29 3.99,13.19 4.24,13.98 4.6,14.76 5.14,15.48 5.8,16.03 6.53,16.51 7.31,16.81 8.22,16.99 9.07,16.99     9.91,16.81   "/>
		<polyline class="st12" points="26.03,16.81 26.88,16.99 27.72,16.99 28.57,16.81 29.41,16.51 30.14,16.09 30.8,15.48 31.28,14.82     31.71,14.04 31.95,13.19 32.07,12.35 32.01,11.5 31.83,10.66 31.47,9.87 30.98,9.15 30.32,8.54 29.65,8.06 28.87,7.7 28.02,7.52     27.12,7.46 26.27,7.58 25.43,7.82   "/>
		<polyline class="st12" points="25.43,7.82 25.19,6.73 24.76,5.65 24.28,4.68 23.62,3.78 22.83,2.99 21.93,2.33 20.96,1.72     19.93,1.36 18.79,1.12 17.7,1 16.61,1.06 15.47,1.3 14.44,1.66 13.41,2.15 12.51,2.81 11.72,3.6 11.06,4.5 10.45,5.47 10.03,6.49     9.79,7.58   "/>
	</g>
</g>
<g id="Guias" class="st27">
</g>
</svg>