<?xml version="1.0" encoding="UTF-8"?>
<!-- Generator: Adobe Illustrator 23.1.0, SVG Export Plug-In . SVG Version: 6.00 Build 0)  -->
<svg version="1.1" xmlns="http://www.w3.org/2000/svg" xmlns:xlink="http://www.w3.org/1999/xlink" x="0px" y="0px" viewBox="0 0 105.51 97.03" style="enable-background:new 0 0 105.51 97.03;" xml:space="preserve">
<style type="text/css">
	.Sombra_x0020_paralela{fill:none;}
	.Resplandor_x0020_externo_x0020_5_x0020_pt_x002E_{fill:none;}
	.Neón_x0020_azul{fill:none;stroke:#83A5D3;stroke-width:7;stroke-linecap:round;stroke-linejoin:round;}
	.Resalte_x0020_cromado{fill:url(#SVGID_1_);stroke:#FFFFFF;stroke-width:0.3629;stroke-miterlimit:1;}
	.A_x0020_todo_x0020_ritmo_GS{fill:#FFD600;}
	.Alyssa_GS{fill:#9FC9DD;}
	.st0{clip-path:url(#SVGID_7_);}
	.st1{clip-path:url(#SVGID_7_);fill:#E8B63A;}
	.st2{fill:#282828;}
	.st3{fill:#FFFFFF;}
	.st4{fill:none;stroke:#FFFFFF;stroke-width:0.7;stroke-linecap:round;stroke-linejoin:round;stroke-miterlimit:10;}
	.st5{stroke:#FFFFFF;stroke-width:0.7;stroke-linecap:round;stroke-linejoin:round;stroke-miterlimit:10;}
	.st6{fill:none;stroke:#FFFFFF;stroke-width:0.5;stroke-miterlimit:10;}
	.st7{fill:#2D2D2D;}
	.st8{fill:#FFFFFF;stroke:#282828;stroke-width:0.7495;stroke-linecap:round;stroke-linejoin:round;stroke-miterlimit:10;}
	.st9{fill:none;}
	.st10{fill:none;stroke:#CE509A;stroke-width:2;stroke-miterlimit:10;}
	.st11{fill:none;stroke:#F0BE28;stroke-width:2;stroke-linecap:round;stroke-linejoin:round;stroke-miterlimit:10;}
	.st12{fill:none;stroke:#0091D2;stroke-width:2;stroke-linecap:round;stroke-linejoin:round;stroke-miterlimit:10;}
	.st13{fill:#0091D2;}
	.st14{clip-path:url(#SVGID_81_);}
	.st15{clip-path:url(#SVGID_81_);fill:none;}
	.st16{fill:none;stroke:#000000;stroke-width:0.7;stroke-linecap:round;stroke-linejoin:round;stroke-miterlimit:10;}
	.st17{clip-path:url(#SVGID_101_);}
	.st18{fill:none;stroke:#FFFFFF;stroke-width:2.4434;stroke-miterlimit:10;}
	.st19{clip-path:url(#SVGID_105_);fill:#2D2D2D;}
	.st20{clip-path:url(#SVGID_105_);}
	.st21{fill:#FFFFFF;stroke:#282828;stroke-width:1.8314;stroke-linecap:round;stroke-linejoin:round;stroke-miterlimit:10;}
	.st22{fill:#0E8DCD;}
	.st23{fill:#CE0F80;}
	.st24{fill:#A7BD17;}
	.st25{fill:none;stroke:#FFFFFF;stroke-width:2;stroke-linecap:round;stroke-linejoin:round;stroke-miterlimit:10;}
	.st26{display:none;}
	.st27{display:inline;}
	.st28{fill:none;stroke:#CE0F80;stroke-width:2.1205;stroke-linecap:round;stroke-linejoin:round;stroke-miterlimit:10;}
	
		.st29{display:inline;fill:none;stroke:#CE0F80;stroke-width:2.1205;stroke-linecap:round;stroke-linejoin:round;stroke-miterlimit:10;}
</style>
<linearGradient id="SVGID_1_" gradientUnits="userSpaceOnUse" x1="-6369.4521" y1="-700.44" x2="-6369.4521" y2="-701.44">
	<stop offset="0" style="stop-color:#656565"/>
	<stop offset="0.618" style="stop-color:#1B1B1B"/>
	<stop offset="0.6292" style="stop-color:#545454"/>
	<stop offset="0.9831" style="stop-color:#3E3E3E"/>
</linearGradient>
<g id="Capa_1">
	<rect x="-2358.7" y="-705.89" class="st9" width="2788.49" height="1501.5"/>
	<rect x="-2325.45" y="-684.44" class="st9" width="2722" height="1480.05"/>
	<g>
		<polyline class="st25" points="56.91,77.67 56.91,57.93 66.89,57.93 66.89,77.67   "/>
		<line class="st25" x1="13.54" y1="61.49" x2="32.22" y2="61.49"/>
		<polyline class="st25" points="77.61,95.82 7.43,95.82 6.53,95.71 5.68,95.5 4.83,95.13 4.09,94.7 3.4,94.12 2.76,93.43     2.28,92.69 1.91,91.84 1.65,90.99 1.54,90.09 1.49,90.09 13.54,61.49   "/>
		<line class="st25" x1="93.37" y1="61.49" x2="93.37" y2="17.34"/>
		<polyline class="st25" points="93.37,17.34 93.27,16.39 93,15.49 92.63,14.64 92.1,13.89 91.46,13.2 90.72,12.62 89.92,12.14     89.02,11.82 88.12,11.67 57.76,11.67 45.92,1 18.37,1 17.52,1.37 16.67,1.8 15.87,2.38 15.24,3.07 14.65,3.81 14.17,4.61     13.8,5.51 13.59,6.47 13.54,6.47 13.54,61.49   "/>
		<polyline class="st25" points="81.17,52.63 53.19,25.46 26.49,52.26   "/>
		<line class="st25" x1="32.22" y1="46.47" x2="32.22" y2="78.26"/>
		<line class="st25" x1="74.48" y1="78.26" x2="74.48" y2="46.1"/>
		<g>
			<path class="st3" d="M47.85,59.93v9.95h-6.03v-9.95H47.85 M49.85,57.93H39.81v13.95h10.03V57.93L49.85,57.93z"/>
		</g>
		<g>
			<polygon class="st3" points="5.84,30.93 5.04,30.93 5.04,54.64 5.84,54.64 5.84,30.93    "/>
		</g>
		<g>
			<polygon class="st3" points="5.84,18.56 5.04,18.56 5.04,25.04 5.84,25.04 5.84,18.56    "/>
		</g>
		<g>
			<polygon class="st3" points="101.97,6.89 101.18,6.89 101.18,30.66 101.97,30.66 101.97,6.89    "/>
		</g>
		<g>
			<polygon class="st3" points="101.97,36.5 101.18,36.5 101.18,42.97 101.97,42.97 101.97,36.5    "/>
		</g>
		<g>
			<polygon class="st3" points="22.83,6.52 19.59,6.52 19.59,9.54 22.83,9.54 22.83,6.52    "/>
		</g>
		<g>
			<polygon class="st3" points="30.42,6.52 27.23,6.52 27.23,9.54 30.42,9.54 30.42,6.52    "/>
		</g>
		<g>
			<polygon class="st3" points="38.17,6.52 34.93,6.52 34.93,9.54 38.17,9.54 38.17,6.52    "/>
		</g>
		<polyline class="st25" points="74.48,61.49 93.37,61.49 104.89,89.35 105,90.19 104.95,91.04 104.79,91.94 104.52,92.74     104.1,93.54 103.57,94.23 102.93,94.81 102.24,95.34 101.44,95.71 100.65,95.98 100.65,96.03 90.4,96.03   "/>
	</g>
</g>
<g id="Guias" class="st26">
</g>
</svg>