<?xml version="1.0" encoding="UTF-8"?>
<!-- Generator: Adobe Illustrator 23.1.0, SVG Export Plug-In . SVG Version: 6.00 Build 0)  -->
<svg version="1.1" xmlns="http://www.w3.org/2000/svg" xmlns:xlink="http://www.w3.org/1999/xlink" x="0px" y="0px" viewBox="0 0 107.19 99.79" style="enable-background:new 0 0 107.19 99.79;" xml:space="preserve">
<style type="text/css">
	.st0{clip-path:url(#SVGID_6_);}
	.st1{clip-path:url(#SVGID_6_);fill:#E8B63A;}
	.st2{fill:#282828;}
	.st3{fill:#FFFFFF;}
	.st4{fill:none;stroke:#FFFFFF;stroke-width:0.7;stroke-linecap:round;stroke-linejoin:round;stroke-miterlimit:10;}
	.st5{stroke:#FFFFFF;stroke-width:0.7;stroke-linecap:round;stroke-linejoin:round;stroke-miterlimit:10;}
	.st6{fill:none;stroke:#FFFFFF;stroke-width:0.5;stroke-miterlimit:10;}
	.st7{fill:#2D2D2D;}
	.st8{fill:#FFFFFF;stroke:#282828;stroke-width:0.7495;stroke-linecap:round;stroke-linejoin:round;stroke-miterlimit:10;}
	.st9{fill:none;}
	.st10{fill:none;stroke:#CE509A;stroke-width:2;stroke-miterlimit:10;}
	.st11{fill:none;stroke:#F0BE28;stroke-width:2;stroke-linecap:round;stroke-linejoin:round;stroke-miterlimit:10;}
	.st12{fill:none;stroke:#0091D2;stroke-width:2;stroke-linecap:round;stroke-linejoin:round;stroke-miterlimit:10;}
	.st13{fill:#0091D2;}
	.st14{clip-path:url(#SVGID_80_);}
	.st15{clip-path:url(#SVGID_80_);fill:none;}
	.st16{fill:none;stroke:#000000;stroke-width:0.7;stroke-linecap:round;stroke-linejoin:round;stroke-miterlimit:10;}
	.st17{clip-path:url(#SVGID_100_);}
	.st18{fill:none;stroke:#FFFFFF;stroke-width:2.4434;stroke-miterlimit:10;}
	.st19{clip-path:url(#SVGID_104_);fill:#2D2D2D;}
	.st20{clip-path:url(#SVGID_104_);}
	.st21{fill:#FFFFFF;stroke:#282828;stroke-width:1.8314;stroke-linecap:round;stroke-linejoin:round;stroke-miterlimit:10;}
	.st22{fill:#0E8DCD;}
	.st23{fill:#CE0F80;}
	.st24{fill:#A7BD17;}
	.st25{display:none;}
	.st26{display:inline;}
	.st27{fill:none;stroke:#CE0F80;stroke-width:2.1205;stroke-linecap:round;stroke-linejoin:round;stroke-miterlimit:10;}
	
		.st28{display:inline;fill:none;stroke:#CE0F80;stroke-width:2.1205;stroke-linecap:round;stroke-linejoin:round;stroke-miterlimit:10;}
</style>
<g id="Capa_1">
	<rect x="-2477" y="-703.13" class="st9" width="2788.49" height="1501.5"/>
	<rect x="-2443.76" y="-681.68" class="st9" width="2722" height="1480.05"/>
	<g>
		<g>
			<line class="st10" x1="62.94" y1="14.03" x2="83.03" y2="14.03"/>
			<polyline class="st10" points="38.97,83.5 32.22,98.79 67.11,98.79 60.48,83.5    "/>
			<line class="st10" x1="32.22" y1="98.79" x2="14.81" y2="98.79"/>
			<line class="st10" x1="67.11" y1="98.61" x2="91.92" y2="98.61"/>
			<line class="st10" x1="20.14" y1="17.68" x2="20.14" y2="26.57"/>
			<line class="st10" x1="15.57" y1="30.89" x2="6.83" y2="30.89"/>
			<line class="st10" x1="23.68" y1="30.89" x2="33.67" y2="30.89"/>
			<line class="st10" x1="20.14" y1="34.71" x2="20.14" y2="44.26"/>
			<line class="st10" x1="42.88" y1="7.22" x2="49.6" y2="21.84"/>
			<line class="st10" x1="49.6" y1="21.84" x2="63.48" y2="15.22"/>
			<line class="st10" x1="63.48" y1="15.22" x2="57.01" y2="0.91"/>
			<line class="st10" x1="57.01" y1="0.91" x2="42.88" y2="7.22"/>
			<line class="st10" x1="75.97" y1="21.5" x2="90.35" y2="12.39"/>
			<line class="st10" x1="90.35" y1="12.39" x2="102.08" y2="30.48"/>
			<line class="st10" x1="102.08" y1="30.48" x2="87.86" y2="39.94"/>
			<line class="st10" x1="87.86" y1="39.94" x2="75.97" y2="21.5"/>
			<polyline class="st10" points="83.03,17.02 83.03,3.69 98.45,3.69 98.45,24.87    "/>
			<line class="st10" x1="93.82" y1="45.05" x2="106.24" y2="49.9"/>
			<line class="st10" x1="106.24" y1="49.9" x2="101.99" y2="62.04"/>
			<line class="st10" x1="101.99" y1="62.04" x2="89.5" y2="57.88"/>
			<line class="st10" x1="89.5" y1="57.88" x2="93.82" y2="45.05"/>
			<line class="st10" x1="96.75" y1="34.01" x2="96.75" y2="46.18"/>
			<path class="st10" d="M96.75,60.3v16.14c0,3.9-3.16,7.06-7.06,7.06H8.06C4.16,83.5,1,80.34,1,76.45V21.08     c0-3.9,3.16-7.06,7.06-7.06h37.95"/>
			<line class="st10" x1="1.23" y1="69.6" x2="97.12" y2="69.6"/>
		</g>
	</g>
</g>
<g id="Guias" class="st25">
</g>
</svg>