<?xml version="1.0" encoding="UTF-8"?>
<!-- Generator: Adobe Illustrator 23.1.0, SVG Export Plug-In . SVG Version: 6.00 Build 0)  -->
<svg version="1.1" xmlns="http://www.w3.org/2000/svg" xmlns:xlink="http://www.w3.org/1999/xlink" x="0px" y="0px" viewBox="0 0 105.51 97.03" style="enable-background:new 0 0 105.51 97.03;" xml:space="preserve">
<style type="text/css">
	.st0{clip-path:url(#SVGID_6_);}
	.st1{clip-path:url(#SVGID_6_);fill:#E8B63A;}
	.st2{fill:#282828;}
	.st3{fill:#FFFFFF;}
	.st4{fill:none;stroke:#FFFFFF;stroke-width:0.7;stroke-linecap:round;stroke-linejoin:round;stroke-miterlimit:10;}
	.st5{stroke:#FFFFFF;stroke-width:0.7;stroke-linecap:round;stroke-linejoin:round;stroke-miterlimit:10;}
	.st6{fill:none;stroke:#FFFFFF;stroke-width:0.5;stroke-miterlimit:10;}
	.st7{fill:#2D2D2D;}
	.st8{fill:#FFFFFF;stroke:#282828;stroke-width:0.7495;stroke-linecap:round;stroke-linejoin:round;stroke-miterlimit:10;}
	.st9{fill:none;}
	.st10{fill:none;stroke:#CE509A;stroke-width:2;stroke-miterlimit:10;}
	.st11{fill:none;stroke:#F0BE28;stroke-width:2;stroke-linecap:round;stroke-linejoin:round;stroke-miterlimit:10;}
	.st12{fill:none;stroke:#0091D2;stroke-width:2;stroke-linecap:round;stroke-linejoin:round;stroke-miterlimit:10;}
	.st13{fill:#0091D2;}
	.st14{clip-path:url(#SVGID_80_);}
	.st15{clip-path:url(#SVGID_80_);fill:none;}
	.st16{fill:none;stroke:#000000;stroke-width:0.7;stroke-linecap:round;stroke-linejoin:round;stroke-miterlimit:10;}
	.st17{clip-path:url(#SVGID_100_);}
	.st18{fill:none;stroke:#FFFFFF;stroke-width:2.4434;stroke-miterlimit:10;}
	.st19{clip-path:url(#SVGID_104_);fill:#2D2D2D;}
	.st20{clip-path:url(#SVGID_104_);}
	.st21{fill:#FFFFFF;stroke:#282828;stroke-width:1.8314;stroke-linecap:round;stroke-linejoin:round;stroke-miterlimit:10;}
	.st22{fill:#0E8DCD;}
	.st23{fill:#CE0F80;}
	.st24{fill:#A7BD17;}
	.st25{display:none;}
	.st26{display:inline;}
	.st27{fill:none;stroke:#CE0F80;stroke-width:2.1205;stroke-linecap:round;stroke-linejoin:round;stroke-miterlimit:10;}
	
		.st28{display:inline;fill:none;stroke:#CE0F80;stroke-width:2.1205;stroke-linecap:round;stroke-linejoin:round;stroke-miterlimit:10;}
</style>
<g id="Capa_1">
	<rect x="-2233.19" y="-705.89" class="st9" width="2788.49" height="1501.5"/>
	<rect x="-2199.94" y="-684.44" class="st9" width="2722" height="1480.05"/>
	<g>
		<polyline class="st12" points="56.42,77.67 56.42,57.93 66.4,57.93 66.4,77.67   "/>
		<line class="st12" x1="13.05" y1="61.49" x2="31.74" y2="61.49"/>
		<polyline class="st12" points="77.12,95.82 6.95,95.82 6.04,95.71 5.19,95.5 4.34,95.13 3.6,94.7 2.91,94.12 2.27,93.43     1.8,92.69 1.42,91.84 1.16,90.99 1.05,90.09 1,90.09 13.05,61.49   "/>
		<line class="st12" x1="92.89" y1="61.49" x2="92.89" y2="17.34"/>
		<polyline class="st12" points="92.89,17.34 92.78,16.39 92.52,15.49 92.14,14.64 91.61,13.89 90.98,13.2 90.23,12.62 89.44,12.14     88.53,11.82 87.63,11.67 57.27,11.67 45.43,1 17.88,1 17.03,1.37 16.18,1.8 15.39,2.38 14.75,3.07 14.16,3.81 13.69,4.61     13.32,5.51 13.1,6.47 13.05,6.47 13.05,61.49   "/>
		<polyline class="st12" points="80.68,52.63 52.7,25.46 26,52.26   "/>
		<line class="st12" x1="31.74" y1="46.47" x2="31.74" y2="78.26"/>
		<line class="st12" x1="73.99" y1="78.26" x2="73.99" y2="46.1"/>
		<g>
			<path class="st13" d="M47.36,59.93v9.95h-6.03v-9.95H47.36 M49.36,57.93H39.33v13.95h10.03V57.93L49.36,57.93z"/>
		</g>
		<g>
			<polygon class="st13" points="5.35,30.93 4.56,30.93 4.56,54.64 5.35,54.64 5.35,30.93    "/>
		</g>
		<g>
			<polygon class="st13" points="5.35,18.56 4.56,18.56 4.56,25.04 5.35,25.04 5.35,18.56    "/>
		</g>
		<g>
			<polygon class="st13" points="101.49,6.89 100.69,6.89 100.69,30.66 101.49,30.66 101.49,6.89    "/>
		</g>
		<g>
			<polygon class="st13" points="101.49,36.5 100.69,36.5 100.69,42.97 101.49,42.97 101.49,36.5    "/>
		</g>
		<g>
			<polygon class="st13" points="22.34,6.52 19.1,6.52 19.1,9.54 22.34,9.54 22.34,6.52    "/>
		</g>
		<g>
			<polygon class="st13" points="29.93,6.52 26.75,6.52 26.75,9.54 29.93,9.54 29.93,6.52    "/>
		</g>
		<g>
			<polygon class="st13" points="37.68,6.52 34.44,6.52 34.44,9.54 37.68,9.54 37.68,6.52    "/>
		</g>
		<polyline class="st12" points="73.99,61.49 92.89,61.49 104.41,89.35 104.51,90.19 104.46,91.04 104.3,91.94 104.03,92.74     103.61,93.54 103.08,94.23 102.44,94.81 101.75,95.34 100.96,95.71 100.16,95.98 100.16,96.03 89.91,96.03   "/>
	</g>
</g>
<g id="Guias" class="st25">
</g>
</svg>