<?xml version="1.0" encoding="UTF-8"?>
<!-- Generator: Adobe Illustrator 23.1.0, SVG Export Plug-In . SVG Version: 6.00 Build 0)  -->
<svg version="1.1" xmlns="http://www.w3.org/2000/svg" xmlns:xlink="http://www.w3.org/1999/xlink" x="0px" y="0px" viewBox="0 0 112.87 95.72" style="enable-background:new 0 0 112.87 95.72;" xml:space="preserve">
<style type="text/css">
	.st0{clip-path:url(#SVGID_6_);}
	.st1{clip-path:url(#SVGID_6_);fill:#E8B63A;}
	.st2{fill:#282828;}
	.st3{fill:#FFFFFF;}
	.st4{fill:none;stroke:#FFFFFF;stroke-width:0.7;stroke-linecap:round;stroke-linejoin:round;stroke-miterlimit:10;}
	.st5{stroke:#FFFFFF;stroke-width:0.7;stroke-linecap:round;stroke-linejoin:round;stroke-miterlimit:10;}
	.st6{fill:none;stroke:#FFFFFF;stroke-width:0.5;stroke-miterlimit:10;}
	.st7{fill:#2D2D2D;}
	.st8{fill:#FFFFFF;stroke:#282828;stroke-width:0.7495;stroke-linecap:round;stroke-linejoin:round;stroke-miterlimit:10;}
	.st9{fill:none;}
	.st10{fill:none;stroke:#CE509A;stroke-width:2;stroke-miterlimit:10;}
	.st11{fill:none;stroke:#F0BE28;stroke-width:2;stroke-linecap:round;stroke-linejoin:round;stroke-miterlimit:10;}
	.st12{fill:none;stroke:#0091D2;stroke-width:2;stroke-linecap:round;stroke-linejoin:round;stroke-miterlimit:10;}
	.st13{fill:#0091D2;}
	.st14{clip-path:url(#SVGID_80_);}
	.st15{clip-path:url(#SVGID_80_);fill:none;}
	.st16{fill:none;stroke:#000000;stroke-width:0.7;stroke-linecap:round;stroke-linejoin:round;stroke-miterlimit:10;}
	.st17{clip-path:url(#SVGID_100_);}
	.st18{fill:none;stroke:#FFFFFF;stroke-width:2.4434;stroke-miterlimit:10;}
	.st19{clip-path:url(#SVGID_104_);fill:#2D2D2D;}
	.st20{clip-path:url(#SVGID_104_);}
	.st21{fill:#FFFFFF;stroke:#282828;stroke-width:1.8314;stroke-linecap:round;stroke-linejoin:round;stroke-miterlimit:10;}
	.st22{fill:#0E8DCD;}
	.st23{fill:#CE0F80;}
	.st24{fill:#A7BD17;}
	.st25{display:none;}
	.st26{display:inline;}
	.st27{fill:none;stroke:#CE0F80;stroke-width:2.1205;stroke-linecap:round;stroke-linejoin:round;stroke-miterlimit:10;}
	
		.st28{display:inline;fill:none;stroke:#CE0F80;stroke-width:2.1205;stroke-linecap:round;stroke-linejoin:round;stroke-miterlimit:10;}
</style>
<g id="Capa_1">
	<rect x="-1988.21" y="-707.2" class="st9" width="2788.49" height="1501.5"/>
	<rect x="-1954.97" y="-685.75" class="st9" width="2722" height="1480.05"/>
	<g>
		<line class="st11" x1="1" y1="94.72" x2="111.87" y2="94.72"/>
		<polyline class="st11" points="83.85,15.42 52.51,15.42 52.51,94.48   "/>
		<polyline class="st11" points="102.08,47.47 102.08,15.42 89.83,15.42   "/>
		<polyline class="st11" points="96.71,15.42 96.71,3.53 57.46,3.53 57.46,15.42   "/>
		<line class="st11" x1="59.94" y1="23.63" x2="85.9" y2="23.63"/>
		<line class="st11" x1="91.88" y1="23.81" x2="93.27" y2="23.81"/>
		<line class="st11" x1="59.94" y1="33.53" x2="85.9" y2="33.53"/>
		<line class="st11" x1="91.88" y1="33.71" x2="93.27" y2="33.71"/>
		<line class="st11" x1="59.94" y1="42.7" x2="85.9" y2="42.7"/>
		<line class="st11" x1="91.88" y1="42.88" x2="93.27" y2="42.88"/>
		<polyline class="st11" points="15.14,51.75 15.14,34.98 44.66,20.07 44.66,94.48   "/>
		<line class="st11" x1="15.14" y1="56.46" x2="15.14" y2="58.21"/>
		<line class="st11" x1="15.14" y1="62.92" x2="15.14" y2="94.48"/>
		<polygon class="st11" points="21.36,39.02 23.65,39.02 23.65,48.07 21.36,48.07 21.36,39.02   "/>
		<polygon class="st11" points="28.72,39.02 31.02,39.02 31.02,48.07 28.72,48.07 28.72,39.02   "/>
		<polygon class="st11" points="36.09,39.02 38.39,39.02 38.39,48.07 36.09,48.07 36.09,39.02   "/>
		<polygon class="st11" points="21.36,52.48 23.65,52.48 23.65,61.47 21.36,61.47 21.36,52.48   "/>
		<polygon class="st11" points="28.72,52.48 31.02,52.48 31.02,61.47 28.72,61.47 28.72,52.48   "/>
		<polygon class="st11" points="36.09,52.48 38.39,52.48 38.39,61.47 36.09,61.47 36.09,52.48   "/>
		<polygon class="st11" points="21.36,64.85 23.65,64.85 23.65,73.9 21.36,73.9 21.36,64.85   "/>
		<polygon class="st11" points="28.72,64.85 31.02,64.85 31.02,73.9 28.72,73.9 28.72,64.85   "/>
		<polygon class="st11" points="36.09,64.85 38.39,64.85 38.39,73.9 36.09,73.9 36.09,64.85   "/>
		<polygon class="st11" points="21.36,78.55 23.65,78.55 23.65,87.6 21.36,87.6 21.36,78.55   "/>
		<polygon class="st11" points="28.72,78.55 31.02,78.55 31.02,87.6 28.72,87.6 28.72,78.55   "/>
		<polygon class="st11" points="36.09,78.55 38.39,78.55 38.39,87.6 36.09,87.6 36.09,78.55   "/>
		<polyline class="st11" points="84.09,66.24 83.43,65.15 82.94,64.01 82.58,62.8 82.4,61.53 82.34,60.26 82.46,59 82.7,57.79     83.12,56.58 83.73,55.5 84.39,54.41 85.24,53.44 86.14,52.6 87.17,51.88 88.26,51.27 89.46,50.85 90.67,50.55 91.94,50.37     93.21,50.37 94.41,50.55 95.68,50.85 96.83,51.33 97.92,51.94 98.94,52.66 99.91,53.5 100.69,54.47 101.42,55.5 101.96,56.64     102.38,57.85 102.63,59.06 102.75,60.32 102.69,61.59 102.51,62.8 102.14,64.01 101.66,65.15 101,66.24 100.21,67.26     100.21,67.33 101,68.35 101.72,69.5 102.26,70.7 102.69,71.97 102.93,73.3 103.05,74.57 102.99,75.9 102.81,77.22 102.45,78.49     101.96,79.76 101.3,80.9 100.57,81.99 99.67,83.02 98.7,83.86 97.61,84.65 96.41,85.25 95.2,85.73 93.87,86.09 92.6,86.28     91.28,86.34 89.95,86.22 88.62,85.97 87.35,85.55 86.14,84.95 85.06,84.28 83.97,83.44 83.06,82.53 82.22,81.51 81.49,80.36     80.95,79.15 80.53,77.89 80.23,76.62 80.11,75.29 80.17,73.96 80.35,72.64 80.65,71.37 81.13,70.1 81.74,68.95 82.52,67.87     83.37,66.84 84.39,65.94 85.42,65.15 86.63,64.55 87.83,64.01 89.1,63.64 90.43,63.46 91.76,63.4   "/>
		<line class="st11" x1="92.6" y1="86.34" x2="92.6" y2="94.48"/>
		<line class="st11" x1="8.32" y1="16.87" x2="26.79" y2="16.87"/>
		<polyline class="st11" points="9.71,7.58 8.86,7.46 8.02,7.52 7.17,7.7 6.39,8 5.66,8.48 5,9.09 4.51,9.81 4.15,10.6 3.91,11.44     3.85,12.29 3.97,13.19 4.21,13.98 4.57,14.76 5.12,15.48 5.78,16.03 6.51,16.51 7.29,16.81 8.2,16.99 9.04,16.99 9.89,16.81   "/>
		<polyline class="st11" points="26.01,16.81 26.85,16.99 27.7,16.99 28.54,16.81 29.39,16.51 30.11,16.09 30.78,15.48 31.26,14.82     31.68,14.04 31.92,13.19 32.05,12.35 31.99,11.5 31.8,10.66 31.44,9.87 30.96,9.15 30.29,8.54 29.63,8.06 28.85,7.7 28,7.52     27.09,7.46 26.25,7.58 25.4,7.82   "/>
		<polyline class="st11" points="25.4,7.82 25.16,6.73 24.74,5.65 24.26,4.68 23.59,3.78 22.81,2.99 21.9,2.33 20.94,1.72     19.91,1.36 18.76,1.12 17.68,1 16.59,1.06 15.44,1.3 14.42,1.66 13.39,2.15 12.48,2.81 11.7,3.6 11.03,4.5 10.43,5.47 10.01,6.49     9.77,7.58   "/>
	</g>
</g>
<g id="Guias" class="st25">
</g>
</svg>