<?xml version="1.0" encoding="utf-8"?>
<!-- Generator: Adobe Illustrator 23.1.0, SVG Export Plug-In . SVG Version: 6.00 Build 0)  -->
<svg version="1.1" id="Layer_1" xmlns="http://www.w3.org/2000/svg" xmlns:xlink="http://www.w3.org/1999/xlink" x="0px" y="0px"
	 viewBox="0 0 75 87" style="enable-background:new 0 0 75 87;" xml:space="preserve">
<style type="text/css">
	.st0{fill:#FFFFFF;}
</style>
<g>
	<path class="st0" d="M33.58,32.33l1.39-1.11c0.35-0.28,0.48-0.75,0.33-1.17c-0.03-0.07-0.05-0.15-0.07-0.22
		c-0.17-0.66-0.05-1.22,0.4-1.77c1.4-1.73,1.11-3.63,0.5-4.93c-0.29-0.62-1.08-0.79-1.61-0.35l-1.1,0.93l-0.01-0.01
		c0.12,0.15,1.16,1.5,0.17,2.72C31.71,28.74,32.76,31.3,33.58,32.33"/>
	<path class="st0" d="M39.32,32.33l1.39-1.11c0.35-0.28,0.48-0.75,0.33-1.17c-0.03-0.07-0.05-0.15-0.07-0.22
		c-0.17-0.66-0.05-1.22,0.4-1.77c1.4-1.73,1.11-3.63,0.5-4.93c-0.29-0.62-1.08-0.79-1.61-0.35l-0.44,0.37
		c-0.35,0.3-0.47,0.79-0.28,1.21c0.04,0.09,0.08,0.19,0.11,0.29c0.21,0.67,0.11,1.24-0.32,1.77C37.45,28.74,38.5,31.3,39.32,32.33"
		/>
	<path class="st0" d="M21.31,35.55h31.61c0.57,0,1.04,0.46,1.04,1.04v3.1c0,0.57-0.46,1.04-1.04,1.04H21.31
		c-0.57,0-1.04-0.46-1.04-1.04v-3.1C20.27,36.01,20.74,35.55,21.31,35.55"/>
	<path class="st0" d="M31.48,56.56l-2.69,8.88c-0.2,0.67,0.3,1.33,0.99,1.33h14.64c0.69,0,1.19-0.67,0.99-1.33l-2.42-7.99
		c-0.15-0.5,0.09-1.03,0.57-1.24c4.65-2.13,8.07-6.47,8.92-11.66c0.1-0.63-0.38-1.21-1.02-1.21H22.74c-0.64,0-1.13,0.58-1.02,1.21
		C22.62,50.05,26.41,54.6,31.48,56.56 M38.42,63.12v-4.63c0-0.52,0.39-0.95,0.9-1.03c0.01,0,0.01,0,0.02,0
		c0.51-0.07,1,0.23,1.15,0.72l1.4,4.64c0.2,0.67-0.3,1.33-0.99,1.33h-1.44C38.89,64.15,38.42,63.69,38.42,63.12 M34.7,47.01h4.82
		c0.57,0,1.04,0.46,1.04,1.04v0.55c0,0.57-0.46,1.03-1.04,1.03H34.7c-0.57,0-1.04-0.46-1.04-1.03v-0.55
		C33.67,47.48,34.13,47.01,34.7,47.01 M34.88,57.46c0.01,0,0.01,0,0.02,0c0.51,0.07,0.9,0.51,0.9,1.03v4.63
		c0,0.57-0.46,1.04-1.04,1.04h-1.44c-0.69,0-1.19-0.67-0.99-1.33l1.4-4.64C33.88,57.69,34.37,57.38,34.88,57.46"/>
</g>
</svg>
