<?xml version="1.0" encoding="utf-8"?>
<!-- Generator: Adobe Illustrator 23.1.0, SVG Export Plug-In . SVG Version: 6.00 Build 0)  -->
<svg version="1.1" id="Layer_1" xmlns="http://www.w3.org/2000/svg" xmlns:xlink="http://www.w3.org/1999/xlink" x="0px" y="0px"
	 viewBox="0 0 75 87" style="enable-background:new 0 0 75 87;" xml:space="preserve">
<style type="text/css">
	.st0{fill:#FFFFFF;}
</style>
<g>
	<path class="st0" d="M24.41,66.92h9.77v-9.99h5.87v9.99h9.77V22.19H24.41V66.92z M38.89,27.46h5.87v5.87h-5.87V27.46z M38.89,36.9
		h5.87v5.87h-5.87V36.9z M38.89,46.34h5.87v5.87h-5.87V46.34z M29.46,27.46h5.87v5.87h-5.87V27.46z M29.46,36.9h5.87v5.87h-5.87
		V36.9z M29.46,46.34h5.87v5.87h-5.87V46.34z"/>
	<path class="st0" d="M52.1,26.2v31.63h3.77v9.1h8.89V26.2H52.1z M60.17,53.53h-5.35v-5.35h5.35V53.53z M60.17,44.94h-5.35v-5.35
		h5.35V44.94z M60.17,36.34h-5.35V31h5.35V36.34z"/>
	<path class="st0" d="M9.46,66.92h8.9v-9.1h3.77V26.2H9.46V66.92z M14.06,31h5.35v5.35h-5.35V31z M14.06,39.59h5.35v5.35h-5.35
		V39.59z M14.06,48.18h5.35v5.35h-5.35V48.18z"/>
</g>
</svg>
