<?xml version="1.0" encoding="utf-8"?>
<!-- Generator: Adobe Illustrator 23.1.0, SVG Export Plug-In . SVG Version: 6.00 Build 0)  -->
<svg version="1.1" id="Layer_1" xmlns="http://www.w3.org/2000/svg" xmlns:xlink="http://www.w3.org/1999/xlink" x="0px" y="0px"
	 viewBox="0 0 75 87" style="enable-background:new 0 0 75 87;" xml:space="preserve">
<style type="text/css">
	.st0{fill:#FFFFFF;}
</style>
<g>
	<path class="st0" d="M56.15,54.16c-0.51,0.59-1.26,0.93-2.04,0.93c-0.78,0-1.53-0.34-2.04-0.93c-1.61-1.85-3.98-3.03-6.64-3.03
		c-2.64,0-4.99,1.15-6.6,2.98c-0.51,0.58-1.25,0.91-2.03,0.91c-0.77,0-1.51-0.33-2.03-0.91c-1.62-1.82-3.96-2.98-6.6-2.98
		c-2.64,0-4.99,1.15-6.6,2.98c-0.52,0.58-1.25,0.91-2.03,0.91c-0.77,0-1.51-0.33-2.03-0.9c-1.28-1.45-3.01-2.44-4.99-2.81v5.35
		c0.42,0.21,0.81,0.49,1.14,0.86c1.49,1.67,3.63,2.63,5.87,2.63c2.24,0,4.38-0.96,5.86-2.64c0.72-0.8,1.7-1.24,2.76-1.24
		c1.07,0,2.05,0.44,2.76,1.24c1.48,1.68,3.63,2.65,5.87,2.65c2.24,0,4.38-0.97,5.87-2.65c0.71-0.8,1.69-1.24,2.75-1.24
		c1.45,0,2.36,0.79,2.78,1.26c1.49,1.71,3.64,2.69,5.92,2.69c2.26-0.01,4.42-0.99,5.91-2.69c0.29-0.34,0.85-0.83,1.66-1.09v-5.2
		C59.49,51.53,57.54,52.57,56.15,54.16"/>
	<path class="st0" d="M57.04,42.8c0,3.5-2.84,6.34-6.34,6.34c-3.5,0-6.34-2.84-6.34-6.34c0-3.49,2.84-6.33,6.34-6.33
		C54.21,36.47,57.04,39.31,57.04,42.8"/>
	<path class="st0" d="M36.05,52.97c0.37,0.42,1.11,0.42,1.48,0c1.62-1.83,3.82-3.01,6.19-3.4c0.16-0.96,0.11-1.98-0.24-2.97
		c-0.18-0.52-2.2-7.29-2.2-7.29c0-0.02-0.25-1.41,0.61-2.67c0.85-1.24,2.63-2.1,5.14-2.47c1.4-0.21,2.37-1.51,2.16-2.91
		c-0.21-1.41-1.51-2.38-2.93-2.17c-4.01,0.6-6.91,2.17-8.61,4.65c-2.12,3.09-1.47,6.34-1.38,6.75l0.55,2.21
		c-0.34,0.06-0.67,0.12-0.99,0.24L25.47,46.6c-2.32,0.83-3.82,2.93-3.98,5.23c1.87-1.54,4.23-2.42,6.68-2.42
		C31.18,49.41,34.05,50.71,36.05,52.97"/>
</g>
</svg>
