<?xml version="1.0" encoding="utf-8"?>
<!-- Generator: Adobe Illustrator 23.1.0, SVG Export Plug-In . SVG Version: 6.00 Build 0)  -->
<svg version="1.1" id="Layer_1" xmlns="http://www.w3.org/2000/svg" xmlns:xlink="http://www.w3.org/1999/xlink" x="0px" y="0px"
	 viewBox="0 0 75 87" style="enable-background:new 0 0 75 87;" xml:space="preserve">
<style type="text/css">
	.st0{fill:#FFFFFF;}
</style>
<g>
	<path class="st0" d="M45.56,7.27C26.45,2.19,9.12,15.9,9.04,33.88c-0.07,15.1,7.41,26.41,16.5,36.91
		c11.58,13.37,12.18,13.35,23.87-0.02c8.88-10.15,16.54-21.21,16.45-37.1C67.06,22.72,57.41,10.42,45.56,7.27 M58.94,39.42
		C56.3,52.31,48.48,62.09,40.12,71.58c-1.27,1.44-2.72,2.76-4.55,0.76c-9.94-10.9-18.95-22.3-20.27-37.84
		c0.76-8.77,4.59-15.61,12.56-19.52c8.49-4.16,16.81-2.97,23.82,3.09C58.06,23.55,60.7,30.8,58.94,39.42"/>
	<path class="st0" d="M37.65,22.27c-7.44-0.06-13.41,5.63-13.44,12.79c-0.02,6.07,7.04,12.87,13.31,12.82
		c6.09-0.05,13.31-7.21,13.14-13.03C50.47,27.82,44.79,22.33,37.65,22.27 M37.81,40.57c-3.84,0.17-6.22-2.1-6.3-5.86
		c-0.07-3.46,2.34-5.85,5.61-6.08c3.76-0.26,5.63,2.51,6.46,5.75C43.11,38.05,41.34,40.41,37.81,40.57"/>
</g>
</svg>
