<?xml version="1.0" encoding="utf-8"?>
<!-- Generator: Adobe Illustrator 23.1.0, SVG Export Plug-In . SVG Version: 6.00 Build 0)  -->
<svg version="1.1" id="Layer_1" xmlns="http://www.w3.org/2000/svg" xmlns:xlink="http://www.w3.org/1999/xlink" x="0px" y="0px"
	 viewBox="0 0 75 87" style="enable-background:new 0 0 75 87;" xml:space="preserve">
<style type="text/css">
	.st0{fill:#FFFFFF;}
</style>
<path class="st0" d="M68.33,63.24h-0.98V28.82c0-0.26-0.1-0.51-0.29-0.7l-7.87-7.87c-0.18-0.18-0.43-0.29-0.7-0.29H5.89
	c-0.54,0-0.98,0.44-0.98,0.98v5.9c0,0.54,0.44,0.98,0.98,0.98h45.72v3.93c0,0.26,0.1,0.51,0.29,0.69l4.92,4.92
	c0.18,0.18,0.43,0.29,0.7,0.29h7.87v25.56H64.4c-0.54,0-0.98,0.44-0.98,0.98v2.95h-7.98c1.08-1.06,1.78-2.44,2-3.93h3.03
	c1.63,0,2.95-1.32,2.95-2.95v-7.87c0-3.8-3.08-6.88-6.88-6.88h-3.47L44.7,35.51c-0.93-1.12-2.32-1.77-3.78-1.77H20.58
	c-1.84,0-3.53,1.02-4.37,2.66l-4.49,8.68c-0.93,2.11-1.4,4.39-1.4,6.7v8.51c0,1.63,1.32,2.95,2.95,2.95h3.03
	c0.21,1.5,0.92,2.88,2,3.93h-4.04v1.97h55.06v-4.92C69.31,63.68,68.87,63.24,68.33,63.24 M57.92,35.71l-4.34-4.34v-3.53h4.51
	l7.29,7.29v0.58H57.92z M50.63,67.17c-2.71,0-4.92-2.2-4.92-4.92s2.2-4.92,4.92-4.92c2.72,0,4.92,2.2,4.92,4.92
	C55.54,64.97,53.34,67.17,50.63,67.17 M61.45,52.42v0.98h-3.93v-1.97h3.84C61.41,51.76,61.45,52.09,61.45,52.42 M56.53,47.51
	c1.54,0,2.99,0.73,3.91,1.97h-2.92c-1.09,0-1.97,0.88-1.97,1.97v1.97c0,1.09,0.88,1.97,1.97,1.97h3.93v1.97H58.5v1.97h2.95v0.98
	c0,0.54-0.44,0.98-0.98,0.98h-3.03c-0.54-3.76-4.02-6.37-7.78-5.83c-3.02,0.43-5.39,2.81-5.83,5.83h-5.98V47.51H56.53z M37.85,39.64
	h7.73l4.92,5.9l-12.65,0.02V39.64z M35.88,45.57l-16.51,0.03l1.35-5.21c0.11-0.43,0.5-0.74,0.95-0.74h14.21V45.57z M12.29,60.29
	V59.3h2.95v-1.97h-2.95v-5.56c-0.01-2.01,0.41-4.01,1.21-5.85l4.46-8.63c0.5-0.98,1.52-1.6,2.62-1.59h20.35
	c0.87,0,1.7,0.39,2.26,1.06l0.76,0.9H21.67c-1.34,0-2.52,0.91-2.85,2.21l-1.37,5.27c-0.21,1.06,0.48,2.1,1.54,2.31
	c0.13,0.02,0.26,0.04,0.39,0.04h16.5v13.77H29.9c-0.54-3.76-4.02-6.37-7.78-5.83c-3.02,0.43-5.39,2.81-5.83,5.83h-3.03
	C12.72,61.27,12.29,60.83,12.29,60.29 M18.18,62.25c0-2.71,2.2-4.92,4.92-4.92c2.71,0,4.92,2.2,4.92,4.92s-2.2,4.92-4.92,4.92
	C20.39,67.17,18.19,64.97,18.18,62.25 M27.91,67.17c1.08-1.06,1.78-2.44,2-3.93h13.92c0.21,1.5,0.92,2.88,2,3.93H27.91z M65.38,65.2
	h1.97v1.97h-1.97V65.2z"/>
</svg>
