<?xml version="1.0" encoding="utf-8"?>
<!-- Generator: Adobe Illustrator 23.1.0, SVG Export Plug-In . SVG Version: 6.00 Build 0)  -->
<svg version="1.1" id="Layer_1" xmlns="http://www.w3.org/2000/svg" xmlns:xlink="http://www.w3.org/1999/xlink" x="0px" y="0px"
	 viewBox="0 0 75 87" style="enable-background:new 0 0 75 87;" xml:space="preserve">
<style type="text/css">
	.st0{fill:#FFFFFF;}
</style>
<g>
	<path class="st0" d="M47.32,21.2H26.57c-1.52,0-2.74,1.38-2.74,3.09v40.53c0,1.71,1.22,3.09,2.74,3.09h20.75
		c1.52,0,2.75-1.38,2.75-3.09V24.29C50.07,22.59,48.84,21.2,47.32,21.2 M47.33,63.72c0,0.89-0.62,1.61-1.41,1.61H27.96
		c-0.79,0-1.45-0.72-1.45-1.61V27.89c0-0.89,0.66-1.62,1.45-1.62h17.96c0.79,0,1.41,0.73,1.41,1.62V63.72z"/>
	<path class="st0" d="M61.35,41.94l-4.15-4.15c-0.48-0.48-1.26-0.48-1.74,0l-4.15,4.15c-0.4,0.39-0.47,1.01-0.19,1.49
		c0.28,0.48,0.86,0.71,1.4,0.56l1.85-0.52v6.98c0,0.68,0.54,1.23,1.22,1.23h1.5c0.68,0,1.21-0.55,1.21-1.23v-6.98l1.85,0.51
		c0.54,0.15,1.11-0.08,1.4-0.56C61.82,42.95,61.75,42.33,61.35,41.94"/>
	<path class="st0" d="M21.73,45.2l-1.83,0.52v-7.75c0-0.68-0.57-1.21-1.25-1.21h-1.5c-0.68,0-1.23,0.53-1.23,1.21v7.75l-1.85-0.52
		c-0.54-0.15-1.11,0.08-1.39,0.56c-0.28,0.48-0.2,1.1,0.19,1.49l4.15,4.15c0.48,0.48,1.26,0.48,1.74,0l4.15-4.15
		c0.4-0.39,0.48-1,0.2-1.49C22.84,45.29,22.27,45.05,21.73,45.2"/>
	<path class="st0" d="M41.68,38.52c-0.12-1.3-1.21-2.28-2.51-2.28h-4.45c-1.3,0-2.39,0.98-2.51,2.28l-0.81,8.67
		c-0.01,0.21,0.06,0.42,0.21,0.58c0.14,0.16,0.35,0.24,0.56,0.24h1.52l0.03,14.02c0,0.43,0.38,0.75,0.8,0.75h1.29
		c0.43,0,0.77-0.32,0.77-0.75V50.4c0-0.2,0.17-0.32,0.37-0.32c0.2,0,0.35,0.13,0.35,0.32v11.65c0,0.43,0.33,0.75,0.76,0.75h1.29
		c0.42,0,0.79-0.32,0.79-0.75V48.02h1.56c0.21,0,0.42-0.09,0.56-0.24c0.15-0.16,0.22-0.36,0.21-0.57L41.68,38.52z"/>
	<path class="st0" d="M36.94,28.75c1.76,0,3.19,1.43,3.19,3.19c0,1.76-1.43,3.19-3.19,3.19c-1.76,0-3.19-1.43-3.19-3.19
		C33.75,30.18,35.18,28.75,36.94,28.75"/>
</g>
</svg>
