<?xml version="1.0" encoding="utf-8"?>
<!-- Generator: Adobe Illustrator 23.1.0, SVG Export Plug-In . SVG Version: 6.00 Build 0)  -->
<svg version="1.1" xmlns="http://www.w3.org/2000/svg" xmlns:xlink="http://www.w3.org/1999/xlink" x="0px" y="0px"
	 viewBox="0 0 267 203" style="enable-background:new 0 0 267 203;" xml:space="preserve">
<style type="text/css">
	.st0{clip-path:url(#SVGID_6_);}
	.st1{clip-path:url(#SVGID_6_);fill:#E8B63A;}
	.st2{fill:#282828;}
	.st3{fill:#FFFFFF;}
	.st4{fill:none;stroke:#FFFFFF;stroke-width:0.7;stroke-linecap:round;stroke-linejoin:round;stroke-miterlimit:10;}
	.st5{stroke:#FFFFFF;stroke-width:0.7;stroke-linecap:round;stroke-linejoin:round;stroke-miterlimit:10;}
	.st6{fill:none;stroke:#FFFFFF;stroke-width:0.5;stroke-miterlimit:10;}
	.st7{fill:#2D2D2D;}
	.st8{fill:#FFFFFF;stroke:#282828;stroke-width:0.7495;stroke-linecap:round;stroke-linejoin:round;stroke-miterlimit:10;}
	.st9{fill:none;}
	.st10{fill:none;stroke:#CE509A;stroke-width:2;stroke-miterlimit:10;}
	.st11{fill:none;stroke:#F0BE28;stroke-width:2;stroke-linecap:round;stroke-linejoin:round;stroke-miterlimit:10;}
	.st12{fill:none;stroke:#0091D2;stroke-width:2;stroke-linecap:round;stroke-linejoin:round;stroke-miterlimit:10;}
	.st13{fill:#0091D2;}
	.st14{clip-path:url(#SVGID_80_);}
	.st15{clip-path:url(#SVGID_80_);fill:none;}
	.st16{fill:none;stroke:#000000;stroke-width:0.7;stroke-linecap:round;stroke-linejoin:round;stroke-miterlimit:10;}
	.st17{clip-path:url(#SVGID_100_);}
	.st18{fill:none;stroke:#FFFFFF;stroke-width:2.4434;stroke-miterlimit:10;}
	.st19{clip-path:url(#SVGID_104_);fill:#2D2D2D;}
	.st20{clip-path:url(#SVGID_104_);}
	.st21{fill:#FFFFFF;stroke:#282828;stroke-width:1.8314;stroke-linecap:round;stroke-linejoin:round;stroke-miterlimit:10;}
	.st22{fill:#0E8DCD;}
	.st23{fill:#CE0F80;}
	.st24{fill:#A7BD17;}
	.st25{display:none;}
	.st26{display:inline;}
	.st27{fill:none;stroke:#CE0F80;stroke-width:2.1205;stroke-linecap:round;stroke-linejoin:round;stroke-miterlimit:10;}
	
		.st28{display:inline;fill:none;stroke:#CE0F80;stroke-width:2.1205;stroke-linecap:round;stroke-linejoin:round;stroke-miterlimit:10;}
</style>
<g id="Capa_1">
	<rect x="-1486.25" y="-939.45" class="st9" width="2788.49" height="1501.5"/>
	<rect x="-1453" y="-918" class="st9" width="2722" height="1480.05"/>
	<g>
		<g id="XMLID_299_">
			<path id="XMLID_321_" class="st3" d="M123.93,20.39c8.77,0,16.72,3.56,22.47,9.31c5.75,5.75,9.31,13.69,9.31,22.46
				c0,8.78-3.56,16.72-9.31,22.47c-5.75,5.75-13.69,9.3-22.47,9.3c-8.77,0-16.72-3.55-22.46-9.3c-5.76-5.75-9.31-13.69-9.31-22.47
				c0-8.77,3.56-16.71,9.31-22.46C107.21,23.96,115.15,20.39,123.93,20.39L123.93,20.39z M145.03,31.07
				c-5.4-5.4-12.86-8.74-21.1-8.74c-8.24,0-15.7,3.34-21.1,8.74c-5.4,5.4-8.74,12.86-8.74,21.1c0,8.24,3.34,15.7,8.74,21.1
				c5.4,5.4,12.86,8.74,21.1,8.74c8.24,0,15.7-3.34,21.1-8.74c5.4-5.4,8.74-12.86,8.74-21.1C153.77,43.93,150.43,36.47,145.03,31.07
				z"/>
			<path id="XMLID_318_" class="st3" d="M129.84,21.21c8.77,0,16.72,3.56,22.46,9.31c5.75,5.75,9.31,13.69,9.31,22.47
				c0,8.77-3.56,16.72-9.31,22.47c-5.75,5.75-13.69,9.31-22.46,9.31c-8.77,0-16.72-3.56-22.46-9.31
				c-5.75-5.75-9.31-13.69-9.31-22.47c0-8.77,3.56-16.72,9.31-22.47C113.13,24.77,121.07,21.21,129.84,21.21L129.84,21.21z
				 M150.94,31.88c-5.4-5.4-12.86-8.74-21.1-8.74c-8.24,0-15.7,3.34-21.1,8.74c-5.4,5.4-8.74,12.86-8.74,21.1
				c0,8.24,3.34,15.7,8.74,21.1c5.4,5.4,12.86,8.74,21.1,8.74c8.24,0,15.7-3.34,21.1-8.74c5.4-5.4,8.74-12.86,8.74-21.1
				C159.69,44.75,156.34,37.28,150.94,31.88z"/>
			<path id="XMLID_315_" class="st3" d="M131.77,16.11c12.44,0,23.71,5.05,31.87,13.2c8.16,8.16,13.2,19.43,13.2,31.87
				c0,12.44-5.05,23.71-13.2,31.87c-8.16,8.16-19.43,13.2-31.87,13.2c-12.44,0-23.71-5.05-31.87-13.2
				c-8.16-8.16-13.2-19.42-13.2-31.87c0-12.44,5.05-23.71,13.2-31.87C108.06,21.16,119.33,16.11,131.77,16.11L131.77,16.11z
				 M162.27,30.68c-7.81-7.81-18.59-12.64-30.5-12.64c-11.91,0-22.7,4.83-30.51,12.64c-7.81,7.8-12.63,18.59-12.63,30.5
				c0,11.91,4.83,22.7,12.63,30.5c7.81,7.81,18.6,12.64,30.51,12.64c11.91,0,22.69-4.83,30.5-12.64c7.81-7.8,12.64-18.59,12.64-30.5
				C174.91,49.27,170.08,38.48,162.27,30.68z"/>
			<path id="XMLID_312_" class="st3" d="M136.85,8.76c14.96,0,28.51,6.07,38.31,15.87c9.8,9.81,15.87,23.36,15.87,38.32
				c0,14.96-6.07,28.51-15.87,38.32c-9.81,9.81-23.35,15.87-38.31,15.87c-14.96,0-28.51-6.07-38.31-15.87
				c-9.81-9.81-15.88-23.35-15.88-38.32c0-14.96,6.07-28.51,15.88-38.32C108.34,14.83,121.89,8.76,136.85,8.76L136.85,8.76z
				 M173.81,26c-9.46-9.46-22.52-15.31-36.95-15.31c-14.43,0-27.49,5.85-36.95,15.31c-9.46,9.46-15.31,22.52-15.31,36.95
				c0,14.43,5.85,27.49,15.31,36.95c9.46,9.46,22.52,15.31,36.95,15.31c14.43,0,27.49-5.85,36.95-15.31
				c9.45-9.46,15.31-22.52,15.31-36.95C189.11,48.53,183.26,35.46,173.81,26z"/>
			<path id="XMLID_309_" class="st3" d="M130.96,9.3c15.15,0,28.86,6.14,38.8,16.07c9.93,9.93,16.07,23.65,16.07,38.79
				c0,15.15-6.14,28.86-16.07,38.8c-9.93,9.93-23.65,16.07-38.8,16.07c-15.15,0-28.86-6.14-38.79-16.07
				C82.24,93.03,76.1,79.32,76.1,64.17c0-15.15,6.14-28.87,16.07-38.79C102.1,15.44,115.81,9.3,130.96,9.3L130.96,9.3z
				 M168.39,26.74c-9.58-9.58-22.82-15.51-37.43-15.51c-14.62,0-27.85,5.92-37.43,15.51c-9.58,9.58-15.51,22.81-15.51,37.43
				c0,14.61,5.93,27.85,15.51,37.43c9.58,9.58,22.82,15.51,37.43,15.51c14.61,0,27.85-5.93,37.43-15.51
				c9.58-9.58,15.51-22.82,15.51-37.43C183.9,49.55,177.98,36.32,168.39,26.74z"/>
			<path id="XMLID_306_" class="st3" d="M133.69,12.57c12.2,0,23.25,4.94,31.25,12.94c8,8,12.94,19.04,12.94,31.24
				c0,12.2-4.95,23.25-12.94,31.25c-8,7.99-19.05,12.95-31.25,12.95c-12.2,0-23.25-4.95-31.25-12.95c-8-8-12.94-19.05-12.94-31.25
				c0-12.2,4.95-23.25,12.94-31.24C110.44,17.52,121.49,12.57,133.69,12.57L133.69,12.57z M163.57,26.88
				c-7.65-7.65-18.21-12.38-29.89-12.38c-11.67,0-22.23,4.73-29.88,12.38c-7.65,7.65-12.38,18.21-12.38,29.88
				c0,11.67,4.73,22.24,12.38,29.88c7.65,7.65,18.22,12.38,29.88,12.38c11.67,0,22.24-4.73,29.89-12.38
				c7.65-7.65,12.38-18.21,12.38-29.88C175.95,45.09,171.22,34.53,163.57,26.88z"/>
			<path id="XMLID_303_" class="st3" d="M130.66,5.32c13,0,24.77,5.27,33.29,13.79c8.52,8.52,13.79,20.29,13.79,33.29
				c0,13-5.27,24.77-13.79,33.29c-8.52,8.52-20.29,13.79-33.29,13.79c-13,0-24.76-5.27-33.29-13.79
				c-8.52-8.52-13.79-20.29-13.79-33.29c0-13,5.27-24.77,13.79-33.29C105.89,10.59,117.66,5.32,130.66,5.32L130.66,5.32z
				 M162.58,20.47c-8.17-8.17-19.46-13.23-31.93-13.23c-12.47,0-23.75,5.05-31.92,13.23c-8.17,8.17-13.23,19.46-13.23,31.92
				c0,12.46,5.06,23.75,13.23,31.92c8.17,8.17,19.46,13.23,31.92,13.23c12.47,0,23.76-5.06,31.93-13.23
				c8.17-8.17,13.22-19.46,13.22-31.92C175.81,39.93,170.75,28.64,162.58,20.47z"/>
			<path id="XMLID_300_" class="st3" d="M131.14,15.5c13.95,0,26.58,5.65,35.72,14.8c9.14,9.14,14.8,21.77,14.8,35.72
				c0,13.95-5.66,26.58-14.8,35.72c-9.14,9.14-21.77,14.8-35.72,14.8c-13.95,0-26.58-5.66-35.72-14.8
				c-9.14-9.14-14.8-21.77-14.8-35.72c0-13.95,5.66-26.58,14.8-35.72C104.56,21.15,117.19,15.5,131.14,15.5L131.14,15.5z
				 M165.49,31.66c-8.8-8.79-20.94-14.23-34.36-14.23c-13.42,0-25.56,5.44-34.35,14.23c-8.79,8.8-14.23,20.94-14.23,34.36
				c0,13.41,5.44,25.56,14.23,34.35c8.79,8.8,20.94,14.24,34.35,14.24c13.41,0,25.56-5.44,34.36-14.24
				c8.79-8.79,14.23-20.94,14.23-34.35C179.73,52.6,174.29,40.45,165.49,31.66z"/>
		</g>
		<path id="XMLID_290_" class="st3" d="M64.49,154.78h1.75v-21.03h0.08l10.9,21.03h1.75l10.78-21.03h0.08v21.03h1.74v-22.75h-2.49
			l-10.94,21.19h-0.08l-11.06-21.19h-2.5V154.78L64.49,154.78z M122.19,143.4c0-1.66-0.3-3.21-0.91-4.67
			c-0.61-1.45-1.49-2.72-2.63-3.79c-1.15-1.07-2.56-1.92-4.22-2.54c-1.67-0.62-3.55-0.92-5.67-0.92c-2.11,0-4.01,0.31-5.69,0.92
			c-1.68,0.62-3.09,1.46-4.24,2.54c-1.15,1.07-2.03,2.34-2.64,3.79c-0.6,1.46-0.91,3.01-0.91,4.67c0,1.66,0.3,3.21,0.91,4.67
			c0.61,1.45,1.49,2.72,2.64,3.79c1.15,1.07,2.56,1.92,4.24,2.53c1.68,0.62,3.58,0.92,5.69,0.92c2.11,0,4-0.31,5.67-0.92
			c1.66-0.61,3.07-1.46,4.22-2.53c1.15-1.07,2.03-2.34,2.63-3.79C121.89,146.61,122.19,145.06,122.19,143.4L122.19,143.4z
			 M97.03,143.4c0-1.47,0.26-2.85,0.79-4.14c0.53-1.3,1.3-2.43,2.3-3.39c1-0.97,2.23-1.74,3.69-2.31c1.45-0.57,3.11-0.86,4.96-0.86
			c1.85,0,3.49,0.29,4.93,0.86c1.44,0.57,2.66,1.34,3.67,2.31c1,0.97,1.77,2.1,2.3,3.39c0.53,1.29,0.79,2.67,0.79,4.14
			c0,1.47-0.26,2.85-0.79,4.14c-0.53,1.3-1.29,2.43-2.3,3.39c-1,0.97-2.23,1.74-3.67,2.31c-1.44,0.57-3.08,0.86-4.93,0.86
			c-1.85,0-3.5-0.29-4.96-0.86c-1.45-0.57-2.68-1.34-3.69-2.31c-1-0.96-1.77-2.1-2.3-3.39C97.29,146.25,97.03,144.87,97.03,143.4
			L97.03,143.4z M127.66,133.24h7.26c0.69,0,1.46,0.04,2.32,0.11c0.86,0.07,1.72,0.23,2.58,0.46c0.85,0.23,1.69,0.57,2.5,1
			c0.8,0.44,1.52,1.03,2.14,1.78c0.62,0.75,1.12,1.68,1.51,2.79c0.38,1.1,0.57,2.43,0.57,3.98c0,1.98-0.34,3.62-1.01,4.92
			c-0.68,1.31-1.55,2.35-2.64,3.12c-1.08,0.78-2.29,1.33-3.63,1.65c-1.33,0.33-2.66,0.5-3.98,0.5h-7.61V133.24L127.66,133.24z
			 M125.92,154.78h9.2c2.27,0,4.23-0.29,5.89-0.88c1.65-0.58,3.02-1.39,4.1-2.4c1.08-1.02,1.88-2.23,2.4-3.62
			c0.51-1.39,0.77-2.89,0.77-4.51c0-1.44-0.21-2.85-0.62-4.21c-0.41-1.36-1.11-2.57-2.12-3.63c-1.01-1.06-2.35-1.91-4.02-2.55
			c-1.68-0.64-3.79-0.96-6.32-0.96h-9.27V154.78L125.92,154.78z M178,143.4c0-1.66-0.3-3.21-0.91-4.67
			c-0.61-1.45-1.49-2.72-2.64-3.79c-1.15-1.07-2.55-1.92-4.22-2.54c-1.66-0.62-3.55-0.92-5.67-0.92c-2.11,0-4.01,0.31-5.69,0.92
			c-1.68,0.62-3.09,1.46-4.24,2.54c-1.15,1.07-2.03,2.34-2.64,3.79c-0.61,1.46-0.91,3.01-0.91,4.67c0,1.66,0.3,3.21,0.91,4.67
			c0.61,1.45,1.49,2.72,2.64,3.79c1.15,1.07,2.56,1.92,4.24,2.53c1.68,0.62,3.58,0.92,5.69,0.92c2.11,0,4-0.31,5.67-0.92
			c1.67-0.61,3.07-1.46,4.22-2.53c1.15-1.07,2.03-2.34,2.64-3.79C177.69,146.61,178,145.06,178,143.4L178,143.4z M152.83,143.4
			c0-1.47,0.26-2.85,0.79-4.14c0.53-1.3,1.3-2.43,2.3-3.39c1-0.97,2.23-1.74,3.69-2.31c1.45-0.57,3.1-0.86,4.95-0.86
			c1.85,0,3.49,0.29,4.94,0.86c1.44,0.57,2.66,1.34,3.66,2.31c1,0.97,1.77,2.1,2.3,3.39c0.53,1.29,0.79,2.67,0.79,4.14
			c0,1.47-0.26,2.85-0.79,4.14c-0.53,1.3-1.3,2.43-2.3,3.39c-1,0.97-2.23,1.74-3.66,2.31c-1.44,0.57-3.09,0.86-4.94,0.86
			c-1.85,0-3.5-0.29-4.95-0.86c-1.45-0.57-2.68-1.34-3.69-2.31c-1-0.96-1.77-2.1-2.3-3.39C153.09,146.25,152.83,144.87,152.83,143.4
			L152.83,143.4z M201.93,138.53c-0.08-1.25-0.41-2.33-0.99-3.22c-0.58-0.89-1.36-1.62-2.32-2.18c-0.96-0.56-2.09-0.98-3.37-1.24
			c-1.28-0.26-2.66-0.4-4.14-0.4c-1.11,0-2.23,0.11-3.37,0.33c-1.14,0.23-2.16,0.58-3.07,1.05c-0.91,0.48-1.65,1.1-2.22,1.88
			c-0.57,0.77-0.85,1.7-0.85,2.79c0,1.09,0.27,1.97,0.83,2.66c0.56,0.69,1.28,1.25,2.18,1.69c0.9,0.44,1.93,0.78,3.09,1.04
			c1.17,0.25,2.34,0.48,3.53,0.67c1.22,0.19,2.4,0.4,3.55,0.62c1.15,0.22,2.18,0.52,3.09,0.89c0.91,0.37,1.64,0.86,2.2,1.47
			c0.55,0.61,0.83,1.39,0.83,2.34c0,1-0.27,1.83-0.81,2.49c-0.54,0.66-1.22,1.19-2.02,1.59c-0.81,0.4-1.69,0.69-2.66,0.86
			c-0.96,0.17-1.86,0.26-2.71,0.26c-1.4,0-2.73-0.12-4-0.37c-1.27-0.25-2.38-0.64-3.33-1.2c-0.95-0.55-1.69-1.26-2.2-2.12
			c-0.52-0.86-0.74-1.92-0.66-3.17h-1.74c-0.03,1.47,0.27,2.71,0.89,3.73c0.62,1.02,1.47,1.85,2.56,2.5c1.09,0.65,2.35,1.12,3.8,1.4
			c1.45,0.29,3.01,0.43,4.68,0.43c1.08,0,2.21-0.11,3.39-0.33c1.18-0.22,2.24-0.59,3.21-1.1c0.96-0.51,1.76-1.17,2.4-1.98
			c0.63-0.8,0.95-1.8,0.95-2.99c0-1.13-0.28-2.05-0.83-2.77c-0.56-0.72-1.29-1.31-2.2-1.77c-0.91-0.46-1.94-0.82-3.09-1.08
			c-1.15-0.27-2.33-0.5-3.55-0.69c-1.19-0.19-2.37-0.39-3.53-0.6c-1.16-0.21-2.19-0.5-3.09-0.85c-0.9-0.35-1.62-0.81-2.18-1.39
			c-0.55-0.57-0.83-1.32-0.83-2.23c0-0.93,0.25-1.71,0.75-2.34c0.5-0.63,1.14-1.13,1.92-1.5c0.78-0.37,1.63-0.63,2.54-0.78
			c0.91-0.15,1.76-0.22,2.55-0.22c1.3,0,2.49,0.12,3.58,0.37c1.1,0.24,2.04,0.61,2.83,1.1c0.79,0.49,1.42,1.1,1.88,1.82
			c0.47,0.72,0.72,1.57,0.77,2.55H201.93z"/>
		<g>
			<g>
				<path class="st3" d="M5.11,182.23h1.22l6.12,11.81l6.12-11.81h1.22v12.86h-0.81v-11.7h-0.04l-6.08,11.7h-0.81l-6.08-11.7H5.92
					v11.7H5.11V182.23z"/>
				<path class="st3" d="M21.88,188.71c0.3-2.32,1.46-3.13,4.2-3.13c2.63,0,4.15,0.63,4.15,2.7v5.17c0,0.68,0,1.1,0.6,1.1
					c0.26,0,0.53-0.05,0.79-0.14v0.72c-0.25,0.09-0.58,0.14-0.99,0.14c-1.11,0-1.11-0.79-1.11-2.02h-0.04
					c-1,1.89-3.12,2.13-4.3,2.13c-0.78,0-3.71,0-3.71-2.81c0-1.89,1.57-2.54,3.4-2.65l3.16-0.22c0.93-0.07,1.38-0.18,1.38-1.31
					c0-1.24-0.69-2.09-3.35-2.09c-2.38,0-3.12,0.76-3.37,2.41H21.88z M29.41,189.94h-0.04c-0.19,0.22-0.67,0.43-1.45,0.49
					l-3.05,0.22c-1.52,0.11-2.59,0.54-2.59,1.93c0,1.87,1.85,2.09,2.95,2.09c1.8,0,4.18-0.83,4.18-3.03V189.94z M28.67,181.85
					l-2.77,2.56h-0.79l2.54-2.56H28.67z"/>
				<path class="st3" d="M39.5,188.57c-0.12-1.53-1.08-2.27-3.42-2.27c-2.22,0-2.95,0.88-2.95,1.84c0,1.01,0.74,1.42,1.82,1.57
					l2.88,0.4c1.69,0.23,2.84,0.86,2.84,2.52c0,2.5-2.79,2.75-4.32,2.75c-2.49,0-4.29-0.86-4.41-3.17h0.81
					c0.11,0.95,0.3,2.45,3.81,2.45c2.38,0,3.3-0.72,3.3-2.04c0-1.06-0.76-1.53-1.82-1.67l-3.18-0.43c-1.11-0.14-2.54-0.68-2.54-2.32
					c0-1.04,0.72-2.61,3.79-2.61c3.35,0,4.09,1.55,4.2,2.99H39.5z"/>
				<path class="st3" d="M54.44,193.12h-0.04c-0.53,1.01-1.78,2.25-4,2.25c-2.75,0-4.82-1.94-4.82-4.88c0-2.61,1.64-4.92,4.82-4.92
					c2.33,0,3.58,1.21,4,2.3h0.04v-2.02h0.81v12.86h-0.81V193.12z M46.4,190.51c0,2.81,1.94,4.14,4.02,4.14
					c1.83,0,4.13-1.03,4.13-4.27c0-1.64-0.85-4.09-4.23-4.09C48.08,186.3,46.4,187.87,46.4,190.51z"/>
				<path class="st3" d="M66.12,195.09h-0.81v-1.84h-0.04c-0.56,1.1-1.75,2.13-3.81,2.13c-4.15,0-4.15-2.7-4.15-3.82v-5.69h0.81
					v5.65c0,1.87,0.69,3.13,3.35,3.13s3.83-1.69,3.83-3.4v-5.38h0.81V195.09z"/>
				<path class="st3" d="M68.47,190.66c0.05,2.3,1.59,4,4.3,4c2.8,0,3.53-1.8,3.85-2.63h0.81c-0.76,2.32-2.35,3.35-4.74,3.35
					c-3.09,0-5.03-1.91-5.03-4.97c0-1.93,1.2-4.83,5.04-4.83c3.14,0,4.94,2.13,4.97,5.08H68.47z M76.76,189.94
					c-0.34-2.52-2.06-3.64-4.15-3.64c-2.33,0-3.79,1.44-4.15,3.64H76.76z"/>
				<path class="st3" d="M83.13,182.23h9.95v0.72h-9.14v5.11h8.77v0.72h-8.77v5.58h9.24v0.72H83.13V182.23z"/>
				<path class="st3" d="M97.77,190.28l-4-4.41h1.13l3.44,3.8l3.46-3.8h1.02l-3.97,4.36l4.41,4.86h-1.13l-3.85-4.23l-3.86,4.23
					h-1.02L97.77,190.28z"/>
				<path class="st3" d="M104.13,182.23h0.81v5.47h0.04c0.56-1.1,1.75-2.13,3.81-2.13c4.14,0,4.14,2.7,4.14,3.82v5.69h-0.81v-5.65
					c0-1.87-0.69-3.13-3.35-3.13s-3.83,1.69-3.83,3.4v5.38h-0.81V182.23z"/>
				<path class="st3" d="M115.07,182.23h0.81v1.91h-0.81V182.23z M115.07,185.87h0.81v9.22h-0.81V185.87z"/>
				<path class="st3" d="M118.02,182.23h0.81v5.6h0.04c0.53-1.01,1.78-2.25,4-2.25c2.75,0,4.82,1.94,4.82,4.88
					c0,2.61-1.64,4.92-4.82,4.92c-2.33,0-3.58-1.21-4-2.3h-0.04v2.02h-0.81V182.23z M126.87,190.44c0-2.81-1.94-4.14-4.02-4.14
					c-1.83,0-4.13,1.03-4.13,4.27c0,1.64,0.85,4.09,4.23,4.09C125.2,194.65,126.87,193.09,126.87,190.44z"/>
				<path class="st3" d="M129.29,182.23h0.81v1.91h-0.81V182.23z M129.29,185.87h0.81v9.22h-0.81V185.87z"/>
				<path class="st3" d="M140.63,188.77c-0.11-1.17-1.66-2.47-3.83-2.47c-2.86,0-4.29,2.07-4.29,4.27c0,1.49,1.02,4.09,4.29,4.09
					c1.82,0,3.54-0.88,3.95-2.79h0.81c-0.48,2.41-2.49,3.51-4.76,3.51c-2.96,0-5.1-1.94-5.1-4.81c0-3.24,2.33-4.99,5.1-4.99
					s4.53,1.62,4.64,3.19H140.63z"/>
				<path class="st3" d="M143.17,182.23h0.81v1.91h-0.81V182.23z M143.17,185.87h0.81v9.22h-0.81V185.87z"/>
				<path class="st3" d="M150.68,185.58c3.23,0,5.1,2.3,5.1,4.9s-1.87,4.9-5.1,4.9s-5.1-2.3-5.1-4.9S147.46,185.58,150.68,185.58z
					 M150.68,194.65c2.86,0,4.29-2.07,4.29-4.18s-1.43-4.18-4.29-4.18c-2.86,0-4.29,2.07-4.29,4.18S147.83,194.65,150.68,194.65z
					 M153.1,181.85l-2.77,2.56h-0.79l2.54-2.56H153.1z"/>
				<path class="st3" d="M157.32,185.87h0.81v1.84h0.04c0.56-1.1,1.75-2.13,3.81-2.13c4.14,0,4.14,2.7,4.14,3.82v5.69h-0.81v-5.65
					c0-1.87-0.69-3.13-3.35-3.13c-2.66,0-3.83,1.69-3.83,3.4v5.38h-0.81V185.87z"/>
				<path class="st3" d="M172.26,182.23h0.81v12.86h-0.81V182.23z"/>
				<path class="st3" d="M175.2,185.87h0.81v1.84h0.04c0.56-1.1,1.75-2.13,3.81-2.13c4.15,0,4.15,2.7,4.15,3.82v5.69h-0.81v-5.65
					c0-1.87-0.69-3.13-3.35-3.13s-3.83,1.69-3.83,3.4v5.38h-0.81V185.87z"/>
				<path class="st3" d="M186.07,185.87h0.81v1.57h0.04c0.71-1.19,2.05-1.85,3.48-1.85c2.22,0,3.09,0.99,3.46,2.14
					c0.65-1.4,1.85-2.14,3.49-2.14c2.59,0,3.76,1.19,3.76,3.26v6.25h-0.81v-5.98c0-1.51-0.81-2.81-2.93-2.81
					c-2.21,0-3.37,1.17-3.37,3.12v5.67h-0.81v-6.14c0-1.62-0.85-2.65-2.93-2.65c-1.97,0-3.37,1.17-3.37,3.3v5.49h-0.81V185.87z"/>
				<path class="st3" d="M207.73,185.58c3.23,0,5.1,2.3,5.1,4.9s-1.87,4.9-5.1,4.9s-5.1-2.3-5.1-4.9S204.5,185.58,207.73,185.58z
					 M207.73,194.65c2.86,0,4.29-2.07,4.29-4.18s-1.43-4.18-4.29-4.18c-2.86,0-4.29,2.07-4.29,4.18S204.87,194.65,207.73,194.65z"/>
				<path class="st3" d="M214.36,182.23h0.81v5.6h0.04c0.53-1.01,1.78-2.25,4-2.25c2.75,0,4.82,1.94,4.82,4.88
					c0,2.61-1.64,4.92-4.82,4.92c-2.33,0-3.58-1.21-4-2.3h-0.04v2.02h-0.81V182.23z M223.22,190.44c0-2.81-1.94-4.14-4.02-4.14
					c-1.83,0-4.13,1.03-4.13,4.27c0,1.64,0.85,4.09,4.23,4.09C221.54,194.65,223.22,193.09,223.22,190.44z"/>
				<path class="st3" d="M225.64,182.23h0.81v1.91h-0.81V182.23z M225.64,185.87h0.81v9.22h-0.81V185.87z"/>
				<path class="st3" d="M228.65,182.23h0.81v12.86h-0.81V182.23z"/>
				<path class="st3" d="M231.67,182.23h0.81v1.91h-0.81V182.23z M231.67,185.87h0.81v9.22h-0.81V185.87z"/>
				<path class="st3" d="M234.49,188.71c0.3-2.32,1.46-3.13,4.2-3.13c2.63,0,4.15,0.63,4.15,2.7v5.17c0,0.68,0,1.1,0.6,1.1
					c0.26,0,0.53-0.05,0.79-0.14v0.72c-0.25,0.09-0.58,0.14-0.99,0.14c-1.11,0-1.11-0.79-1.11-2.02h-0.04
					c-1,1.89-3.12,2.13-4.3,2.13c-0.78,0-3.71,0-3.71-2.81c0-1.89,1.57-2.54,3.4-2.65l3.16-0.22c0.93-0.07,1.38-0.18,1.38-1.31
					c0-1.24-0.69-2.09-3.35-2.09c-2.38,0-3.12,0.76-3.37,2.41H234.49z M242.02,189.94h-0.04c-0.19,0.22-0.67,0.43-1.45,0.49
					l-3.05,0.22c-1.52,0.11-2.59,0.54-2.59,1.93c0,1.87,1.85,2.09,2.95,2.09c1.8,0,4.18-0.83,4.18-3.03V189.94z"/>
				<path class="st3" d="M245.16,185.87h0.81v2.18h0.04c0.6-1.62,1.98-2.47,3.74-2.47c0.25,0,0.42,0.04,0.67,0.11v0.83
					c-0.19-0.07-0.42-0.11-0.93-0.11c-2.35,0-3.51,1.82-3.51,3.69v4.99h-0.81V185.87z"/>
				<path class="st3" d="M251.53,182.23h0.81v1.91h-0.81V182.23z M251.53,185.87h0.81v9.22h-0.81V185.87z"/>
				<path class="st3" d="M254.35,188.71c0.3-2.32,1.46-3.13,4.2-3.13c2.63,0,4.14,0.63,4.14,2.7v5.17c0,0.68,0,1.1,0.6,1.1
					c0.26,0,0.53-0.05,0.79-0.14v0.72c-0.25,0.09-0.58,0.14-0.99,0.14c-1.11,0-1.11-0.79-1.11-2.02h-0.04
					c-1.01,1.89-3.12,2.13-4.3,2.13c-0.78,0-3.7,0-3.7-2.81c0-1.89,1.57-2.54,3.4-2.65l3.16-0.22c0.94-0.07,1.38-0.18,1.38-1.31
					c0-1.24-0.69-2.09-3.35-2.09c-2.38,0-3.12,0.76-3.37,2.41H254.35z M261.88,189.94h-0.04c-0.19,0.22-0.67,0.43-1.45,0.49
					l-3.05,0.22c-1.52,0.11-2.59,0.54-2.59,1.93c0,1.87,1.85,2.09,2.95,2.09c1.8,0,4.18-0.83,4.18-3.03V189.94z"/>
			</g>
		</g>
	</g>
</g>
<g id="Guias" class="st25">
</g>
</svg>
