<?xml version="1.0" encoding="UTF-8"?>
<!-- Generator: Adobe Illustrator 23.1.0, SVG Export Plug-In . SVG Version: 6.00 Build 0)  -->
<svg version="1.1" xmlns="http://www.w3.org/2000/svg" xmlns:xlink="http://www.w3.org/1999/xlink" x="0px" y="0px" viewBox="0 0 126.98 125.62" style="enable-background:new 0 0 126.98 125.62;" xml:space="preserve">
<style type="text/css">
	.Sombra_x0020_paralela{fill:none;}
	.Resplandor_x0020_externo_x0020_5_x0020_pt_x002E_{fill:none;}
	.Neón_x0020_azul{fill:none;stroke:#83A5D3;stroke-width:7;stroke-linecap:round;stroke-linejoin:round;}
	.Resalte_x0020_cromado{fill:url(#SVGID_1_);stroke:#FFFFFF;stroke-width:0.3629;stroke-miterlimit:1;}
	.A_x0020_todo_x0020_ritmo_GS{fill:#FFD600;}
	.Alyssa_GS{fill:#9FC9DD;}
	.st0{clip-path:url(#SVGID_7_);}
	.st1{clip-path:url(#SVGID_7_);fill:#E8B63A;}
	.st2{fill:#282828;}
	.st3{fill:#FFFFFF;}
	.st4{fill:none;stroke:#FFFFFF;stroke-width:0.7;stroke-linecap:round;stroke-linejoin:round;stroke-miterlimit:10;}
	.st5{stroke:#FFFFFF;stroke-width:0.7;stroke-linecap:round;stroke-linejoin:round;stroke-miterlimit:10;}
	.st6{fill:none;stroke:#FFFFFF;stroke-width:0.5;stroke-miterlimit:10;}
	.st7{fill:#2D2D2D;}
	.st8{fill:#FFFFFF;stroke:#282828;stroke-width:0.7495;stroke-linecap:round;stroke-linejoin:round;stroke-miterlimit:10;}
	.st9{fill:none;}
	.st10{fill:none;stroke:#FFFFFF;stroke-width:2;stroke-miterlimit:10;}
	.st11{fill:none;stroke:#CE509A;stroke-width:2;stroke-miterlimit:10;}
	.st12{fill:none;stroke:#F0BE28;stroke-width:2;stroke-linecap:round;stroke-linejoin:round;stroke-miterlimit:10;}
	.st13{fill:none;stroke:#FCFCFC;stroke-width:2;stroke-linecap:round;stroke-linejoin:round;stroke-miterlimit:10;}
	.st14{fill:none;stroke:#0091D2;stroke-width:2;stroke-linecap:round;stroke-linejoin:round;stroke-miterlimit:10;}
	.st15{fill:#0091D2;}
	.st16{clip-path:url(#SVGID_81_);}
	.st17{clip-path:url(#SVGID_81_);fill:none;}
	.st18{fill:none;stroke:#000000;stroke-width:0.7;stroke-linecap:round;stroke-linejoin:round;stroke-miterlimit:10;}
	.st19{clip-path:url(#SVGID_101_);}
	.st20{fill:none;stroke:#FFFFFF;stroke-width:2.4434;stroke-miterlimit:10;}
	.st21{clip-path:url(#SVGID_105_);fill:#2D2D2D;}
	.st22{clip-path:url(#SVGID_105_);}
	.st23{fill:#FFFFFF;stroke:#282828;stroke-width:1.8314;stroke-linecap:round;stroke-linejoin:round;stroke-miterlimit:10;}
	.st24{fill:#0E8DCD;}
	.st25{fill:#CE0F80;}
	.st26{fill:#A7BD17;}
	.st27{fill:none;stroke:#FFFFFF;stroke-width:2;stroke-linecap:round;stroke-linejoin:round;stroke-miterlimit:10;}
	.st28{clip-path:url(#SVGID_109_);}
	.st29{fill:#20384A;}
	.st30{fill:#DFC17B;}
	.st31{fill:#9D927B;}
	.st32{fill:none;stroke:#FFFFFF;stroke-width:0.576;stroke-linecap:round;stroke-linejoin:round;stroke-miterlimit:10;}
	.st33{fill:none;stroke:#DFC17B;stroke-miterlimit:10;}
	.st34{fill:#09628F;}
	.st35{fill:#002440;}
	.st36{clip-path:url(#SVGID_115_);}
	.st37{opacity:0.63;fill:#FFFFFF;}
	.st38{fill:#494948;}
	.st39{clip-path:url(#SVGID_119_);}
	.st40{fill:url(#SVGID_120_);}
	.st41{fill:url(#SVGID_121_);}
	.st42{clip-path:url(#SVGID_119_);fill:#E8B63A;}
	.st43{opacity:0;fill:#FFFFFF;}
	.st44{opacity:7.812500e-03;fill:#FEFEFE;}
	.st45{opacity:0.0156;fill:#FDFDFD;}
	.st46{opacity:0.0234;fill:#FCFCFC;}
	.st47{opacity:0.0313;fill:#FBFBFB;}
	.st48{opacity:0.0391;fill:#FAFAFA;}
	.st49{opacity:0.0469;fill:#F9F9F9;}
	.st50{opacity:0.0547;fill:#F8F8F8;}
	.st51{opacity:0.0625;fill:#F7F7F7;}
	.st52{opacity:0.0703;fill:#F6F6F6;}
	.st53{opacity:0.0781;fill:#F5F5F5;}
	.st54{opacity:0.0859;fill:#F4F4F4;}
	.st55{opacity:0.0938;fill:#F3F3F3;}
	.st56{opacity:0.1016;fill:#F2F2F2;}
	.st57{opacity:0.1094;fill:#F1F1F1;}
	.st58{opacity:0.1172;fill:#F0F0F0;}
	.st59{opacity:0.125;fill:#EFEFEF;}
	.st60{opacity:0.1328;fill:#EEEEEE;}
	.st61{opacity:0.1406;fill:#EDEDED;}
	.st62{opacity:0.1484;fill:#ECECEC;}
	.st63{opacity:0.1563;fill:#EBEBEB;}
	.st64{opacity:0.1641;fill:#EAEAEA;}
	.st65{opacity:0.1719;fill:#E9E9E9;}
	.st66{opacity:0.1797;fill:#E8E8E8;}
	.st67{opacity:0.1875;fill:#E7E7E7;}
	.st68{opacity:0.1953;fill:#E6E6E6;}
	.st69{opacity:0.2031;fill:#E5E5E5;}
	.st70{opacity:0.2109;fill:#E4E4E4;}
	.st71{opacity:0.2188;fill:#E3E3E3;}
	.st72{opacity:0.2266;fill:#E2E2E2;}
	.st73{opacity:0.2344;fill:#E1E1E1;}
	.st74{opacity:0.2422;fill:#E0E0E0;}
	.st75{opacity:0.25;fill:#DFDFDF;}
	.st76{opacity:0.2578;fill:#DEDEDE;}
	.st77{opacity:0.2656;fill:#DDDDDD;}
	.st78{opacity:0.2734;fill:#DCDCDC;}
	.st79{opacity:0.2813;fill:#DBDBDB;}
	.st80{opacity:0.2891;fill:#DADADA;}
	.st81{opacity:0.2969;fill:#D9D9D9;}
	.st82{opacity:0.3047;fill:#D8D8D8;}
	.st83{opacity:0.3125;fill:#D7D7D7;}
	.st84{opacity:0.3203;fill:#D6D6D6;}
	.st85{opacity:0.3281;fill:#D5D5D5;}
	.st86{opacity:0.3359;fill:#D4D4D4;}
	.st87{opacity:0.3438;fill:#D3D3D3;}
	.st88{opacity:0.3516;fill:#D2D2D2;}
	.st89{opacity:0.3594;fill:#D1D1D1;}
	.st90{opacity:0.3672;fill:#D0D0D0;}
	.st91{opacity:0.375;fill:#CFCFCF;}
	.st92{opacity:0.3828;fill:#CECECE;}
	.st93{opacity:0.3906;fill:#CDCDCD;}
	.st94{opacity:0.3984;fill:#CCCCCC;}
	.st95{opacity:0.4063;fill:#CBCBCB;}
	.st96{opacity:0.4141;fill:#CACACA;}
	.st97{opacity:0.4219;fill:#C9C9C9;}
	.st98{opacity:0.4297;fill:#C8C8C8;}
	.st99{opacity:0.4375;fill:#C7C7C7;}
	.st100{opacity:0.4453;fill:#C6C6C6;}
	.st101{opacity:0.4531;fill:#C5C5C5;}
	.st102{opacity:0.4609;fill:#C4C4C4;}
	.st103{opacity:0.4688;fill:#C3C3C3;}
	.st104{opacity:0.4766;fill:#C2C2C2;}
	.st105{opacity:0.4844;fill:#C1C1C1;}
	.st106{opacity:0.4922;fill:#C0C0C0;}
	.st107{opacity:0.5;fill:#C0C0C0;}
	.st108{opacity:0.5078;fill:#BFBFBF;}
	.st109{opacity:0.5156;fill:#BEBEBE;}
	.st110{opacity:0.5234;fill:#BDBDBD;}
	.st111{opacity:0.5313;fill:#BCBCBC;}
	.st112{opacity:0.5391;fill:#BBBBBB;}
	.st113{opacity:0.5469;fill:#BABABA;}
	.st114{opacity:0.5547;fill:#B9B9B9;}
	.st115{opacity:0.5625;fill:#B8B8B8;}
	.st116{opacity:0.5703;fill:#B7B7B7;}
	.st117{opacity:0.5781;fill:#B6B6B6;}
	.st118{opacity:0.5859;fill:#B5B5B5;}
	.st119{opacity:0.5938;fill:#B4B4B4;}
	.st120{opacity:0.6016;fill:#B3B3B3;}
	.st121{opacity:0.6094;fill:#B2B2B2;}
	.st122{opacity:0.6172;fill:#B1B1B1;}
	.st123{opacity:0.625;fill:#B0B0B0;}
	.st124{opacity:0.6328;fill:#AFAFAF;}
	.st125{opacity:0.6406;fill:#AEAEAE;}
	.st126{opacity:0.6484;fill:#ADADAD;}
	.st127{opacity:0.6563;fill:#ACACAC;}
	.st128{opacity:0.6641;fill:#ABABAB;}
	.st129{opacity:0.6719;fill:#AAAAAA;}
	.st130{opacity:0.6797;fill:#A9A9A9;}
	.st131{opacity:0.6875;fill:#A8A8A8;}
	.st132{opacity:0.6953;fill:#A7A7A7;}
	.st133{opacity:0.7031;fill:#A6A6A6;}
	.st134{opacity:0.7109;fill:#A5A5A5;}
	.st135{opacity:0.7188;fill:#A4A4A4;}
	.st136{opacity:0.7266;fill:#A3A3A3;}
	.st137{opacity:0.7344;fill:#A2A2A2;}
	.st138{opacity:0.7422;fill:#A1A1A1;}
	.st139{opacity:0.75;fill:#A0A0A0;}
	.st140{opacity:0.7578;fill:#9F9F9F;}
	.st141{opacity:0.7656;fill:#9E9E9E;}
	.st142{opacity:0.7734;fill:#9D9D9D;}
	.st143{opacity:0.7813;fill:#9C9C9C;}
	.st144{opacity:0.7891;fill:#9B9B9B;}
	.st145{opacity:0.7969;fill:#9A9A9A;}
	.st146{opacity:0.8047;fill:#999999;}
	.st147{opacity:0.8125;fill:#989898;}
	.st148{opacity:0.8203;fill:#979797;}
	.st149{opacity:0.8281;fill:#969696;}
	.st150{opacity:0.8359;fill:#959595;}
	.st151{opacity:0.8438;fill:#949494;}
	.st152{opacity:0.8516;fill:#939393;}
	.st153{opacity:0.8594;fill:#929292;}
	.st154{opacity:0.8672;fill:#919191;}
	.st155{opacity:0.875;fill:#909090;}
	.st156{opacity:0.8828;fill:#8F8F8F;}
	.st157{opacity:0.8906;fill:#8E8E8E;}
	.st158{opacity:0.8984;fill:#8D8D8D;}
	.st159{opacity:0.9063;fill:#8C8C8C;}
	.st160{opacity:0.9141;fill:#8B8B8B;}
	.st161{opacity:0.9219;fill:#8A8A8A;}
	.st162{opacity:0.9297;fill:#898989;}
	.st163{opacity:0.9375;fill:#888888;}
	.st164{opacity:0.9453;fill:#878787;}
	.st165{opacity:0.9531;fill:#868686;}
	.st166{opacity:0.9609;fill:#858585;}
	.st167{opacity:0.9688;fill:#848484;}
	.st168{opacity:0.9766;fill:#838383;}
	.st169{opacity:0.9844;fill:#828282;}
	.st170{opacity:0.9922;fill:#818181;}
	.st171{fill:#808080;}
	.st172{fill:url(#SVGID_122_);}
	.st173{fill:url(#SVGID_123_);}
	.st174{fill:url(#SVGID_124_);}
	.st175{fill:#E8B63A;}
	.st176{clip-path:url(#SVGID_126_);}
	.st177{clip-path:url(#SVGID_128_);}
	.st178{fill:url(#SVGID_129_);}
	.st179{fill:url(#SVGID_130_);}
	.st180{clip-path:url(#SVGID_128_);fill:#E8B63A;}
	.st181{display:none;}
	.st182{display:inline;}
	.st183{fill:none;stroke:#CE0F80;stroke-width:2.1205;stroke-linecap:round;stroke-linejoin:round;stroke-miterlimit:10;}
	
		.st184{display:inline;fill:none;stroke:#CE0F80;stroke-width:2.1205;stroke-linecap:round;stroke-linejoin:round;stroke-miterlimit:10;}
</style>
<linearGradient id="SVGID_1_" gradientUnits="userSpaceOnUse" x1="-6862.3633" y1="-812.4876" x2="-6862.3633" y2="-813.4876">
	<stop offset="0" style="stop-color:#656565"/>
	<stop offset="0.618" style="stop-color:#1B1B1B"/>
	<stop offset="0.6292" style="stop-color:#545454"/>
	<stop offset="0.9831" style="stop-color:#3E3E3E"/>
</linearGradient>
<g id="Capa_1">
	<g>
		<g id="XMLID_105_">
			<path id="XMLID_127_" class="st24" d="M52.84,16.65c9.69,0,18.47,3.93,24.82,10.28c6.35,6.35,10.28,15.13,10.28,24.82     c0,9.69-3.93,18.47-10.28,24.82c-6.35,6.35-15.13,10.28-24.82,10.28c-9.69,0-18.47-3.93-24.82-10.28     c-6.36-6.35-10.29-15.13-10.29-24.82c0-9.69,3.93-18.46,10.28-24.82C34.37,20.59,43.15,16.65,52.84,16.65L52.84,16.65z      M76.15,28.44c-5.97-5.97-14.21-9.66-23.31-9.66c-9.1,0-17.35,3.69-23.31,9.66c-5.97,5.97-9.66,14.21-9.66,23.31     c0,9.1,3.69,17.34,9.66,23.31c5.97,5.97,14.21,9.66,23.31,9.66c9.1,0,17.34-3.69,23.31-9.66c5.97-5.97,9.66-14.21,9.66-23.31     C85.81,42.65,82.11,34.41,76.15,28.44z"/>
			<path id="XMLID_124_" class="st25" d="M59.37,17.55c9.69,0,18.47,3.93,24.82,10.29c6.35,6.35,10.28,15.13,10.28,24.82     c0,9.69-3.93,18.47-10.28,24.82c-6.35,6.35-15.13,10.28-24.82,10.28c-9.69,0-18.47-3.93-24.82-10.28     c-6.35-6.35-10.29-15.13-10.29-24.82c0-9.69,3.93-18.47,10.29-24.82C40.91,21.49,49.68,17.55,59.37,17.55L59.37,17.55z      M82.68,29.35c-5.97-5.97-14.21-9.66-23.31-9.66c-9.1,0-17.34,3.69-23.31,9.66c-5.97,5.97-9.66,14.21-9.66,23.31     c0,9.1,3.69,17.35,9.66,23.31c5.97,5.97,14.21,9.66,23.31,9.66c9.1,0,17.35-3.69,23.31-9.66c5.96-5.96,9.66-14.21,9.66-23.31     C92.34,43.56,88.65,35.31,82.68,29.35z"/>
			<path id="XMLID_121_" class="st26" d="M61.5,11.92c13.75,0,26.19,5.57,35.2,14.58c9.01,9.01,14.59,21.46,14.59,35.21     c0,13.75-5.58,26.2-14.59,35.2c-9.01,9.01-21.46,14.59-35.2,14.59c-13.75,0-26.2-5.57-35.21-14.59     c-9.01-9.01-14.58-21.46-14.58-35.2c0-13.75,5.57-26.19,14.58-35.21C35.31,17.5,47.76,11.92,61.5,11.92L61.5,11.92z M95.2,28.01     c-8.62-8.63-20.54-13.96-33.7-13.96c-13.16,0-25.07,5.34-33.7,13.96c-8.62,8.62-13.96,20.54-13.96,33.7     c0,13.16,5.33,25.08,13.96,33.7c8.63,8.63,20.54,13.96,33.7,13.96c13.16,0,25.07-5.33,33.7-13.96     c8.63-8.62,13.96-20.54,13.96-33.7C109.16,48.55,103.83,36.64,95.2,28.01z"/>
			<path id="XMLID_118_" class="st25" d="M67.12,3.81c16.53,0,31.49,6.7,42.33,17.54c10.83,10.84,17.53,25.8,17.53,42.33     c0,16.53-6.7,31.49-17.53,42.33c-10.83,10.83-25.8,17.54-42.33,17.54c-16.53,0-31.5-6.7-42.33-17.54     C13.95,95.16,7.25,80.2,7.25,63.67c0-16.53,6.7-31.49,17.54-42.33C35.62,10.51,50.59,3.81,67.12,3.81L67.12,3.81z M107.94,22.85     C97.49,12.4,83.06,5.94,67.12,5.94c-15.94,0-30.37,6.46-40.82,16.91C15.85,33.3,9.38,47.73,9.38,63.67     c0,15.94,6.46,30.37,16.91,40.82c10.45,10.44,24.88,16.91,40.82,16.91c15.94,0,30.37-6.46,40.82-16.91     c10.44-10.45,16.91-24.88,16.91-40.82C124.85,47.73,118.38,33.3,107.94,22.85z"/>
			<path id="XMLID_115_" class="st24" d="M60.61,4.4c16.73,0,31.88,6.78,42.86,17.76c10.97,10.97,17.75,26.12,17.75,42.85     c0,16.74-6.78,31.89-17.75,42.86c-10.97,10.97-26.12,17.75-42.86,17.75c-16.74,0-31.89-6.78-42.86-17.76     C6.79,96.9,0,81.75,0,65.01c0-16.73,6.79-31.89,17.76-42.85C28.72,11.18,43.88,4.4,60.61,4.4L60.61,4.4z M101.96,23.66     C91.38,13.08,76.75,6.53,60.61,6.53c-16.15,0-30.77,6.54-41.35,17.13C8.68,34.25,2.13,48.86,2.13,65.01     c0,16.14,6.55,30.77,17.13,41.35c10.58,10.59,25.2,17.13,41.35,17.13c16.14,0,30.76-6.55,41.35-17.13     c10.58-10.58,17.13-25.2,17.13-41.35C119.09,48.86,112.54,34.25,101.96,23.66z"/>
			<path id="XMLID_112_" class="st25" d="M63.62,8.02c13.48,0,25.68,5.46,34.52,14.3c8.83,8.83,14.3,21.04,14.3,34.52     c0,13.48-5.47,25.69-14.3,34.52c-8.84,8.83-21.04,14.3-34.52,14.3c-13.48,0-25.68-5.47-34.52-14.3     c-8.83-8.83-14.3-21.04-14.3-34.52c0-13.48,5.46-25.68,14.3-34.52C37.94,13.48,50.14,8.02,63.62,8.02L63.62,8.02z M96.64,23.82     c-8.45-8.45-20.12-13.68-33.02-13.68c-12.89,0-24.56,5.23-33.01,13.68c-8.45,8.45-13.68,20.12-13.68,33.01     c0,12.89,5.23,24.56,13.68,33.01c8.45,8.45,20.12,13.68,33.01,13.68c12.89,0,24.56-5.23,33.02-13.68     c8.45-8.45,13.67-20.12,13.67-33.01C110.31,43.94,105.08,32.27,96.64,23.82z"/>
			<path id="XMLID_109_" class="st24" d="M60.27,0c14.36,0,27.36,5.82,36.78,15.24c9.41,9.41,15.23,22.41,15.23,36.77     c0,14.36-5.82,27.36-15.23,36.77c-9.42,9.41-22.42,15.23-36.78,15.23c-14.36,0-27.36-5.82-36.77-15.23     C14.09,79.37,8.27,66.37,8.27,52.01c0-14.36,5.82-27.36,15.23-36.77C32.92,5.82,45.92,0,60.27,0L60.27,0z M95.54,16.74     C86.52,7.72,74.05,2.13,60.27,2.13c-13.77,0-26.24,5.58-35.26,14.61C15.99,25.77,10.4,38.24,10.4,52.01     c0,13.77,5.59,26.24,14.61,35.26c9.03,9.03,21.49,14.61,35.26,14.61c13.77,0,26.24-5.58,35.27-14.61     c9.02-9.02,14.61-21.5,14.61-35.26C110.15,38.24,104.57,25.77,95.54,16.74z"/>
			<path id="XMLID_106_" class="st26" d="M60.8,11.25c15.41,0,29.36,6.25,39.46,16.35c10.1,10.1,16.35,24.05,16.35,39.46     c0,15.41-6.25,29.36-16.35,39.46c-10.1,10.1-24.05,16.35-39.46,16.35c-15.41,0-29.36-6.25-39.46-16.35     C11.25,96.41,5,82.46,5,67.05c0-15.41,6.25-29.36,16.35-39.46C31.45,17.49,45.4,11.25,60.8,11.25L60.8,11.25z M98.76,29.1     c-9.72-9.71-23.14-15.72-37.95-15.72c-14.82,0-28.24,6.01-37.95,15.72C13.14,38.82,7.13,52.23,7.13,67.05     c0,14.82,6.01,28.24,15.72,37.95c9.71,9.72,23.13,15.73,37.95,15.73c14.82,0,28.24-6.01,37.95-15.73     c9.72-9.71,15.72-23.13,15.72-37.95C114.48,52.23,108.47,38.82,98.76,29.1z"/>
		</g>
	</g>
</g>
<g id="Guias" class="st181">
</g>
</svg>