<?xml version="1.0" encoding="utf-8"?>
<!-- Generator: Adobe Illustrator 23.1.0, SVG Export Plug-In . SVG Version: 6.00 Build 0)  -->
<svg version="1.1" id="Layer_1" xmlns="http://www.w3.org/2000/svg" xmlns:xlink="http://www.w3.org/1999/xlink" x="0px" y="0px"
	 viewBox="0 0 277 42" style="enable-background:new 0 0 277 42;" xml:space="preserve">
<style type="text/css">
	.st0{fill:#FFFFFF;}
	.st1{fill:none;stroke:#282828;stroke-width:0.75;stroke-linecap:round;stroke-linejoin:round;stroke-miterlimit:10;}
</style>
<g>
	<path class="st0" d="M115.03,16.7h6.88v0.51h-6.32v3.65h6.07v0.51h-6.07v3.98h6.4v0.51h-6.96V16.7z"/>
	<path class="st0" d="M126.04,21.21l-3.56-4.51h0.76l3.17,4.05l3.23-4.05h0.71l-3.56,4.51l3.69,4.66h-0.74l-3.32-4.21l-3.36,4.21
		h-0.71L126.04,21.21z"/>
	<path class="st0" d="M131.32,16.7h0.56v4.09h6.68V16.7h0.56v9.17h-0.56V21.3h-6.68v4.57h-0.56V16.7z"/>
	<path class="st0" d="M140.83,16.7h0.56v9.17h-0.56V16.7z"/>
	<path class="st0" d="M143.1,16.7h4.7c1.67,0,2.54,0.82,2.54,2.26c0,0.9-0.39,1.81-1.71,2.11v0.03c1.7,0.18,2,1.48,2,2.26
		c0,0.99-0.51,2.52-2.92,2.52h-4.61V16.7z M143.66,20.87h3.88c0.45,0,2.23,0,2.23-1.86c0-1.79-1.39-1.79-2.32-1.79h-3.8V20.87z
		 M143.66,25.37h3.93c0.44,0,2.48,0,2.48-2.06c0-1.93-1.66-1.93-2.62-1.93h-3.78V25.37z"/>
	<path class="st0" d="M152.16,16.7h0.56v9.17h-0.56V16.7z"/>
	<path class="st0" d="M162.97,22.4c-0.2,1.75-1.67,3.69-4.28,3.69c-2.65,0-4.64-1.76-4.64-4.79c0-2.22,1.44-4.79,4.64-4.79
		c2.1,0,3.7,1.04,4.14,3.08h-0.56c-0.42-1.76-1.94-2.57-3.58-2.57c-2.49,0-4.08,1.97-4.08,4.28c0,2.3,1.4,4.28,4.08,4.28
		c1.93,0,3.39-1.18,3.72-3.17H162.97z"/>
	<path class="st0" d="M164.39,16.7h0.56v9.17h-0.56V16.7z"/>
	<path class="st0" d="M170.91,16.5c3.54,0,4.63,2.99,4.63,4.79s-1.09,4.79-4.63,4.79s-4.63-2.99-4.63-4.79S167.37,16.5,170.91,16.5z
		 M170.91,25.57c2.62,0,4.06-2.08,4.06-4.28c0-2.2-1.44-4.28-4.06-4.28s-4.06,2.08-4.06,4.28
		C166.84,23.49,168.28,25.57,170.91,25.57z M172.58,14.35l-1.92,1.82h-0.55l1.76-1.82H172.58z"/>
	<path class="st0" d="M176.85,16.7h0.71l6.51,8.35h0.02V16.7h0.56v9.17h-0.71l-6.51-8.35h-0.02v8.35h-0.56V16.7z"/>
	<path class="st0" d="M189.31,16.7h0.56v9.17h-0.56V16.7z"/>
	<path class="st0" d="M191.58,16.7h0.71l6.51,8.35h0.02V16.7h0.56v9.17h-0.71l-6.51-8.35h-0.02v8.35h-0.56V16.7z"/>
	<path class="st0" d="M201.15,16.7H202l4.24,8.43l4.24-8.43h0.84v9.17h-0.56v-8.35h-0.02l-4.21,8.35h-0.56l-4.21-8.35h-0.02v8.35
		h-0.56V16.7z"/>
	<path class="st0" d="M217.33,16.5c3.54,0,4.63,2.99,4.63,4.79s-1.09,4.79-4.63,4.79s-4.63-2.99-4.63-4.79S213.79,16.5,217.33,16.5z
		 M217.33,25.57c2.62,0,4.06-2.08,4.06-4.28c0-2.2-1.44-4.28-4.06-4.28s-4.06,2.08-4.06,4.28C213.26,23.49,214.7,25.57,217.33,25.57
		z"/>
	<path class="st0" d="M223.27,16.7h4.7c1.67,0,2.54,0.82,2.54,2.26c0,0.9-0.39,1.81-1.71,2.11v0.03c1.7,0.18,2,1.48,2,2.26
		c0,0.99-0.51,2.52-2.92,2.52h-4.61V16.7z M223.83,20.87h3.88c0.45,0,2.23,0,2.23-1.86c0-1.79-1.39-1.79-2.32-1.79h-3.8V20.87z
		 M223.83,25.37h3.93c0.44,0,2.48,0,2.48-2.06c0-1.93-1.66-1.93-2.62-1.93h-3.78V25.37z"/>
	<path class="st0" d="M232.33,16.7h0.56v9.17h-0.56V16.7z"/>
	<path class="st0" d="M234.6,16.7h0.56v8.66h5.71v0.51h-6.27V16.7z"/>
	<path class="st0" d="M241.85,16.7h0.56v9.17h-0.56V16.7z"/>
	<path class="st0" d="M247.26,16.7h0.63l4,9.17h-0.63l-1.28-2.96h-4.81l-1.28,2.96h-0.63L247.26,16.7z M245.39,22.41h4.37
		l-2.19-5.04L245.39,22.41z"/>
	<path class="st0" d="M252.74,16.7h4.46c1.67,0,2.94,0.5,2.94,2.43c0,0.95-0.55,1.98-1.78,2.27v0.03c1.06,0.14,1.62,0.91,1.64,1.9
		c0.02,1.67,0.07,2.21,0.24,2.54h-0.56c-0.16-0.15-0.21-0.73-0.24-2.13c-0.04-1.59-0.52-2.04-2.25-2.04h-3.88v4.18h-0.56V16.7z
		 M253.3,21.19h3.8c0.55,0,2.48,0,2.48-2.09c0-1.49-1.1-1.88-2.33-1.88h-3.94V21.19z"/>
	<path class="st0" d="M261.56,16.7h0.56v9.17h-0.56V16.7z"/>
	<path class="st0" d="M266.97,16.7h0.63l4,9.17h-0.63l-1.28-2.96h-4.81l-1.28,2.96h-0.63L266.97,16.7z M265.1,22.41h4.37l-2.19-5.04
		L265.1,22.41z"/>
</g>
<path class="st0" d="M16.85,8.14c2.76,0,5.27,1.12,7.08,2.93c1.81,1.81,2.94,4.32,2.94,7.08c0,2.77-1.12,5.27-2.94,7.08
	c-1.81,1.81-4.32,2.93-7.08,2.93c-2.77,0-5.27-1.12-7.08-2.93c-1.82-1.81-2.94-4.32-2.94-7.08c0-2.76,1.12-5.27,2.93-7.08
	C11.58,9.26,14.08,8.14,16.85,8.14 M23.5,11.51c-1.7-1.7-4.06-2.76-6.65-2.76c-2.6,0-4.95,1.05-6.65,2.76
	c-1.7,1.7-2.76,4.06-2.76,6.65c0,2.6,1.05,4.95,2.76,6.65c1.7,1.7,4.06,2.76,6.65,2.76c2.6,0,4.95-1.05,6.65-2.76
	c1.7-1.7,2.76-4.06,2.76-6.65C26.26,15.56,25.2,13.21,23.5,11.51"/>
<path class="st0" d="M18.71,8.4c2.77,0,5.27,1.12,7.08,2.94c1.81,1.81,2.93,4.32,2.93,7.08c0,2.77-1.12,5.27-2.93,7.08
	c-1.81,1.81-4.32,2.94-7.08,2.94c-2.77,0-5.27-1.12-7.08-2.94c-1.81-1.81-2.94-4.32-2.94-7.08c0-2.76,1.12-5.27,2.94-7.08
	C13.44,9.52,15.95,8.4,18.71,8.4 M25.37,11.76c-1.7-1.7-4.06-2.76-6.65-2.76c-2.6,0-4.95,1.05-6.65,2.76
	c-1.7,1.7-2.76,4.06-2.76,6.65c0,2.6,1.05,4.95,2.76,6.65c1.7,1.7,4.06,2.75,6.65,2.75c2.6,0,4.95-1.05,6.65-2.75
	c1.7-1.7,2.76-4.06,2.76-6.65C28.12,15.82,27.07,13.47,25.37,11.76"/>
<path class="st0" d="M19.32,6.79c3.92,0,7.47,1.59,10.05,4.16c2.57,2.57,4.16,6.13,4.16,10.05s-1.59,7.48-4.16,10.05
	c-2.57,2.57-6.13,4.16-10.05,4.16c-3.92,0-7.48-1.59-10.05-4.16C6.7,28.48,5.11,24.92,5.11,21s1.59-7.47,4.16-10.05
	C11.85,8.38,15.4,6.79,19.32,6.79 M28.94,11.38c-2.46-2.46-5.86-3.98-9.62-3.98c-3.76,0-7.15,1.52-9.62,3.98
	C7.24,13.84,5.72,17.24,5.72,21s1.52,7.16,3.98,9.62c2.46,2.46,5.86,3.99,9.62,3.99c3.75,0,7.16-1.52,9.62-3.99
	c2.46-2.46,3.98-5.86,3.98-9.62S31.4,13.84,28.94,11.38"/>
<path class="st0" d="M20.92,4.47c4.72,0,8.99,1.91,12.08,5.01c3.09,3.09,5,7.36,5,12.08c0,4.72-1.91,8.99-5,12.08
	c-3.09,3.09-7.36,5-12.08,5c-4.72,0-8.99-1.91-12.08-5c-3.09-3.09-5.01-7.36-5.01-12.08s1.91-8.99,5.01-12.08
	C11.93,6.39,16.21,4.47,20.92,4.47 M32.57,9.91c-2.98-2.98-7.1-4.83-11.65-4.83c-4.55,0-8.67,1.84-11.65,4.83
	c-2.98,2.98-4.83,7.1-4.83,11.65s1.85,8.67,4.83,11.65c2.98,2.98,7.1,4.83,11.65,4.83c4.55,0,8.67-1.85,11.65-4.83
	c2.98-2.98,4.83-7.1,4.83-11.65S35.55,12.89,32.57,9.91"/>
<path class="st0" d="M19.07,4.64c4.78,0,9.1,1.94,12.23,5.07c3.13,3.13,5.07,7.46,5.07,12.23s-1.94,9.1-5.07,12.23
	c-3.13,3.13-7.45,5.07-12.23,5.07c-4.78,0-9.1-1.94-12.23-5.07c-3.13-3.13-5.07-7.45-5.07-12.23s1.94-9.1,5.07-12.23
	C9.97,6.58,14.29,4.64,19.07,4.64 M30.87,10.14c-3.02-3.02-7.19-4.89-11.8-4.89c-4.61,0-8.78,1.87-11.8,4.89
	c-3.02,3.02-4.89,7.19-4.89,11.8c0,4.61,1.87,8.78,4.89,11.8c3.02,3.02,7.19,4.89,11.8,4.89c4.61,0,8.78-1.87,11.8-4.89
	c3.02-3.02,4.89-7.19,4.89-11.8C35.76,17.33,33.89,13.16,30.87,10.14"/>
<path class="st0" d="M19.93,5.67c3.85,0,7.33,1.56,9.85,4.08c2.52,2.52,4.08,6,4.08,9.85c0,3.85-1.56,7.33-4.08,9.85
	c-2.52,2.52-6,4.08-9.85,4.08c-3.85,0-7.33-1.56-9.85-4.08s-4.08-6-4.08-9.85c0-3.85,1.56-7.33,4.08-9.85S16.08,5.67,19.93,5.67
	 M29.35,10.19c-2.41-2.41-5.74-3.9-9.42-3.9c-3.68,0-7.01,1.49-9.42,3.9c-2.41,2.41-3.9,5.74-3.9,9.42c0,3.68,1.49,7.01,3.9,9.42
	c2.41,2.41,5.74,3.9,9.42,3.9c3.68,0,7.01-1.49,9.42-3.9c2.41-2.41,3.9-5.74,3.9-9.42C33.25,15.93,31.76,12.6,29.35,10.19"/>
<path class="st0" d="M18.97,3.39c4.1,0,7.81,1.66,10.5,4.35c2.68,2.69,4.35,6.4,4.35,10.49s-1.66,7.81-4.35,10.5
	c-2.69,2.68-6.4,4.35-10.5,4.35c-4.1,0-7.81-1.66-10.49-4.35c-2.69-2.69-4.35-6.4-4.35-10.5s1.66-7.81,4.35-10.49
	C11.16,5.05,14.87,3.39,18.97,3.39 M29.04,8.17C26.46,5.59,22.9,4,18.97,4c-3.93,0-7.49,1.59-10.06,4.17
	c-2.58,2.58-4.17,6.14-4.17,10.07c0,3.93,1.59,7.49,4.17,10.06s6.13,4.17,10.06,4.17c3.93,0,7.49-1.59,10.07-4.17
	c2.58-2.58,4.17-6.14,4.17-10.06C33.2,14.3,31.61,10.74,29.04,8.17"/>
<path class="st0" d="M19.12,6.6c4.4,0,8.38,1.78,11.26,4.66c2.88,2.88,4.66,6.86,4.66,11.26c0,4.4-1.78,8.38-4.66,11.26
	c-2.88,2.88-6.86,4.67-11.26,4.67c-4.4,0-8.38-1.78-11.26-4.67c-2.88-2.88-4.67-6.86-4.67-11.26c0-4.4,1.78-8.38,4.67-11.26
	C10.74,8.38,14.72,6.6,19.12,6.6 M29.95,11.69c-2.77-2.77-6.6-4.49-10.83-4.49c-4.23,0-8.06,1.72-10.83,4.49
	c-2.77,2.77-4.49,6.6-4.49,10.83c0,4.23,1.72,8.06,4.49,10.83c2.77,2.77,6.6,4.49,10.83,4.49c4.23,0,8.06-1.72,10.83-4.49
	c2.77-2.77,4.49-6.6,4.49-10.83C34.44,18.29,32.73,14.46,29.95,11.69"/>
<path class="st0" d="M42.32,26.05h0.73v-8.76h0.03l4.54,8.76h0.73l4.49-8.76h0.03v8.76h0.73v-9.47h-1.04L48,25.4h-0.03l-4.6-8.82
	h-1.04V26.05z M66.35,21.31c0-0.69-0.13-1.34-0.38-1.94c-0.25-0.61-0.62-1.13-1.1-1.58c-0.48-0.45-1.06-0.8-1.76-1.06
	c-0.69-0.26-1.48-0.38-2.36-0.38c-0.88,0-1.67,0.13-2.37,0.38c-0.7,0.26-1.29,0.61-1.76,1.06c-0.48,0.45-0.85,0.97-1.1,1.58
	c-0.25,0.61-0.38,1.25-0.38,1.94s0.13,1.34,0.38,1.94c0.25,0.6,0.62,1.13,1.1,1.58c0.48,0.45,1.07,0.8,1.76,1.05
	c0.7,0.26,1.49,0.39,2.37,0.39c0.88,0,1.67-0.13,2.36-0.39c0.69-0.25,1.28-0.61,1.76-1.05c0.48-0.45,0.85-0.97,1.1-1.58
	C66.22,22.65,66.35,22,66.35,21.31 M55.87,21.31c0-0.61,0.11-1.18,0.33-1.72c0.22-0.54,0.54-1.01,0.96-1.41
	c0.42-0.4,0.93-0.72,1.53-0.96c0.61-0.24,1.29-0.36,2.06-0.36c0.77,0,1.45,0.12,2.05,0.36c0.6,0.24,1.11,0.56,1.53,0.96
	c0.42,0.4,0.74,0.87,0.96,1.41c0.22,0.54,0.33,1.11,0.33,1.72c0,0.61-0.11,1.19-0.33,1.73c-0.22,0.54-0.54,1.01-0.96,1.41
	c-0.42,0.4-0.93,0.73-1.53,0.96c-0.6,0.24-1.28,0.36-2.05,0.36c-0.77,0-1.46-0.12-2.06-0.36c-0.6-0.24-1.12-0.56-1.53-0.96
	c-0.42-0.4-0.74-0.87-0.96-1.41C55.98,22.5,55.87,21.93,55.87,21.31 M68.63,17.08h3.02c0.29,0,0.61,0.02,0.97,0.05
	c0.36,0.03,0.71,0.09,1.07,0.19c0.36,0.1,0.7,0.24,1.04,0.42c0.33,0.18,0.63,0.43,0.89,0.74c0.26,0.31,0.47,0.7,0.63,1.16
	c0.16,0.46,0.24,1.01,0.24,1.66c0,0.82-0.14,1.5-0.42,2.05c-0.28,0.54-0.65,0.98-1.1,1.3c-0.45,0.32-0.95,0.55-1.51,0.69
	c-0.56,0.14-1.11,0.21-1.66,0.21h-3.17V17.08z M67.9,26.05h3.83c0.95,0,1.76-0.12,2.45-0.36c0.69-0.24,1.26-0.58,1.71-1
	c0.45-0.42,0.78-0.93,1-1.51c0.21-0.58,0.32-1.21,0.32-1.88c0-0.6-0.09-1.19-0.26-1.75c-0.17-0.57-0.46-1.07-0.88-1.51
	c-0.42-0.44-0.98-0.8-1.68-1.06c-0.7-0.27-1.58-0.4-2.63-0.4H67.9V26.05z M89.58,21.31c0-0.69-0.13-1.34-0.38-1.94
	c-0.25-0.61-0.62-1.13-1.1-1.58c-0.48-0.45-1.06-0.8-1.76-1.06c-0.69-0.26-1.48-0.38-2.36-0.38c-0.88,0-1.67,0.13-2.37,0.38
	c-0.7,0.26-1.29,0.61-1.76,1.06c-0.48,0.45-0.85,0.97-1.1,1.58c-0.25,0.61-0.38,1.25-0.38,1.94s0.13,1.34,0.38,1.94
	c0.25,0.6,0.62,1.13,1.1,1.58c0.48,0.45,1.07,0.8,1.76,1.05c0.7,0.26,1.49,0.39,2.37,0.39c0.88,0,1.67-0.13,2.36-0.39
	c0.69-0.25,1.28-0.61,1.76-1.05c0.48-0.45,0.85-0.97,1.1-1.58C89.46,22.65,89.58,22,89.58,21.31 M79.11,21.31
	c0-0.61,0.11-1.18,0.33-1.72c0.22-0.54,0.54-1.01,0.96-1.41c0.42-0.4,0.93-0.72,1.54-0.96c0.6-0.24,1.29-0.36,2.06-0.36
	c0.77,0,1.46,0.12,2.06,0.36c0.6,0.24,1.11,0.56,1.53,0.96c0.42,0.4,0.74,0.87,0.96,1.41c0.22,0.54,0.33,1.11,0.33,1.72
	c0,0.61-0.11,1.19-0.33,1.73c-0.22,0.54-0.54,1.01-0.96,1.41c-0.42,0.4-0.93,0.73-1.53,0.96c-0.6,0.24-1.28,0.36-2.06,0.36
	c-0.77,0-1.46-0.12-2.06-0.36c-0.61-0.24-1.12-0.56-1.54-0.96c-0.42-0.4-0.74-0.87-0.96-1.41S79.11,21.93,79.11,21.31 M99.55,19.28
	c-0.03-0.52-0.17-0.97-0.41-1.34c-0.24-0.37-0.57-0.68-0.97-0.91c-0.4-0.23-0.87-0.41-1.4-0.52c-0.53-0.11-1.11-0.17-1.72-0.17
	c-0.46,0-0.93,0.05-1.4,0.14c-0.47,0.09-0.9,0.24-1.28,0.44c-0.38,0.2-0.69,0.46-0.92,0.78c-0.24,0.32-0.36,0.71-0.36,1.16
	c0,0.45,0.11,0.82,0.35,1.11c0.23,0.29,0.53,0.52,0.91,0.7c0.37,0.18,0.8,0.33,1.29,0.43c0.49,0.11,0.97,0.2,1.47,0.28
	c0.51,0.08,1,0.17,1.48,0.26c0.48,0.09,0.91,0.22,1.29,0.37c0.38,0.15,0.68,0.36,0.92,0.61c0.23,0.25,0.35,0.58,0.35,0.97
	c0,0.41-0.11,0.76-0.34,1.04c-0.23,0.27-0.51,0.5-0.84,0.66c-0.34,0.17-0.71,0.29-1.11,0.36c-0.4,0.07-0.78,0.1-1.13,0.1
	c-0.58,0-1.14-0.05-1.67-0.15c-0.53-0.1-0.99-0.27-1.39-0.5c-0.4-0.23-0.7-0.52-0.92-0.88c-0.22-0.36-0.31-0.8-0.27-1.32h-0.73
	c-0.01,0.61,0.11,1.13,0.37,1.55c0.26,0.42,0.61,0.77,1.06,1.04c0.45,0.27,0.98,0.47,1.58,0.58c0.61,0.12,1.25,0.18,1.95,0.18
	c0.45,0,0.92-0.05,1.41-0.14c0.49-0.09,0.94-0.25,1.34-0.46c0.4-0.21,0.74-0.49,1-0.82c0.26-0.34,0.4-0.75,0.4-1.25
	c0-0.47-0.12-0.85-0.35-1.15c-0.23-0.3-0.54-0.55-0.92-0.74c-0.38-0.19-0.81-0.34-1.29-0.45c-0.48-0.11-0.97-0.21-1.48-0.28
	c-0.5-0.08-0.99-0.17-1.47-0.25c-0.48-0.09-0.91-0.21-1.29-0.35c-0.37-0.15-0.68-0.34-0.91-0.58c-0.23-0.24-0.35-0.55-0.35-0.93
	c0-0.39,0.1-0.71,0.31-0.97c0.21-0.26,0.48-0.47,0.8-0.62c0.32-0.16,0.68-0.26,1.06-0.33c0.38-0.06,0.73-0.09,1.06-0.09
	c0.54,0,1.04,0.05,1.49,0.15c0.46,0.1,0.85,0.25,1.18,0.46c0.33,0.2,0.59,0.46,0.78,0.76c0.19,0.3,0.3,0.65,0.32,1.06H99.55z"/>
<line class="st0" x1="106.9" y1="5.25" x2="106.9" y2="37.38"/>
<line class="st1" x1="106.9" y1="5.25" x2="106.9" y2="37.38"/>
</svg>
