<?xml version="1.0" encoding="utf-8"?>
<!-- Generator: Adobe Illustrator 23.1.0, SVG Export Plug-In . SVG Version: 6.00 Build 0)  -->
<svg version="1.1" id="Layer_1" xmlns="http://www.w3.org/2000/svg" xmlns:xlink="http://www.w3.org/1999/xlink" x="0px" y="0px"
	 viewBox="0 0 255 36" style="enable-background:new 0 0 255 36;" xml:space="preserve">
<style type="text/css">
	.st0{fill:#FFFFFF;}
	.st1{fill:none;stroke:#FFFFFF;stroke-width:0.7;stroke-linecap:round;stroke-linejoin:round;stroke-miterlimit:10;}
</style>
<g>
	<path class="st0" d="M15.63,6.01c2.58,0,4.92,1.05,6.61,2.74c1.69,1.69,2.74,4.03,2.74,6.61c0,2.58-1.05,4.92-2.74,6.62
		c-1.69,1.69-4.03,2.74-6.61,2.74s-4.92-1.05-6.61-2.74c-1.69-1.69-2.74-4.03-2.74-6.62c0-2.58,1.05-4.92,2.74-6.61
		C10.71,7.06,13.05,6.01,15.63,6.01 M21.84,9.15c-1.59-1.59-3.79-2.57-6.21-2.57S11,7.56,9.41,9.15c-1.59,1.59-2.57,3.79-2.57,6.21
		c0,2.43,0.98,4.62,2.57,6.21c1.59,1.59,3.79,2.57,6.21,2.57s4.62-0.98,6.21-2.57c1.59-1.59,2.57-3.79,2.57-6.21
		C24.42,12.94,23.43,10.74,21.84,9.15"/>
	<path class="st0" d="M17.37,6.25c2.58,0,4.92,1.05,6.61,2.74c1.69,1.69,2.74,4.03,2.74,6.62s-1.05,4.92-2.74,6.61
		c-1.69,1.69-4.03,2.74-6.61,2.74s-4.92-1.05-6.61-2.74c-1.69-1.69-2.74-4.03-2.74-6.61s1.05-4.92,2.74-6.62
		C12.45,7.3,14.79,6.25,17.37,6.25 M23.58,9.39c-1.59-1.59-3.79-2.57-6.21-2.57c-2.43,0-4.62,0.98-6.21,2.57
		c-1.59,1.59-2.58,3.79-2.58,6.21c0,2.43,0.98,4.62,2.58,6.21c1.59,1.59,3.79,2.58,6.21,2.58c2.43,0,4.62-0.98,6.21-2.58
		c1.59-1.59,2.57-3.79,2.57-6.21C26.16,13.18,25.17,10.98,23.58,9.39"/>
	<path class="st0" d="M17.94,4.75c3.66,0,6.98,1.49,9.38,3.89c2.4,2.4,3.89,5.72,3.89,9.38S29.72,25,27.32,27.4
		c-2.4,2.4-5.72,3.89-9.38,3.89c-3.67,0-6.98-1.49-9.38-3.89c-2.4-2.4-3.89-5.72-3.89-9.38s1.49-6.98,3.89-9.38
		C10.96,6.24,14.27,4.75,17.94,4.75 M26.92,9.04c-2.3-2.3-5.48-3.72-8.98-3.72c-3.51,0-6.68,1.42-8.98,3.72
		c-2.3,2.3-3.72,5.48-3.72,8.98c0,3.51,1.42,6.68,3.72,8.98c2.3,2.3,5.47,3.72,8.98,3.72c3.51,0,6.68-1.42,8.98-3.72
		c2.3-2.3,3.72-5.47,3.72-8.98C30.64,14.51,29.22,11.34,26.92,9.04"/>
	<path class="st0" d="M19.44,2.59c4.4,0,8.4,1.79,11.28,4.67c2.89,2.89,4.67,6.88,4.67,11.28c0,4.4-1.79,8.39-4.67,11.28
		c-2.89,2.89-6.88,4.67-11.28,4.67s-8.39-1.79-11.28-4.67c-2.89-2.89-4.67-6.88-4.67-11.28c0-4.41,1.79-8.39,4.67-11.28
		C11.04,4.37,15.03,2.59,19.44,2.59 M30.32,7.66c-2.79-2.78-6.63-4.51-10.88-4.51c-4.25,0-8.1,1.72-10.88,4.51
		c-2.78,2.79-4.51,6.63-4.51,10.88c0,4.25,1.72,8.1,4.51,10.88c2.78,2.78,6.63,4.51,10.88,4.51c4.25,0,8.1-1.72,10.88-4.51
		c2.78-2.79,4.51-6.63,4.51-10.88C34.82,14.29,33.1,10.45,30.32,7.66"/>
	<path class="st0" d="M17.7,2.74c4.46,0,8.5,1.81,11.42,4.73c2.92,2.92,4.73,6.96,4.73,11.42c0,4.46-1.81,8.5-4.73,11.42
		c-2.92,2.92-6.96,4.73-11.42,4.73c-4.46,0-8.5-1.81-11.42-4.73C3.35,27.4,1.55,23.36,1.55,18.9c0-4.46,1.81-8.5,4.73-11.42
		C9.2,4.55,13.24,2.74,17.7,2.74 M28.72,7.88C25.9,5.06,22,3.31,17.7,3.31c-4.3,0-8.2,1.75-11.02,4.57
		C3.86,10.7,2.11,14.6,2.11,18.9c0,4.3,1.75,8.2,4.57,11.02c2.82,2.82,6.72,4.57,11.02,4.57c4.3,0,8.2-1.74,11.02-4.57
		c2.82-2.82,4.57-6.72,4.57-11.02C33.29,14.6,31.54,10.7,28.72,7.88"/>
	<path class="st0" d="M18.5,3.71c3.59,0,6.85,1.46,9.2,3.81c2.36,2.35,3.81,5.61,3.81,9.2c0,3.59-1.46,6.85-3.81,9.2
		c-2.35,2.35-5.61,3.81-9.2,3.81s-6.85-1.46-9.2-3.81c-2.35-2.35-3.81-5.61-3.81-9.2c0-3.59,1.46-6.85,3.81-9.2
		C11.66,5.16,14.91,3.71,18.5,3.71 M27.3,7.92c-2.25-2.25-5.36-3.65-8.8-3.65c-3.44,0-6.55,1.39-8.8,3.65
		c-2.25,2.25-3.64,5.36-3.64,8.8s1.39,6.55,3.64,8.8c2.25,2.25,5.36,3.65,8.8,3.65c3.44,0,6.55-1.39,8.8-3.65
		c2.25-2.25,3.64-5.36,3.64-8.8S29.56,10.17,27.3,7.92"/>
	<path class="st0" d="M17.61,1.57c3.83,0,7.29,1.55,9.8,4.06c2.51,2.51,4.06,5.97,4.06,9.8c0,3.83-1.55,7.29-4.06,9.8
		c-2.51,2.51-5.97,4.06-9.8,4.06c-3.83,0-7.29-1.55-9.8-4.06c-2.51-2.51-4.06-5.98-4.06-9.8c0-3.83,1.55-7.29,4.06-9.8
		C10.32,3.12,13.78,1.57,17.61,1.57 M27.01,6.03c-2.41-2.41-5.73-3.89-9.4-3.89c-3.67,0-6.99,1.49-9.4,3.89
		c-2.41,2.41-3.89,5.73-3.89,9.4c0,3.67,1.49,6.99,3.89,9.4c2.41,2.41,5.73,3.9,9.4,3.9c3.67,0,6.99-1.49,9.4-3.9
		c2.41-2.41,3.89-5.73,3.89-9.4C30.91,11.76,29.42,8.44,27.01,6.03"/>
	<path class="st0" d="M17.75,4.57c4.11,0,7.83,1.67,10.52,4.36c2.69,2.69,4.36,6.41,4.36,10.52c0,4.11-1.67,7.83-4.36,10.52
		c-2.69,2.69-6.41,4.36-10.52,4.36c-4.11,0-7.82-1.67-10.52-4.36c-2.69-2.69-4.36-6.41-4.36-10.52c0-4.11,1.67-7.83,4.36-10.52
		C9.93,6.23,13.65,4.57,17.75,4.57 M27.87,9.33c-2.59-2.59-6.17-4.19-10.12-4.19c-3.95,0-7.53,1.6-10.12,4.19
		c-2.59,2.59-4.19,6.17-4.19,10.12c0,3.95,1.6,7.53,4.19,10.12c2.59,2.59,6.17,4.19,10.12,4.19c3.95,0,7.53-1.6,10.12-4.19
		c2.59-2.59,4.19-6.17,4.19-10.12C32.06,15.49,30.46,11.92,27.87,9.33"/>
	<path class="st0" d="M40.31,24.06h0.68v-8.18h0.03l4.24,8.18h0.68l4.19-8.18h0.03v8.18h0.68v-8.85h-0.97l-4.25,8.24h-0.03
		l-4.3-8.24h-0.97V24.06z M62.75,19.63c0-0.65-0.12-1.25-0.36-1.82c-0.24-0.56-0.58-1.06-1.02-1.47c-0.45-0.42-0.99-0.75-1.64-0.99
		C59.09,15.12,58.35,15,57.53,15s-1.56,0.12-2.21,0.36c-0.65,0.24-1.2,0.57-1.65,0.99c-0.45,0.42-0.79,0.91-1.03,1.47
		c-0.23,0.57-0.35,1.17-0.35,1.82c0,0.64,0.12,1.25,0.35,1.81c0.24,0.56,0.58,1.06,1.03,1.47s1,0.75,1.65,0.98
		c0.65,0.24,1.39,0.36,2.21,0.36s1.56-0.12,2.21-0.36c0.65-0.24,1.19-0.57,1.64-0.98c0.45-0.42,0.79-0.91,1.02-1.47
		C62.64,20.88,62.75,20.28,62.75,19.63 M52.97,19.63c0-0.57,0.1-1.11,0.31-1.61c0.2-0.5,0.5-0.94,0.89-1.32s0.87-0.68,1.43-0.9
		c0.57-0.22,1.21-0.33,1.93-0.33c0.72,0,1.36,0.11,1.92,0.33c0.56,0.22,1.04,0.52,1.43,0.9c0.39,0.38,0.69,0.82,0.89,1.32
		s0.31,1.04,0.31,1.61c0,0.57-0.1,1.11-0.31,1.61c-0.21,0.5-0.5,0.94-0.89,1.32c-0.39,0.38-0.87,0.68-1.43,0.9
		c-0.56,0.22-1.2,0.33-1.92,0.33c-0.72,0-1.36-0.11-1.93-0.33c-0.57-0.22-1.04-0.52-1.43-0.9c-0.39-0.38-0.69-0.82-0.89-1.32
		C53.07,20.74,52.97,20.2,52.97,19.63 M64.88,15.68h2.82c0.27,0,0.57,0.01,0.9,0.04c0.33,0.03,0.67,0.09,1,0.18
		c0.33,0.09,0.66,0.22,0.97,0.39c0.31,0.17,0.59,0.4,0.83,0.69c0.24,0.29,0.44,0.65,0.59,1.08c0.15,0.43,0.22,0.95,0.22,1.55
		c0,0.77-0.13,1.41-0.39,1.92c-0.26,0.51-0.6,0.91-1.03,1.21c-0.42,0.3-0.89,0.52-1.41,0.64c-0.52,0.13-1.03,0.19-1.55,0.19h-2.96
		V15.68z M64.2,24.06h3.58c0.88,0,1.65-0.11,2.29-0.34c0.64-0.23,1.17-0.54,1.59-0.93c0.42-0.4,0.73-0.87,0.93-1.41
		c0.2-0.54,0.3-1.13,0.3-1.75c0-0.56-0.08-1.11-0.24-1.64c-0.16-0.53-0.43-1-0.82-1.41c-0.39-0.41-0.91-0.74-1.56-0.99
		c-0.65-0.25-1.47-0.37-2.46-0.37H64.2V24.06z M84.45,19.63c0-0.65-0.12-1.25-0.35-1.82c-0.24-0.56-0.58-1.06-1.03-1.47
		c-0.45-0.42-0.99-0.75-1.64-0.99c-0.65-0.24-1.38-0.36-2.2-0.36c-0.82,0-1.56,0.12-2.21,0.36c-0.65,0.24-1.2,0.57-1.65,0.99
		c-0.45,0.42-0.79,0.91-1.03,1.47c-0.24,0.57-0.35,1.17-0.35,1.82c0,0.64,0.12,1.25,0.35,1.81c0.24,0.56,0.58,1.06,1.03,1.47
		s1,0.75,1.65,0.98c0.65,0.24,1.39,0.36,2.21,0.36c0.82,0,1.56-0.12,2.2-0.36c0.65-0.24,1.2-0.57,1.64-0.98
		c0.45-0.42,0.79-0.91,1.03-1.47C84.34,20.88,84.45,20.28,84.45,19.63 M74.67,19.63c0-0.57,0.1-1.11,0.31-1.61
		c0.21-0.5,0.5-0.94,0.89-1.32s0.87-0.68,1.43-0.9c0.57-0.22,1.21-0.33,1.93-0.33c0.72,0,1.36,0.11,1.92,0.33
		c0.56,0.22,1.04,0.52,1.43,0.9s0.69,0.82,0.89,1.32c0.21,0.5,0.31,1.04,0.31,1.61c0,0.57-0.1,1.11-0.31,1.61
		c-0.21,0.5-0.5,0.94-0.89,1.32c-0.39,0.38-0.87,0.68-1.43,0.9c-0.56,0.22-1.2,0.33-1.92,0.33c-0.72,0-1.36-0.11-1.93-0.33
		c-0.56-0.22-1.04-0.52-1.43-0.9c-0.39-0.38-0.69-0.82-0.89-1.32C74.77,20.74,74.67,20.2,74.67,19.63 M93.76,17.74
		c-0.03-0.49-0.16-0.9-0.39-1.25c-0.23-0.35-0.53-0.63-0.9-0.85c-0.37-0.22-0.81-0.38-1.31-0.48c-0.5-0.1-1.03-0.15-1.61-0.15
		c-0.43,0-0.87,0.04-1.31,0.13c-0.44,0.09-0.84,0.22-1.19,0.41c-0.35,0.19-0.64,0.43-0.86,0.73c-0.22,0.3-0.33,0.66-0.33,1.08
		c0,0.42,0.11,0.77,0.32,1.04c0.22,0.27,0.5,0.49,0.85,0.65c0.35,0.17,0.75,0.3,1.2,0.4c0.45,0.1,0.91,0.19,1.37,0.26
		c0.47,0.08,0.93,0.15,1.38,0.24c0.45,0.09,0.85,0.2,1.2,0.35c0.35,0.14,0.64,0.33,0.85,0.57c0.21,0.24,0.32,0.54,0.32,0.91
		c0,0.39-0.11,0.71-0.32,0.97c-0.21,0.25-0.47,0.46-0.79,0.62c-0.31,0.16-0.66,0.27-1.03,0.34c-0.37,0.07-0.73,0.1-1.05,0.1
		c-0.54,0-1.06-0.05-1.56-0.14c-0.49-0.1-0.93-0.25-1.29-0.47c-0.37-0.21-0.66-0.49-0.86-0.82c-0.2-0.34-0.29-0.75-0.26-1.23h-0.68
		c-0.01,0.57,0.11,1.05,0.35,1.45c0.24,0.4,0.57,0.72,0.99,0.97c0.42,0.25,0.91,0.43,1.48,0.55c0.57,0.11,1.17,0.17,1.82,0.17
		c0.42,0,0.86-0.04,1.32-0.13c0.46-0.09,0.87-0.23,1.25-0.43c0.37-0.2,0.69-0.45,0.93-0.77c0.25-0.31,0.37-0.7,0.37-1.16
		c0-0.44-0.11-0.8-0.32-1.08c-0.22-0.28-0.5-0.51-0.86-0.69c-0.35-0.18-0.75-0.32-1.2-0.42c-0.45-0.1-0.91-0.19-1.38-0.27
		c-0.46-0.08-0.92-0.15-1.37-0.23c-0.45-0.08-0.85-0.19-1.2-0.33c-0.35-0.14-0.63-0.32-0.85-0.54c-0.21-0.22-0.32-0.51-0.32-0.87
		c0-0.36,0.1-0.67,0.29-0.91c0.2-0.24,0.44-0.44,0.75-0.58c0.3-0.15,0.63-0.25,0.99-0.3c0.35-0.06,0.68-0.09,0.99-0.09
		c0.5,0,0.97,0.05,1.39,0.14c0.43,0.1,0.79,0.24,1.1,0.43c0.31,0.19,0.55,0.43,0.73,0.71c0.18,0.28,0.28,0.61,0.3,0.99H93.76z"/>
	<line class="st1" x1="99.73" y1="3.31" x2="99.73" y2="33.31"/>
	<g>
		<path class="st0" d="M107.32,14.01h6.43v0.48h-5.9v3.41h5.67v0.48h-5.67v3.72h5.97v0.48h-6.5V14.01z"/>
		<path class="st0" d="M117.6,18.22l-3.33-4.21h0.71l2.96,3.78l3.02-3.78h0.66l-3.33,4.21l3.44,4.35h-0.7l-3.1-3.93l-3.13,3.93
			h-0.66L117.6,18.22z"/>
		<path class="st0" d="M122.55,14.01h0.52v3.81h6.23v-3.81h0.52v8.56h-0.52v-4.27h-6.23v4.27h-0.52V14.01z"/>
		<path class="st0" d="M131.43,14.01h0.52v8.56h-0.52V14.01z"/>
		<path class="st0" d="M133.55,14.01h4.39c1.56,0,2.37,0.77,2.37,2.11c0,0.84-0.36,1.69-1.6,1.97v0.02
			c1.58,0.17,1.87,1.38,1.87,2.11c0,0.92-0.48,2.35-2.72,2.35h-4.31V14.01z M134.08,17.9h3.63c0.42,0,2.09,0,2.09-1.74
			c0-1.67-1.3-1.67-2.17-1.67h-3.54V17.9z M134.08,22.1h3.67c0.41,0,2.31,0,2.31-1.92c0-1.8-1.55-1.8-2.45-1.8h-3.53V22.1z"/>
		<path class="st0" d="M142.01,14.01h0.52v8.56h-0.52V14.01z"/>
		<path class="st0" d="M152.11,19.33c-0.18,1.63-1.56,3.44-4,3.44c-2.47,0-4.33-1.64-4.33-4.47c0-2.07,1.35-4.47,4.33-4.47
			c1.96,0,3.45,0.97,3.86,2.88h-0.52c-0.39-1.64-1.81-2.4-3.34-2.4c-2.33,0-3.81,1.83-3.81,3.99c0,2.15,1.31,3.99,3.81,3.99
			c1.8,0,3.17-1.1,3.48-2.96H152.11z"/>
		<path class="st0" d="M153.43,14.01h0.52v8.56h-0.52V14.01z"/>
		<path class="st0" d="M159.52,13.82c3.31,0,4.32,2.79,4.32,4.47s-1.01,4.47-4.32,4.47c-3.31,0-4.32-2.79-4.32-4.47
			S156.22,13.82,159.52,13.82z M159.52,22.29c2.45,0,3.8-1.94,3.8-3.99s-1.35-3.99-3.8-3.99s-3.8,1.94-3.8,3.99
			S157.07,22.29,159.52,22.29z M161.08,11.82l-1.79,1.7h-0.51l1.64-1.7H161.08z"/>
		<path class="st0" d="M165.09,14.01h0.66l6.08,7.8h0.02v-7.8h0.52v8.56h-0.66l-6.08-7.8h-0.02v7.8h-0.52V14.01z"/>
		<path class="st0" d="M176.72,14.01h0.52v8.56h-0.52V14.01z"/>
		<path class="st0" d="M178.84,14.01h0.66l6.08,7.8h0.02v-7.8h0.52v8.56h-0.66l-6.08-7.8h-0.02v7.8h-0.52V14.01z"/>
		<path class="st0" d="M187.78,14.01h0.79l3.96,7.87l3.96-7.87h0.79v8.56h-0.52v-7.8h-0.02l-3.93,7.8h-0.52l-3.93-7.8h-0.02v7.8
			h-0.52V14.01z"/>
		<path class="st0" d="M202.89,13.82c3.31,0,4.32,2.79,4.32,4.47s-1.01,4.47-4.32,4.47c-3.31,0-4.32-2.79-4.32-4.47
			S199.58,13.82,202.89,13.82z M202.89,22.29c2.45,0,3.8-1.94,3.8-3.99s-1.35-3.99-3.8-3.99s-3.8,1.94-3.8,3.99
			S200.44,22.29,202.89,22.29z"/>
		<path class="st0" d="M208.44,14.01h4.39c1.56,0,2.37,0.77,2.37,2.11c0,0.84-0.36,1.69-1.6,1.97v0.02
			c1.58,0.17,1.87,1.38,1.87,2.11c0,0.92-0.48,2.35-2.72,2.35h-4.31V14.01z M208.96,17.9h3.63c0.42,0,2.09,0,2.09-1.74
			c0-1.67-1.3-1.67-2.17-1.67h-3.54V17.9z M208.96,22.1h3.67c0.41,0,2.31,0,2.31-1.92c0-1.8-1.55-1.8-2.45-1.8h-3.53V22.1z"/>
		<path class="st0" d="M216.9,14.01h0.52v8.56h-0.52V14.01z"/>
		<path class="st0" d="M219.02,14.01h0.52v8.08h5.33v0.48h-5.86V14.01z"/>
		<path class="st0" d="M225.79,14.01h0.52v8.56h-0.52V14.01z"/>
		<path class="st0" d="M230.84,14.01h0.59l3.74,8.56h-0.59l-1.2-2.76h-4.49l-1.2,2.76h-0.59L230.84,14.01z M229.09,19.34h4.08
			l-2.04-4.7L229.09,19.34z"/>
		<path class="st0" d="M235.96,14.01h4.16c1.56,0,2.75,0.47,2.75,2.27c0,0.89-0.51,1.85-1.66,2.12v0.02
			c0.99,0.13,1.52,0.85,1.53,1.78c0.02,1.56,0.07,2.06,0.23,2.37h-0.52c-0.15-0.14-0.19-0.68-0.23-1.99
			c-0.03-1.49-0.49-1.91-2.1-1.91h-3.63v3.9h-0.52V14.01z M236.48,18.2h3.54c0.51,0,2.31,0,2.31-1.96c0-1.39-1.03-1.75-2.18-1.75
			h-3.68V18.2z"/>
		<path class="st0" d="M244.21,14.01h0.52v8.56h-0.52V14.01z"/>
		<path class="st0" d="M249.26,14.01h0.59l3.74,8.56H253l-1.2-2.76h-4.49l-1.2,2.76h-0.59L249.26,14.01z M247.52,19.34h4.08
			l-2.04-4.7L247.52,19.34z"/>
	</g>
</g>
</svg>
