<?xml version="1.0" encoding="utf-8"?>
<!-- Generator: Adobe Illustrator 23.1.0, SVG Export Plug-In . SVG Version: 6.00 Build 0)  -->
<svg version="1.1" id="Layer_1" xmlns="http://www.w3.org/2000/svg" xmlns:xlink="http://www.w3.org/1999/xlink" x="0px" y="0px"
	 viewBox="0 0 45 50" style="enable-background:new 0 0 45 50;" xml:space="preserve">
<style type="text/css">
	.st0{fill:#FFFFFF;}
</style>
<g>
	<path class="st0" d="M30.35,19.06c-0.18-0.47-0.4-0.81-0.75-1.16c-0.35-0.35-0.69-0.57-1.16-0.75c-0.36-0.14-0.89-0.3-1.87-0.35
		c-1.06-0.05-1.38-0.06-4.07-0.06c-2.69,0-3.01,0.01-4.07,0.06c-0.98,0.04-1.52,0.21-1.87,0.35c-0.47,0.18-0.81,0.4-1.16,0.75
		c-0.35,0.35-0.57,0.69-0.75,1.16c-0.14,0.35-0.3,0.89-0.35,1.87c-0.05,1.06-0.06,1.38-0.06,4.07c0,2.69,0.01,3.01,0.06,4.07
		c0.05,0.98,0.21,1.52,0.35,1.87c0.18,0.47,0.4,0.81,0.75,1.16c0.35,0.35,0.69,0.57,1.16,0.75c0.36,0.14,0.89,0.3,1.87,0.35
		c1.06,0.05,1.38,0.06,4.07,0.06c2.69,0,3.01-0.01,4.07-0.06c0.98-0.04,1.52-0.21,1.87-0.35c0.47-0.18,0.81-0.4,1.16-0.75
		c0.35-0.35,0.57-0.69,0.75-1.16c0.14-0.35,0.3-0.89,0.35-1.87c0.05-1.06,0.06-1.38,0.06-4.07c0-2.69-0.01-3.01-0.06-4.07
		C30.66,19.95,30.49,19.41,30.35,19.06 M22.5,30.17c-2.86,0-5.17-2.32-5.17-5.17c0-2.86,2.32-5.18,5.17-5.18
		c2.86,0,5.17,2.32,5.17,5.18C27.67,27.86,25.36,30.17,22.5,30.17 M27.88,20.83c-0.67,0-1.21-0.54-1.21-1.21
		c0-0.67,0.54-1.21,1.21-1.21c0.67,0,1.21,0.54,1.21,1.21C29.09,20.29,28.55,20.83,27.88,20.83"/>
	<path class="st0" d="M22.5,21.64c-1.86,0-3.36,1.5-3.36,3.36c0,1.85,1.5,3.36,3.36,3.36c1.86,0,3.36-1.5,3.36-3.36
		C25.86,23.14,24.36,21.64,22.5,21.64"/>
	<path class="st0" d="M22.5,6.62C12.35,6.62,4.12,14.85,4.12,25c0,10.15,8.23,18.38,18.38,18.38c10.15,0,18.38-8.23,18.38-18.38
		C40.88,14.85,32.65,6.62,22.5,6.62 M32.52,29.15c-0.05,1.07-0.22,1.81-0.47,2.45c-0.26,0.66-0.6,1.23-1.16,1.78
		c-0.56,0.56-1.12,0.91-1.78,1.16c-0.64,0.25-1.37,0.42-2.45,0.47c-1.07,0.05-1.42,0.06-4.15,0.06c-2.74,0-3.08-0.01-4.16-0.06
		c-1.07-0.05-1.8-0.22-2.45-0.47c-0.66-0.26-1.22-0.6-1.78-1.16c-0.56-0.56-0.9-1.12-1.16-1.78c-0.25-0.64-0.42-1.37-0.47-2.45
		c-0.05-1.07-0.06-1.42-0.06-4.15c0-2.74,0.01-3.08,0.06-4.16c0.05-1.07,0.22-1.8,0.47-2.45c0.26-0.66,0.6-1.23,1.16-1.79
		c0.56-0.56,1.12-0.9,1.78-1.16c0.64-0.25,1.37-0.42,2.45-0.47c1.08-0.05,1.42-0.06,4.16-0.06c2.74,0,3.08,0.01,4.15,0.06
		c1.07,0.05,1.81,0.22,2.45,0.47c0.66,0.26,1.22,0.6,1.78,1.16c0.56,0.56,0.91,1.12,1.16,1.79c0.25,0.64,0.42,1.37,0.47,2.45
		c0.05,1.07,0.06,1.42,0.06,4.16C32.58,27.74,32.57,28.08,32.52,29.15"/>
</g>
</svg>
