<?xml version="1.0" encoding="utf-8"?>
<!-- Generator: Adobe Illustrator 23.1.0, SVG Export Plug-In . SVG Version: 6.00 Build 0)  -->
<svg version="1.1" id="Layer_1" xmlns="http://www.w3.org/2000/svg" xmlns:xlink="http://www.w3.org/1999/xlink" x="0px" y="0px"
	 viewBox="0 0 45 50" style="enable-background:new 0 0 45 50;" xml:space="preserve">
<style type="text/css">
	.st0{fill:#FFFFFF;}
</style>
<g>
	<path class="st0" d="M22.5,6.62C12.35,6.62,4.12,14.85,4.12,25c0,10.15,8.23,18.38,18.38,18.38S40.88,35.15,40.88,25
		C40.88,14.85,32.65,6.62,22.5,6.62 M30.29,21.01c0.25,5.65-3.96,11.95-11.42,11.95c-2.27,0-4.38-0.67-6.16-1.81
		c2.13,0.25,4.26-0.34,5.95-1.66c-1.76-0.03-3.24-1.19-3.75-2.79c0.63,0.12,1.25,0.09,1.81-0.07c-1.93-0.39-3.27-2.13-3.22-3.99
		c0.54,0.3,1.16,0.48,1.82,0.5c-1.79-1.2-2.3-3.56-1.24-5.36c1.98,2.43,4.94,4.03,8.28,4.2c-0.59-2.51,1.32-4.93,3.91-4.93
		c1.16,0,2.2,0.49,2.93,1.27c0.91-0.18,1.77-0.52,2.55-0.98c-0.3,0.94-0.94,1.73-1.77,2.22c0.81-0.1,1.59-0.31,2.31-0.63
		C31.75,19.73,31.07,20.44,30.29,21.01"/>
</g>
</svg>
