<?xml version="1.0" encoding="utf-8"?>
<!-- Generator: Adobe Illustrator 23.1.0, SVG Export Plug-In . SVG Version: 6.00 Build 0)  -->
<svg version="1.1" id="Layer_1" xmlns="http://www.w3.org/2000/svg" xmlns:xlink="http://www.w3.org/1999/xlink" x="0px" y="0px"
	 viewBox="0 0 45 50" style="enable-background:new 0 0 45 50;" xml:space="preserve">
<style type="text/css">
	.st0{fill:#FFFFFF;}
</style>
<g>
	<path class="st0" d="M22.68,16.48c-4.31,0-7.87,3.28-8.28,7.46c-0.03,0.26-0.04,0.53-0.04,0.8c0,1.81,0.59,3.48,1.58,4.84
		l-1.04,3.07l3.2-1.02C19.42,32.5,20.99,33,22.68,33c4.59,0,8.32-3.7,8.32-8.26c0-0.22-0.01-0.43-0.03-0.64
		C30.64,19.84,27.05,16.48,22.68,16.48 M27.54,28.15c-0.2,0.57-1.19,1.11-1.64,1.14c-0.45,0.04-0.45,0.36-2.91-0.6
		c-2.46-0.97-4.02-3.48-4.14-3.64c-0.09-0.12-0.62-0.82-0.87-1.67c-0.07-0.26-0.12-0.54-0.12-0.82c0-1.19,0.63-1.77,0.85-2.01
		c0.22-0.24,0.49-0.3,0.65-0.3c0.16,0,0.32,0.02,0.46,0.02c0.14,0,0.35-0.08,0.55,0.4c0.2,0.48,0.69,1.67,0.75,1.79
		c0.06,0.12,0.1,0.26,0.02,0.42c-0.06,0.12-0.1,0.2-0.15,0.29c-0.03,0.04-0.06,0.07-0.09,0.12c-0.12,0.14-0.25,0.31-0.37,0.42
		c-0.12,0.12-0.25,0.25-0.11,0.49c0.14,0.24,0.63,1.03,1.35,1.66c0.93,0.82,1.71,1.07,1.95,1.2c0.25,0.12,0.38,0.1,0.53-0.06
		c0.14-0.16,0.61-0.7,0.77-0.94s0.32-0.2,0.55-0.12c0.22,0.08,1.41,0.66,1.66,0.78c0.24,0.12,0.4,0.18,0.46,0.28
		C27.74,27.1,27.74,27.59,27.54,28.15"/>
	<path class="st0" d="M22.5,6.62L22.5,6.62C12.35,6.62,4.12,14.85,4.12,25c0,10.15,8.23,18.38,18.38,18.38
		c10.15,0,18.38-8.23,18.38-18.38C40.88,14.85,32.65,6.62,22.5,6.62 M22.68,34.56c-1.73,0-3.36-0.45-4.78-1.22l-5.48,1.74l1.78-5.27
		c-0.9-1.48-1.42-3.22-1.42-5.07c0-0.14,0.01-0.29,0.01-0.43c0.23-5.23,4.57-9.39,9.89-9.39c5.38,0,9.76,4.26,9.89,9.57
		c0,0.08,0,0.17,0,0.25C32.58,30.17,28.15,34.56,22.68,34.56"/>
</g>
</svg>
